{"glyphs":{"0":{"ha":744,"x_min":74,"x_max":669,"o":"m 332 153 l 414 153 q 476 172 458 153 q 494 235 494 190 l 494 658 q 476 722 494 703 q 414 740 458 740 l 332 740 q 269 722 288 740 q 251 658 251 703 l 251 235 q 269 172 251 190 q 332 153 288 153 m 442 0 l 303 0 q 133 58 193 0 q 74 226 74 117 l 74 667 q 133 835 74 776 q 303 893 193 893 l 442 893 q 610 834 550 893 q 669 667 669 775 l 669 226 q 610 59 669 118 q 442 0 550 0 z "},"1":{"ha":464,"x_min":32,"x_max":374,"o":"m 32 644 l 32 758 q 53 794 32 782 l 179 874 q 233 893 211 893 l 344 893 q 374 864 374 893 l 374 29 q 367 6 374 13 q 346 0 361 0 l 226 0 q 197 29 197 0 l 197 706 l 61 628 q 32 644 32 615 z "},"2":{"ha":685,"x_min":60,"x_max":624,"o":"m 65 29 l 65 161 q 133 296 65 240 l 389 513 q 451 624 451 564 l 451 665 q 431 727 451 708 q 365 746 411 746 l 317 746 q 254 727 272 746 q 236 665 236 708 l 236 621 q 207 590 236 590 l 89 590 q 60 621 60 590 l 60 668 q 119 835 60 776 q 289 893 179 893 l 394 893 q 564 835 504 893 q 624 668 624 776 l 624 613 q 540 433 624 504 l 279 211 q 263 178 263 196 l 263 156 l 594 156 q 624 126 624 156 l 624 29 q 594 0 624 0 l 94 0 q 65 29 65 0 z "},"3":{"ha":707,"x_min":51,"x_max":633,"o":"m 304 519 l 375 519 q 441 538 421 519 q 461 600 461 557 l 461 665 q 441 727 461 708 q 375 746 421 746 l 308 746 q 246 727 264 746 q 228 665 228 708 l 228 631 q 199 601 228 601 l 81 601 q 51 631 51 601 l 51 668 q 111 835 51 776 q 281 893 171 893 l 404 893 q 574 835 514 893 q 633 668 633 776 l 633 599 q 524 447 633 482 q 633 296 633 424 l 633 225 q 574 58 633 117 q 404 0 514 0 l 281 0 q 111 58 171 0 q 51 225 51 117 l 51 264 q 81 294 51 294 l 199 294 q 228 264 228 294 l 228 228 q 246 165 228 183 q 308 147 264 147 l 375 147 q 441 166 421 147 q 461 228 461 185 l 461 296 q 441 358 461 339 q 375 376 421 376 l 304 376 q 275 406 275 376 l 275 489 q 304 519 275 519 z "},"4":{"ha":751,"x_min":46,"x_max":735,"o":"m 442 315 l 442 744 l 217 315 l 442 315 m 579 0 l 471 0 q 442 29 442 0 l 442 163 l 97 163 q 60 176 74 163 q 46 214 46 190 l 46 268 q 60 336 46 310 l 336 850 q 362 884 350 875 q 397 893 374 893 l 554 893 q 592 879 578 893 q 607 842 607 865 l 607 315 l 707 315 q 735 288 735 315 l 735 194 q 707 163 735 163 l 607 163 l 607 29 q 601 6 607 13 q 579 0 594 0 z "},"5":{"ha":703,"x_min":63,"x_max":642,"o":"m 379 454 l 314 454 q 259 425 278 454 q 219 396 240 396 l 104 396 q 75 424 75 396 l 75 864 q 104 893 75 893 l 588 893 q 617 864 617 893 l 617 758 q 588 729 617 729 l 251 729 l 251 525 q 368 594 275 594 l 426 594 q 642 379 642 594 l 642 226 q 582 59 642 118 q 414 0 522 0 l 292 0 q 122 58 182 0 q 63 226 63 117 l 63 254 q 92 285 63 285 l 210 285 q 239 254 239 285 l 239 228 q 258 166 239 185 q 319 147 276 147 l 385 147 q 450 166 429 147 q 471 228 471 185 l 471 353 q 451 433 471 411 q 379 454 432 454 z "},"6":{"ha":729,"x_min":72,"x_max":667,"o":"m 329 153 l 408 153 q 472 172 453 153 q 490 235 490 190 l 490 331 q 472 394 490 375 q 408 413 453 413 l 249 413 l 249 235 q 267 172 249 190 q 329 153 285 153 m 438 0 l 301 0 q 132 58 192 0 q 72 226 72 117 l 72 667 q 132 835 72 776 q 301 893 192 893 l 585 893 q 614 864 614 893 l 614 768 q 585 740 614 740 l 329 740 q 267 722 286 740 q 249 658 249 703 l 249 565 l 438 565 q 607 507 547 565 q 667 339 667 449 l 667 226 q 607 58 667 117 q 438 0 547 0 z "},"7":{"ha":599,"x_min":26,"x_max":571,"o":"m 235 0 l 104 0 q 87 8 92 0 q 89 29 82 15 l 382 732 l 56 732 q 26 761 26 732 l 26 864 q 56 893 26 893 l 542 893 q 571 864 571 893 l 571 747 q 551 672 571 719 l 282 26 q 235 0 271 0 z "},"8":{"ha":753,"x_min":74,"x_max":678,"o":"m 329 151 l 424 151 q 486 169 468 151 q 504 231 504 188 l 504 294 q 486 360 504 339 q 424 381 468 381 l 329 381 q 267 360 285 381 q 249 294 249 339 l 249 231 q 267 169 249 188 q 329 151 285 151 m 329 518 l 424 518 q 486 539 468 518 q 504 604 504 560 l 504 663 q 486 724 504 706 q 424 742 468 742 l 329 742 q 267 724 285 742 q 249 663 249 706 l 249 604 q 267 539 249 560 q 329 518 285 518 m 450 0 l 303 0 q 133 55 192 0 q 74 217 74 110 l 74 281 q 165 449 74 408 q 74 618 74 486 l 74 678 q 133 839 74 785 q 303 893 192 893 l 450 893 q 619 839 560 893 q 678 678 678 785 l 678 618 q 653 507 678 553 q 588 449 628 461 q 678 279 678 413 l 678 217 q 619 55 678 110 q 450 0 560 0 z "},"9":{"ha":729,"x_min":60,"x_max":654,"o":"m 318 471 l 479 471 l 479 658 q 460 722 479 703 q 397 740 442 740 l 318 740 q 256 722 274 740 q 238 658 238 703 l 238 551 q 256 490 238 508 q 318 471 274 471 m 425 0 l 132 0 q 101 29 101 0 l 101 125 q 132 153 101 153 l 397 153 q 460 172 442 153 q 478 235 478 190 l 478 318 l 289 318 q 119 376 179 318 q 60 543 60 435 l 60 667 q 119 835 60 776 q 289 893 179 893 l 425 893 q 594 835 535 893 q 654 667 654 776 l 654 226 q 594 58 654 117 q 425 0 535 0 z "},"\u0000":{"ha":0,"x_min":0,"x_max":0,"o":""},"\r":{"ha":0,"x_min":0,"x_max":0,"o":""}," ":{"ha":306,"x_min":0,"x_max":0,"o":""},"!":{"ha":331,"x_min":69,"x_max":260,"o":"m 69 649 l 69 864 q 99 893 69 893 l 231 893 q 260 864 260 893 l 260 649 q 253 524 260 593 q 244 422 247 456 q 239 368 242 389 q 236 346 236 347 q 204 317 231 317 l 125 317 q 93 346 99 317 q 90 368 93 347 q 84 422 88 389 q 78 494 81 456 q 69 649 69 608 m 256 200 l 256 29 q 228 0 256 0 l 106 0 q 78 31 78 0 l 78 199 q 106 226 78 226 l 228 226 q 256 200 256 226 z "},"\"":{"ha":490,"x_min":51,"x_max":439,"o":"m 139 575 l 118 575 q 89 607 92 575 l 51 867 q 76 893 47 893 l 183 893 q 207 867 211 893 l 171 604 q 139 575 164 575 m 371 575 l 350 575 q 321 607 324 575 l 283 867 q 308 893 279 893 l 415 893 q 439 867 443 893 l 403 604 q 371 575 396 575 z "},"#":{"ha":929,"x_min":49,"x_max":881,"o":"m 853 699 q 881 669 881 699 l 881 588 q 853 557 881 557 l 717 557 l 664 336 l 785 336 q 813 306 813 336 l 813 224 q 785 194 813 194 l 629 194 l 589 29 q 558 0 583 0 l 471 0 q 447 31 439 0 l 488 194 l 331 194 l 290 29 q 254 0 282 0 l 172 0 q 149 31 142 0 l 189 194 l 78 194 q 49 224 49 194 l 49 306 q 78 336 49 336 l 224 336 l 276 557 l 146 557 q 117 588 117 557 l 117 669 q 146 699 117 699 l 311 699 l 351 864 q 382 893 358 893 l 468 893 q 493 863 500 893 l 453 699 l 610 699 l 650 864 q 686 893 658 893 l 767 893 q 792 863 800 893 l 751 699 l 853 699 m 522 336 l 575 557 l 418 557 l 365 336 l 522 336 z "},"$":{"ha":732,"x_min":64,"x_max":668,"o":"m 411 -136 l 328 -136 q 299 -107 299 -136 l 299 0 l 289 0 q 124 60 183 0 q 65 228 65 121 l 65 254 q 94 283 65 283 l 213 283 q 242 254 242 283 l 242 244 q 263 172 242 192 q 339 153 283 153 l 394 153 q 470 174 449 153 q 492 251 492 194 l 492 272 q 471 326 492 307 q 422 353 450 346 q 324 365 397 358 q 215 383 251 372 q 142 418 179 393 q 64 614 64 468 l 64 665 q 123 834 64 775 q 289 893 182 893 l 299 893 l 299 1003 q 328 1032 299 1032 l 411 1032 q 440 1003 440 1032 l 440 893 l 443 893 q 599 832 542 893 q 656 665 656 771 l 656 639 q 626 610 656 610 l 508 610 q 479 639 479 610 l 479 649 q 459 721 479 701 q 382 740 439 740 l 338 740 q 260 719 281 740 q 240 635 240 697 l 240 607 q 261 559 240 576 q 308 536 282 542 q 412 524 339 531 q 522 506 485 518 q 594 469 558 494 q 668 281 668 417 l 668 228 q 608 60 668 119 q 443 0 547 0 l 440 0 l 440 -107 q 411 -136 440 -136 z "},"%":{"ha":1029,"x_min":69,"x_max":958,"o":"m 788 326 l 756 326 q 714 315 725 326 q 703 274 703 303 l 703 153 q 714 110 703 122 q 756 99 725 99 l 788 99 q 828 111 817 99 q 840 153 840 124 l 840 274 q 829 315 840 303 q 788 326 818 326 m 729 425 l 811 425 q 921 388 883 425 q 958 279 958 350 l 958 146 q 921 38 958 75 q 811 0 883 0 l 729 0 q 620 38 658 0 q 582 146 582 75 l 582 279 q 620 388 582 350 q 729 425 658 425 m 274 796 l 242 796 q 200 784 211 796 q 189 742 189 772 l 189 621 q 200 580 189 592 q 242 568 211 568 l 274 568 q 315 580 304 568 q 326 621 326 592 l 326 742 q 315 783 326 771 q 274 796 303 796 m 217 894 l 299 894 q 408 857 371 894 q 446 749 446 819 l 446 615 q 408 507 446 544 q 299 469 371 469 l 217 469 q 108 507 146 469 q 69 615 69 544 l 69 749 q 108 857 69 819 q 217 894 146 894 m 376 0 l 304 0 q 283 29 272 0 q 449 447 328 143 q 614 864 569 750 q 650 893 626 893 l 724 893 q 744 864 756 893 l 414 29 q 376 0 403 0 z "},"&":{"ha":858,"x_min":53,"x_max":806,"o":"m 308 154 l 367 154 q 433 210 425 154 l 282 388 q 235 365 249 386 q 222 294 222 344 l 222 235 q 242 173 222 192 q 308 154 263 154 m 367 0 l 282 0 q 113 58 172 0 q 53 225 53 117 l 53 306 q 90 428 53 375 q 193 490 126 482 q 139 653 139 561 l 139 668 q 203 834 139 775 q 379 893 268 893 l 425 893 q 594 835 535 893 q 654 668 654 776 l 654 621 q 625 590 654 590 l 507 590 q 478 621 478 590 l 478 665 q 461 727 478 708 q 408 746 444 746 l 397 746 q 339 727 357 746 q 321 665 321 708 l 321 647 q 382 524 321 593 l 447 449 l 756 449 q 785 418 785 449 l 785 324 q 756 294 785 294 l 575 294 l 801 25 q 806 8 808 17 q 793 0 803 0 l 644 0 q 596 19 611 0 l 535 92 q 480 22 519 43 q 367 0 440 0 z "},"'":{"ha":261,"x_min":54,"x_max":206,"o":"m 142 624 l 118 624 q 88 650 92 624 l 54 824 q 79 846 50 846 l 182 846 q 206 824 211 846 l 174 647 q 142 624 167 624 z "},"(":{"ha":425,"x_min":60,"x_max":350,"o":"m 324 769 l 319 769 q 201 608 201 769 l 201 143 q 322 -18 201 -18 l 324 -18 q 344 -24 339 -18 q 350 -43 350 -29 l 350 -121 q 345 -137 350 -133 q 324 -142 340 -142 l 319 -142 q 128 -67 197 -142 q 60 165 60 7 l 60 586 q 129 819 60 744 q 321 893 199 893 l 325 893 q 345 889 340 893 q 350 872 350 885 l 350 794 q 344 775 350 781 q 324 769 339 769 z "},")":{"ha":425,"x_min":60,"x_max":350,"o":"m 60 -121 l 60 -43 q 86 -18 60 -18 l 88 -18 q 208 143 208 -18 l 208 608 q 88 769 208 769 l 86 769 q 60 794 60 769 l 60 872 q 65 889 60 885 q 86 893 71 893 l 88 893 q 280 819 210 893 q 350 586 350 744 l 350 165 q 280 -67 350 7 q 88 -142 210 -142 l 86 -142 q 65 -137 71 -142 q 60 -121 60 -133 z "},"*":{"ha":553,"x_min":56,"x_max":499,"o":"m 211 854 l 211 867 q 239 893 211 893 l 308 893 q 336 867 336 893 l 336 854 q 311 739 336 799 q 303 717 307 728 q 294 699 299 707 q 285 685 289 692 q 281 675 282 679 q 336 738 318 721 q 443 796 375 774 q 478 778 467 803 l 499 711 q 481 676 507 685 q 382 658 432 658 q 289 668 324 660 q 446 553 397 631 q 440 515 461 531 l 383 475 q 344 481 361 461 q 278 672 278 561 q 256 546 274 583 q 217 474 243 515 q 178 469 203 454 l 122 511 q 115 549 96 525 q 169 609 147 593 q 206 635 192 625 q 233 651 221 644 q 255 662 246 657 q 278 672 264 667 q 83 664 158 639 l 71 668 q 56 703 47 676 l 76 769 q 111 786 85 796 q 269 681 194 763 l 275 675 q 269 685 272 679 q 260 699 265 692 q 249 717 254 707 q 239 740 244 728 q 228 765 233 751 q 219 793 224 779 q 211 854 211 821 z "},"+":{"ha":785,"x_min":97,"x_max":688,"o":"m 467 518 l 656 518 q 681 510 674 518 q 688 485 688 503 l 688 407 q 656 375 688 375 l 467 375 l 467 183 q 433 150 467 150 l 351 150 q 318 183 318 150 l 318 375 l 129 375 q 97 407 97 375 l 97 485 q 104 510 97 503 q 129 518 111 518 l 318 518 l 318 708 q 351 742 318 742 l 433 742 q 467 708 467 742 l 467 518 z "},",":{"ha":283,"x_min":53,"x_max":231,"o":"m 231 200 l 231 92 q 199 6 231 54 l 103 -135 q 76 -149 93 -149 q 53 -121 53 -149 l 53 199 q 81 226 53 226 l 204 226 q 231 200 231 226 z "},"-":{"ha":433,"x_min":56,"x_max":378,"o":"m 349 372 l 85 372 q 56 401 56 372 l 56 483 q 85 514 56 514 l 349 514 q 378 483 378 514 l 378 401 q 349 372 378 372 z "},".":{"ha":283,"x_min":53,"x_max":231,"o":"m 231 200 l 231 29 q 204 0 231 0 l 81 0 q 53 29 53 0 l 53 199 q 81 226 53 226 l 204 226 q 231 200 231 226 z "},"/":{"ha":568,"x_min":43,"x_max":526,"o":"m 172 0 l 65 0 q 43 29 32 0 q 201 446 88 143 q 360 864 315 749 q 397 893 372 893 l 504 893 q 526 864 538 893 l 210 29 q 172 0 199 0 z "},":":{"ha":283,"x_min":53,"x_max":231,"o":"m 231 682 l 231 511 q 204 482 231 482 l 81 482 q 53 514 53 482 l 53 681 q 81 708 53 708 l 204 708 q 231 682 231 708 m 231 200 l 231 29 q 204 0 231 0 l 81 0 q 53 31 53 0 l 53 199 q 81 226 53 226 l 204 226 q 231 200 231 226 z "},";":{"ha":283,"x_min":53,"x_max":231,"o":"m 231 200 l 231 92 q 199 6 231 54 l 103 -135 q 76 -149 93 -149 q 53 -121 53 -149 l 53 199 q 81 226 53 226 l 204 226 q 231 200 231 226 m 231 682 l 231 511 q 204 482 231 482 l 81 482 q 53 514 53 482 l 53 681 q 81 708 53 708 l 204 708 q 231 682 231 708 z "},"<":{"ha":782,"x_min":96,"x_max":686,"o":"m 686 696 l 686 604 q 660 564 686 571 l 242 454 l 660 344 q 686 304 686 339 l 686 214 q 653 193 686 183 l 133 361 q 96 417 96 374 l 96 492 q 133 547 96 535 l 653 715 q 686 696 686 728 z "},"=":{"ha":788,"x_min":99,"x_max":689,"o":"m 131 654 l 657 654 q 682 647 675 654 q 689 621 689 639 l 689 546 q 682 520 689 528 q 657 513 675 513 l 131 513 q 106 520 113 513 q 99 546 99 528 l 99 621 q 106 647 99 639 q 131 654 113 654 m 131 381 l 657 381 q 682 373 675 381 q 689 347 689 365 l 689 272 q 682 247 689 254 q 657 239 675 239 l 131 239 q 106 247 113 239 q 99 272 99 254 l 99 347 q 106 373 99 365 q 131 381 113 381 z "},">":{"ha":788,"x_min":99,"x_max":689,"o":"m 99 604 l 99 696 q 132 715 99 728 l 651 547 q 689 492 689 535 l 689 417 q 651 361 689 374 l 132 193 q 99 214 99 183 l 99 304 q 125 344 99 339 l 543 454 l 125 564 q 99 604 99 571 z "},"?":{"ha":647,"x_min":53,"x_max":593,"o":"m 401 200 l 401 29 q 375 0 401 0 l 251 0 q 224 31 224 0 l 224 199 q 251 226 224 226 l 375 226 q 401 200 401 226 m 400 382 l 400 346 q 371 317 400 317 l 261 317 q 232 346 232 317 l 232 383 q 247 458 232 429 q 299 515 263 486 l 376 579 q 421 656 421 614 l 421 664 q 401 726 421 707 q 335 744 381 744 l 310 744 q 248 726 267 744 q 229 664 229 708 l 229 635 q 200 604 229 604 l 82 604 q 53 635 53 604 l 53 667 q 113 833 53 775 q 282 892 172 892 l 364 892 q 533 833 474 892 q 593 667 593 775 l 593 647 q 531 525 593 579 l 436 449 q 400 382 400 415 z "},"@":{"ha":1036,"x_min":79,"x_max":969,"o":"m 779 218 q 868 311 868 221 l 868 575 q 815 696 868 654 q 682 738 763 738 l 419 738 q 242 673 306 738 q 179 490 179 608 l 179 267 q 248 85 179 150 q 432 19 317 19 l 682 19 q 711 -10 711 19 l 711 -51 q 682 -81 711 -81 l 433 -81 q 178 10 278 -81 q 79 247 79 100 l 79 501 q 172 740 79 643 q 408 838 265 838 l 693 838 q 892 766 814 838 q 969 585 969 694 l 969 299 q 917 167 969 218 q 783 115 864 115 l 703 115 q 638 133 665 115 q 611 186 611 151 l 611 192 l 606 192 q 468 115 572 115 q 330 170 383 115 q 276 331 276 225 l 276 413 q 333 579 276 519 q 482 639 389 639 l 722 639 q 753 610 753 639 l 753 235 q 779 218 753 218 m 611 351 l 611 490 q 594 507 611 507 l 511 507 q 449 488 467 507 q 431 425 431 469 l 431 326 q 449 265 431 283 q 511 246 467 246 l 515 246 q 611 351 611 246 z "},"A":{"ha":774,"x_min":33,"x_max":740,"o":"m 183 0 l 50 0 q 33 29 25 0 l 253 864 q 294 893 263 893 l 479 893 q 521 864 514 893 l 740 29 q 724 0 749 0 l 590 0 q 569 6 575 0 q 561 29 564 13 l 522 182 l 251 182 l 213 29 q 203 6 210 13 q 183 0 197 0 m 385 725 l 285 324 l 490 324 l 390 725 l 385 725 z "},"B":{"ha":771,"x_min":90,"x_max":694,"o":"m 282 147 l 438 147 q 503 166 483 147 q 524 228 524 185 l 524 308 q 503 369 524 351 q 435 388 482 388 l 282 388 q 267 372 267 388 l 267 163 q 282 147 267 147 m 282 531 l 424 531 q 489 549 468 531 q 510 611 510 568 l 510 665 q 490 727 510 708 q 425 746 469 746 l 282 746 q 267 731 267 746 l 267 546 q 282 531 267 531 m 90 29 l 90 864 q 119 893 90 893 l 453 893 q 622 835 563 893 q 682 668 682 776 l 682 611 q 572 458 682 493 q 661 413 628 450 q 694 308 694 376 l 694 225 q 635 58 694 117 q 467 0 575 0 l 119 0 q 90 29 90 0 z "},"C":{"ha":747,"x_min":76,"x_max":686,"o":"m 457 0 l 306 0 q 136 58 196 0 q 76 226 76 117 l 76 667 q 136 835 76 776 q 306 893 196 893 l 457 893 q 626 834 565 893 q 686 667 686 775 l 686 601 q 656 571 686 571 l 539 571 q 510 601 510 571 l 510 658 q 491 722 510 703 q 428 740 472 740 l 333 740 q 272 722 290 740 q 253 658 253 703 l 253 235 q 272 172 253 190 q 333 153 290 153 l 428 153 q 491 172 472 153 q 510 235 510 190 l 510 292 q 539 322 510 322 l 656 322 q 686 292 686 322 l 686 226 q 626 59 686 118 q 457 0 565 0 z "},"D":{"ha":768,"x_min":90,"x_max":692,"o":"m 282 153 l 433 153 q 497 172 478 153 q 515 235 515 190 l 515 658 q 497 722 515 703 q 433 740 478 740 l 282 740 q 267 725 267 740 l 267 168 q 282 153 267 153 m 90 29 l 90 864 q 119 893 90 893 l 463 893 q 631 834 571 893 q 692 667 692 775 l 692 226 q 631 59 692 118 q 463 0 571 0 l 119 0 q 90 29 90 0 z "},"E":{"ha":665,"x_min":90,"x_max":601,"o":"m 574 0 l 119 0 q 90 29 90 0 l 90 864 q 119 893 90 893 l 574 893 q 601 864 601 893 l 601 769 q 574 740 601 740 l 283 740 q 267 725 267 740 l 267 544 q 283 529 267 529 l 521 529 q 550 500 550 529 l 550 406 q 521 376 550 376 l 283 376 q 267 361 267 376 l 267 168 q 283 153 267 153 l 574 153 q 601 124 601 153 l 601 29 q 574 0 601 0 z "},"F":{"ha":625,"x_min":90,"x_max":590,"o":"m 238 0 l 119 0 q 90 29 90 0 l 90 864 q 119 893 90 893 l 563 893 q 590 864 590 893 l 590 769 q 563 740 590 740 l 283 740 q 267 725 267 740 l 267 510 q 283 493 267 493 l 521 493 q 550 464 550 493 l 550 371 q 521 340 550 340 l 283 340 q 267 325 267 340 l 267 29 q 238 0 267 0 z "},"G":{"ha":757,"x_min":76,"x_max":681,"o":"m 453 0 l 306 0 q 136 58 196 0 q 76 226 76 117 l 76 667 q 136 835 76 776 q 306 893 196 893 l 453 893 q 621 834 561 893 q 681 667 681 775 l 681 625 q 651 594 681 594 l 533 594 q 504 625 504 594 l 504 658 q 486 722 504 703 q 424 740 468 740 l 333 740 q 272 722 290 740 q 253 658 253 703 l 253 235 q 272 172 253 190 q 333 153 290 153 l 424 153 q 486 172 468 153 q 504 235 504 190 l 504 322 q 489 338 504 338 l 406 338 q 376 367 376 338 l 376 461 q 406 490 376 490 l 649 490 q 681 458 681 490 l 681 226 q 621 59 681 118 q 453 0 561 0 z "},"H":{"ha":800,"x_min":90,"x_max":710,"o":"m 238 0 l 119 0 q 90 29 90 0 l 90 864 q 119 893 90 893 l 238 893 q 267 864 267 893 l 267 538 q 283 522 267 522 l 518 522 q 533 538 533 522 l 533 864 q 563 893 533 893 l 681 893 q 710 864 710 893 l 710 29 q 681 0 710 0 l 563 0 q 533 29 533 0 l 533 354 q 518 369 533 369 l 283 369 q 267 354 267 369 l 267 29 q 238 0 267 0 z "},"I":{"ha":371,"x_min":97,"x_max":274,"o":"m 274 864 l 274 29 q 244 0 274 0 l 126 0 q 97 29 97 0 l 97 864 q 126 893 97 893 l 244 893 q 274 864 274 893 z "},"J":{"ha":724,"x_min":44,"x_max":640,"o":"m 494 893 l 611 893 q 640 865 640 893 l 640 226 q 581 59 640 118 q 413 0 521 0 l 274 0 q 104 58 164 0 q 44 226 44 117 l 44 357 q 74 386 44 386 l 192 386 q 221 357 221 386 l 221 235 q 240 172 221 190 q 301 153 258 153 l 383 153 q 446 172 428 153 q 464 235 464 190 l 464 864 q 494 893 464 893 z "},"K":{"ha":775,"x_min":90,"x_max":760,"o":"m 238 0 l 119 0 q 90 29 90 0 l 90 864 q 119 893 90 893 l 238 893 q 267 864 267 893 l 267 468 l 269 468 q 313 554 281 501 l 524 864 q 578 893 542 893 l 714 893 q 733 884 729 893 q 725 861 736 875 l 461 496 l 756 35 q 759 9 765 18 q 733 0 753 0 l 632 0 q 567 29 583 0 l 354 369 l 267 267 l 267 29 q 238 0 267 0 z "},"L":{"ha":624,"x_min":90,"x_max":604,"o":"m 576 0 l 119 0 q 90 29 90 0 l 90 864 q 119 893 90 893 l 238 893 q 267 864 267 893 l 267 169 q 283 154 267 154 l 576 154 q 604 124 604 154 l 604 29 q 576 0 604 0 z "},"M":{"ha":1008,"x_min":90,"x_max":918,"o":"m 683 893 l 889 893 q 918 864 918 893 l 918 29 q 889 0 918 0 l 775 0 q 746 29 746 0 l 746 688 l 740 688 l 599 222 q 564 194 590 194 l 447 194 q 413 222 421 194 l 268 689 l 263 689 l 263 29 q 257 6 263 13 q 233 0 251 0 l 119 0 q 90 29 90 0 l 90 864 q 119 893 90 893 l 326 893 q 353 874 346 893 l 500 383 l 508 383 l 657 874 q 683 893 661 893 z "},"N":{"ha":813,"x_min":90,"x_max":722,"o":"m 235 0 l 119 0 q 90 29 90 0 l 90 864 q 119 893 90 893 l 224 893 q 263 874 253 893 l 543 347 l 549 347 l 549 864 q 578 893 549 893 l 693 893 q 722 864 722 893 l 722 29 q 693 0 722 0 l 592 0 q 547 28 561 0 l 269 544 l 264 544 l 264 29 q 235 0 264 0 z "},"O":{"ha":767,"x_min":76,"x_max":690,"o":"m 333 153 l 432 153 q 495 172 476 153 q 514 235 514 190 l 514 658 q 495 722 514 703 q 432 740 476 740 l 333 740 q 271 722 289 740 q 253 658 253 703 l 253 235 q 271 172 253 190 q 333 153 289 153 m 461 0 l 306 0 q 136 58 196 0 q 76 226 76 117 l 76 667 q 136 835 76 776 q 306 893 196 893 l 461 893 q 631 835 571 893 q 690 667 690 776 l 690 226 q 631 58 690 117 q 461 0 571 0 z "},"P":{"ha":736,"x_min":90,"x_max":686,"o":"m 238 0 l 119 0 q 90 29 90 0 l 90 864 q 119 893 90 893 l 458 893 q 626 834 567 893 q 686 667 686 775 l 686 533 q 626 366 686 425 q 458 307 567 307 l 283 307 q 267 292 267 307 l 267 29 q 238 0 267 0 m 282 461 l 429 461 q 492 480 474 461 q 510 542 510 499 l 510 658 q 492 722 510 703 q 429 740 474 740 l 282 740 q 267 725 267 740 l 267 476 q 282 461 267 461 z "},"Q":{"ha":790,"x_min":88,"x_max":701,"o":"m 346 153 l 444 153 q 508 172 489 153 q 526 235 526 190 l 526 658 q 508 722 526 703 q 444 740 489 740 l 346 740 q 283 722 301 740 q 265 658 265 703 l 265 235 q 283 172 265 190 q 346 153 301 153 m 600 -185 l 499 -185 q 444 -156 461 -185 l 354 0 l 317 0 q 147 58 207 0 q 88 226 88 117 l 88 667 q 147 835 88 776 q 317 893 207 893 l 472 893 q 642 835 582 893 q 701 667 701 776 l 701 226 q 658 78 701 135 q 533 6 614 21 l 622 -149 q 622 -175 629 -165 q 600 -185 615 -185 z "},"R":{"ha":760,"x_min":90,"x_max":706,"o":"m 238 0 l 119 0 q 90 29 90 0 l 90 864 q 119 893 90 893 l 450 893 q 619 833 558 893 q 681 665 681 774 l 681 557 q 557 349 681 400 l 557 343 l 706 33 q 682 0 718 0 l 569 0 q 533 6 544 0 q 515 29 522 11 l 376 329 l 283 329 q 267 314 267 329 l 267 29 q 238 0 267 0 m 282 471 l 418 471 q 483 490 463 471 q 504 550 504 508 l 504 658 q 483 721 504 701 q 418 740 463 740 l 282 740 q 267 725 267 740 l 267 486 q 282 471 267 471 z "},"S":{"ha":749,"x_min":67,"x_max":681,"o":"m 68 228 l 68 256 q 97 285 68 285 l 215 285 q 244 256 244 285 l 244 244 q 265 172 244 192 q 342 153 286 153 l 407 153 q 483 174 461 153 q 504 251 504 194 l 504 268 q 472 330 504 308 q 390 356 439 351 q 285 372 342 360 q 181 402 229 383 q 99 476 132 421 q 67 617 67 531 l 67 665 q 128 833 67 774 q 297 893 189 893 l 436 893 q 607 833 546 893 q 668 665 668 774 l 668 639 q 639 610 668 610 l 521 610 q 492 639 492 610 l 492 647 q 471 721 492 701 q 394 740 450 740 l 340 740 q 263 719 283 740 q 243 635 243 697 l 243 608 q 357 533 243 543 q 567 486 475 524 q 648 412 615 465 q 681 275 681 358 l 681 228 q 619 60 681 119 q 450 0 558 0 l 299 0 q 129 60 190 0 q 68 228 68 119 z "},"T":{"ha":615,"x_min":17,"x_max":600,"o":"m 367 0 l 250 0 q 219 29 219 0 l 219 725 q 204 740 219 740 l 46 740 q 17 769 17 740 l 17 864 q 46 893 17 893 l 571 893 q 600 864 600 893 l 600 769 q 571 740 600 740 l 413 740 q 396 725 396 740 l 396 29 q 367 0 396 0 z "},"U":{"ha":778,"x_min":83,"x_max":694,"o":"m 547 893 l 664 893 q 694 865 694 893 l 694 226 q 634 59 694 118 q 465 0 574 0 l 313 0 q 143 58 203 0 q 83 226 83 117 l 83 864 q 113 893 83 893 l 231 893 q 260 864 260 893 l 260 235 q 278 172 260 190 q 340 153 297 153 l 436 153 q 499 172 481 153 q 518 235 518 190 l 518 864 q 547 893 518 893 z "},"V":{"ha":724,"x_min":22,"x_max":703,"o":"m 454 0 l 272 0 q 238 29 243 0 l 22 861 q 50 893 13 893 l 181 893 q 214 864 208 893 l 360 181 l 365 181 l 511 864 q 544 893 517 893 l 675 893 q 703 861 710 893 l 488 29 q 454 0 481 0 z "},"W":{"ha":1121,"x_min":21,"x_max":1100,"o":"m 399 0 l 204 0 q 169 29 174 0 l 21 864 q 50 893 17 893 l 194 893 q 228 864 226 893 l 308 179 l 318 179 l 451 868 q 481 893 456 893 l 636 893 q 667 869 663 893 l 803 179 l 814 179 l 893 863 q 926 893 894 893 l 1071 893 q 1100 863 1104 893 l 950 29 q 918 0 946 0 l 722 0 q 689 29 693 0 l 564 681 l 558 681 l 432 29 q 399 0 426 0 z "},"X":{"ha":750,"x_min":35,"x_max":715,"o":"m 192 0 l 54 0 q 35 9 40 0 q 35 31 29 18 l 250 457 l 42 863 q 42 883 36 874 q 61 893 47 893 l 194 893 q 240 864 229 893 l 372 565 l 378 565 l 508 864 q 553 893 522 893 l 689 893 q 709 883 703 893 q 710 861 715 872 l 499 457 l 714 32 q 715 9 721 18 q 694 0 710 0 l 556 0 q 515 28 526 0 l 378 328 l 372 328 l 233 28 q 192 0 221 0 z "},"Y":{"ha":718,"x_min":17,"x_max":703,"o":"m 418 0 l 300 0 q 271 29 271 0 l 271 326 l 17 863 q 17 884 11 875 q 36 893 24 893 l 183 893 q 217 864 206 893 l 356 526 l 365 526 l 501 864 q 535 893 511 893 l 682 893 q 702 885 696 893 q 701 863 708 876 l 447 326 l 447 29 q 418 0 447 0 z "},"Z":{"ha":724,"x_min":67,"x_max":656,"o":"m 67 29 l 67 113 q 85 181 67 158 l 453 724 l 453 729 l 121 729 q 92 758 92 729 l 92 864 q 121 893 92 893 l 614 893 q 642 864 642 893 l 642 744 q 621 672 642 703 l 275 169 l 275 164 l 628 164 q 656 138 656 164 l 656 32 q 628 0 656 0 l 96 0 q 67 29 67 0 z "},"[":{"ha":449,"x_min":107,"x_max":363,"o":"m 335 -136 l 135 -136 q 107 -106 107 -136 l 107 864 q 135 893 107 893 l 335 893 q 363 864 363 893 l 363 804 q 335 775 363 775 l 265 775 q 249 758 249 775 l 249 -1 q 265 -18 249 -18 l 335 -18 q 363 -47 363 -18 l 363 -107 q 335 -136 363 -136 z "},"\\":{"ha":568,"x_min":43,"x_max":526,"o":"m 64 893 l 172 893 q 210 864 197 893 q 368 446 254 749 q 526 29 482 143 q 504 0 538 0 l 397 0 q 360 29 371 0 l 43 864 q 64 893 32 893 z "},"]":{"ha":449,"x_min":83,"x_max":339,"o":"m 83 -107 l 83 -47 q 113 -18 83 -18 l 182 -18 q 197 -1 197 -18 l 197 758 q 182 775 197 775 l 113 775 q 83 804 83 775 l 83 864 q 113 893 83 893 l 311 893 q 339 864 339 893 l 339 -106 q 311 -136 339 -136 l 113 -136 q 83 -107 83 -136 z "},"^":{"ha":710,"x_min":64,"x_max":644,"o":"m 192 503 l 85 503 q 64 532 49 503 l 231 850 q 256 884 243 875 q 292 893 268 893 l 417 893 q 453 884 440 893 q 478 850 465 875 l 644 532 q 624 503 660 503 l 517 503 q 479 531 493 503 l 354 779 l 229 531 q 192 503 215 503 z "},"_":{"ha":517,"x_min":0,"x_max":517,"o":"m 488 -156 l 29 -156 q 0 -125 0 -156 l 0 -89 q 29 -60 0 -60 l 488 -60 q 517 -89 517 -60 l 517 -125 q 488 -156 517 -156 z "},"`":{"ha":414,"x_min":75,"x_max":335,"o":"m 321 797 l 231 797 q 193 815 208 797 l 81 949 q 75 968 71 960 q 94 976 79 976 l 232 976 q 274 950 258 976 l 335 826 q 321 797 350 797 z "},"a":{"ha":719,"x_min":63,"x_max":643,"o":"m 325 0 l 292 0 q 122 58 182 0 q 63 226 63 117 l 63 482 q 122 650 63 592 q 292 708 182 708 l 613 708 q 643 679 643 708 l 643 29 q 613 0 643 0 l 496 0 q 467 29 467 0 l 467 75 l 461 75 q 407 19 446 38 q 325 0 368 0 m 467 258 l 467 540 q 450 556 467 556 l 319 556 q 257 537 275 556 q 239 474 239 518 l 239 235 q 257 172 239 190 q 319 153 275 153 l 371 153 q 467 258 467 153 z "},"b":{"ha":731,"x_min":76,"x_max":668,"o":"m 268 153 l 410 153 q 473 172 454 153 q 492 235 492 190 l 492 476 q 473 540 492 521 q 410 558 454 558 l 349 558 q 253 453 253 558 l 253 168 q 268 153 253 153 m 76 29 l 76 947 q 106 976 76 976 l 224 976 q 253 947 253 976 l 253 635 l 258 635 q 313 692 274 672 q 394 711 351 711 l 439 711 q 608 653 549 711 q 668 485 668 594 l 668 226 q 608 58 668 117 q 439 0 549 0 l 106 0 q 76 29 76 0 z "},"c":{"ha":571,"x_min":63,"x_max":528,"o":"m 528 124 l 528 28 q 522 6 528 13 q 499 0 515 0 l 292 0 q 122 58 182 0 q 63 226 63 117 l 63 482 q 122 650 63 592 q 292 708 182 708 l 499 708 q 528 679 528 708 l 528 583 q 522 562 528 568 q 499 556 515 556 l 319 556 q 258 537 276 556 q 239 474 239 518 l 239 235 q 258 172 239 190 q 319 153 276 153 l 499 153 q 528 124 528 153 z "},"d":{"ha":731,"x_min":63,"x_max":654,"o":"m 336 0 l 279 0 q 117 58 172 0 q 63 226 63 117 l 63 482 q 117 650 63 592 q 279 708 172 708 l 336 708 q 418 690 379 708 q 472 633 457 671 l 478 633 l 478 947 q 507 976 478 976 l 625 976 q 654 947 654 976 l 654 29 q 625 0 654 0 l 507 0 q 478 29 478 0 l 478 75 l 472 75 q 418 19 457 38 q 336 0 379 0 m 478 258 l 478 450 q 382 556 478 556 l 319 556 q 257 537 275 556 q 239 474 239 518 l 239 235 q 257 172 239 190 q 319 153 275 153 l 382 153 q 478 258 478 153 z "},"e":{"ha":686,"x_min":63,"x_max":631,"o":"m 599 0 l 292 0 q 122 58 182 0 q 63 226 63 117 l 63 482 q 122 650 63 592 q 292 708 182 708 l 401 708 q 571 650 511 708 q 631 482 631 592 l 631 306 q 601 276 631 276 l 253 276 q 236 261 236 276 l 236 231 q 255 169 236 188 q 318 150 274 150 l 599 150 q 628 119 628 150 l 628 28 q 622 6 628 13 q 599 0 615 0 m 253 394 l 442 394 q 457 410 457 394 l 457 476 q 439 539 457 521 q 376 557 421 557 l 318 557 q 256 539 274 557 q 238 476 238 521 l 238 410 q 253 394 238 394 z "},"f":{"ha":492,"x_min":32,"x_max":474,"o":"m 333 708 l 444 708 q 467 702 461 708 q 474 681 474 696 l 474 585 q 444 556 474 556 l 333 556 q 318 540 318 556 l 318 29 q 288 0 318 0 l 171 0 q 142 29 142 0 l 142 540 q 125 556 142 556 l 61 556 q 32 585 32 556 l 32 681 q 38 703 32 697 q 61 708 44 708 l 125 708 q 142 724 142 708 l 142 750 q 199 918 142 860 q 367 976 257 976 l 446 976 q 468 970 463 976 q 474 949 474 964 l 474 853 q 446 824 474 824 l 394 824 q 334 805 350 824 q 318 742 318 786 l 318 724 q 333 708 318 708 z "},"g":{"ha":721,"x_min":64,"x_max":644,"o":"m 326 32 l 281 32 q 119 90 174 32 q 64 258 64 149 l 64 482 q 124 650 64 592 q 293 708 183 708 l 614 708 q 644 679 644 708 l 644 -6 q 584 -172 644 -114 q 415 -231 524 -231 l 149 -231 q 126 -224 132 -231 q 119 -203 119 -218 l 119 -107 q 149 -78 119 -78 l 386 -78 q 449 -59 431 -78 q 468 3 468 -40 l 468 108 l 463 108 q 408 51 447 71 q 326 32 369 32 m 468 290 l 468 540 q 451 556 468 556 l 321 556 q 258 537 276 556 q 240 474 240 518 l 240 267 q 258 204 240 222 q 321 186 276 186 l 372 186 q 468 290 468 186 z "},"h":{"ha":726,"x_min":76,"x_max":657,"o":"m 224 0 l 106 0 q 76 29 76 0 l 76 947 q 106 976 76 976 l 224 976 q 253 947 253 976 l 253 633 l 258 633 q 394 708 289 708 l 439 708 q 657 482 657 708 l 657 29 q 626 0 657 0 l 510 0 q 481 29 481 0 l 481 474 q 462 537 481 518 q 399 556 443 556 l 349 556 q 253 450 253 556 l 253 29 q 224 0 253 0 z "},"i":{"ha":343,"x_min":83,"x_max":260,"o":"m 83 828 l 83 949 q 111 976 83 976 l 232 976 q 260 950 260 976 l 260 828 q 232 800 260 800 l 111 800 q 83 828 83 800 m 83 29 l 83 679 q 111 708 83 708 l 231 708 q 260 679 260 708 l 260 29 q 253 6 260 11 q 232 0 247 0 l 113 0 q 83 29 83 0 z "},"j":{"ha":343,"x_min":-93,"x_max":260,"o":"m 83 828 l 83 949 q 111 976 83 976 l 232 976 q 260 950 260 976 l 260 828 q 232 800 260 800 l 111 800 q 83 828 83 800 m 29 -231 l -64 -231 q -93 -201 -93 -231 l -93 -107 q -64 -78 -93 -78 l -25 -78 q 60 -56 38 -78 q 83 29 83 -33 l 83 679 q 113 708 83 708 l 231 708 q 260 679 260 708 l 260 -3 q 199 -171 260 -111 q 29 -231 138 -231 z "},"k":{"ha":656,"x_min":76,"x_max":644,"o":"m 482 708 l 617 708 q 639 699 633 708 q 635 674 644 689 l 450 369 l 450 364 l 643 35 q 644 10 651 21 q 619 0 638 0 l 500 0 q 466 6 476 0 q 444 29 456 11 l 268 339 q 268 385 256 361 l 435 681 q 482 708 450 708 m 224 0 l 106 0 q 76 29 76 0 l 76 947 q 106 976 76 976 l 224 976 q 253 947 253 976 l 253 29 q 224 0 253 0 z "},"l":{"ha":343,"x_min":83,"x_max":260,"o":"m 231 0 l 113 0 q 83 29 83 0 l 83 947 q 113 976 83 976 l 231 976 q 260 947 260 976 l 260 29 q 231 0 260 0 z "},"m":{"ha":1108,"x_min":76,"x_max":1038,"o":"m 224 0 l 106 0 q 76 29 76 0 l 76 679 q 106 708 76 708 l 224 708 q 253 679 253 708 l 253 633 l 258 633 q 315 688 275 667 q 406 708 354 708 l 444 708 q 618 619 565 708 q 781 708 665 708 l 821 708 q 983 650 928 708 q 1038 482 1038 592 l 1038 29 q 1008 0 1038 0 l 890 0 q 861 29 861 0 l 861 474 q 843 537 861 518 q 781 556 825 556 l 746 556 q 650 449 650 556 l 650 29 q 619 0 650 0 l 503 0 q 474 29 474 0 l 474 474 q 455 537 474 518 q 392 556 436 556 l 349 556 q 253 450 253 556 l 253 29 q 224 0 253 0 z "},"n":{"ha":726,"x_min":76,"x_max":657,"o":"m 224 0 l 106 0 q 76 29 76 0 l 76 679 q 106 708 76 708 l 224 708 q 253 679 253 708 l 253 633 l 258 633 q 394 708 289 708 l 439 708 q 657 482 657 708 l 657 29 q 626 0 657 0 l 510 0 q 481 29 481 0 l 481 474 q 462 537 481 518 q 399 556 443 556 l 349 556 q 253 450 253 556 l 253 29 q 224 0 253 0 z "},"o":{"ha":707,"x_min":63,"x_max":644,"o":"m 415 0 l 292 0 q 122 58 182 0 q 63 226 63 117 l 63 482 q 122 650 63 592 q 292 708 182 708 l 415 708 q 584 649 524 708 q 644 482 644 590 l 644 226 q 584 59 644 118 q 415 0 524 0 m 318 151 l 389 151 q 452 169 433 151 q 471 232 471 188 l 471 476 q 452 539 471 521 q 389 557 433 557 l 318 557 q 256 539 274 557 q 238 476 238 521 l 238 232 q 256 169 238 188 q 318 151 274 151 z "},"p":{"ha":731,"x_min":76,"x_max":668,"o":"m 224 -189 l 106 -189 q 76 -161 76 -189 l 76 679 q 106 708 76 708 l 224 708 q 253 679 253 708 l 253 633 l 258 633 q 313 690 274 671 q 394 708 351 708 l 451 708 q 613 650 558 708 q 668 482 668 592 l 668 226 q 613 58 668 117 q 451 0 558 0 l 394 0 q 313 19 351 0 q 258 75 274 38 l 253 75 l 253 -161 q 224 -189 253 -189 m 349 153 l 410 153 q 473 172 454 153 q 492 235 492 190 l 492 474 q 473 537 492 518 q 410 556 454 556 l 349 556 q 253 450 253 556 l 253 258 q 349 153 253 153 z "},"q":{"ha":719,"x_min":63,"x_max":643,"o":"m 467 260 l 467 540 q 450 556 467 556 l 319 556 q 257 537 275 556 q 239 474 239 518 l 239 235 q 257 172 239 190 q 319 153 275 153 l 369 153 q 467 260 467 153 m 324 0 l 292 0 q 122 58 182 0 q 63 226 63 117 l 63 482 q 122 650 63 592 q 292 708 182 708 l 613 708 q 643 679 643 708 l 643 -161 q 613 -189 643 -189 l 496 -189 q 467 -161 467 -189 l 467 76 l 461 76 q 324 0 428 0 z "},"r":{"ha":485,"x_min":76,"x_max":472,"o":"m 224 0 l 106 0 q 76 29 76 0 l 76 679 q 106 708 76 708 l 224 708 q 253 679 253 708 l 253 632 l 258 632 q 313 689 274 669 q 394 708 351 708 l 444 708 q 472 679 472 708 l 472 583 q 466 560 472 567 q 444 556 460 554 l 349 556 q 253 447 253 556 l 253 29 q 224 0 253 0 z "},"s":{"ha":608,"x_min":49,"x_max":563,"o":"m 344 0 l 81 0 q 53 29 53 0 l 53 118 q 58 140 53 133 q 81 146 64 146 l 313 146 q 381 188 381 146 l 381 194 q 324 258 381 228 l 186 335 q 82 413 115 371 q 49 519 49 454 q 100 663 49 617 q 261 708 151 708 l 493 708 q 521 679 521 708 l 521 589 q 515 567 521 574 q 493 561 510 561 l 300 561 q 232 526 232 561 l 232 519 q 292 457 232 489 l 432 374 q 533 294 504 335 q 563 186 563 253 q 344 0 563 0 z "},"t":{"ha":490,"x_min":7,"x_max":451,"o":"m 92 556 l 36 556 q 13 561 19 556 q 7 583 7 567 l 7 679 q 36 708 7 708 l 92 708 q 107 724 107 708 l 107 856 q 138 885 107 885 l 254 885 q 283 856 283 885 l 283 724 q 300 708 283 708 l 408 708 q 438 679 438 708 l 438 583 q 431 562 438 568 q 408 556 425 556 l 300 556 q 283 540 283 556 l 283 233 q 303 172 283 190 q 367 153 322 153 l 422 153 q 451 124 451 153 l 451 28 q 445 6 451 13 q 422 0 439 0 l 338 0 q 167 58 228 0 q 107 225 107 117 l 107 540 q 92 556 107 556 z "},"u":{"ha":726,"x_min":69,"x_max":650,"o":"m 332 0 l 286 0 q 124 58 179 0 q 69 226 69 117 l 69 679 q 99 708 69 708 l 217 708 q 246 679 246 708 l 246 235 q 265 172 246 190 q 326 153 283 153 l 378 153 q 474 258 474 153 l 474 679 q 503 708 474 708 l 619 708 q 650 679 650 708 l 650 29 q 619 0 650 0 l 503 0 q 474 29 474 0 l 474 75 l 468 75 q 414 19 453 38 q 332 0 375 0 z "},"v":{"ha":650,"x_min":25,"x_max":625,"o":"m 46 708 l 168 708 q 201 679 196 708 l 321 157 l 331 157 l 447 679 q 482 708 453 708 l 604 708 q 625 679 633 708 l 450 31 q 413 0 444 0 l 236 0 q 199 31 207 0 l 25 679 q 46 708 17 708 z "},"w":{"ha":967,"x_min":29,"x_max":936,"o":"m 360 0 l 201 0 q 168 29 175 0 l 29 679 q 50 708 24 708 l 183 708 q 217 679 214 708 l 279 204 l 290 204 l 389 679 q 421 708 393 708 l 543 708 q 578 679 572 708 l 674 204 l 685 204 l 749 679 q 782 708 753 708 l 915 708 q 936 679 943 708 l 797 29 q 764 0 792 0 l 606 0 q 572 29 578 0 l 488 499 l 476 499 l 393 29 q 360 0 389 0 z "},"x":{"ha":642,"x_min":31,"x_max":617,"o":"m 190 0 l 50 0 q 31 29 14 0 l 206 361 l 31 679 q 47 708 17 708 l 189 708 q 232 679 222 708 l 319 468 l 325 468 l 401 679 q 444 708 411 708 l 583 708 q 601 679 619 708 l 435 361 l 614 29 q 616 8 621 17 q 597 0 611 0 l 454 0 q 413 29 425 0 l 325 242 l 319 242 l 232 29 q 190 0 222 0 z "},"y":{"ha":654,"x_min":28,"x_max":629,"o":"m 192 -235 l 103 -235 q 75 -204 75 -235 l 75 -111 q 103 -81 75 -81 l 132 -81 q 251 -56 219 -81 q 299 38 282 -32 l 225 38 q 190 67 199 38 l 28 679 q 49 708 19 708 l 172 708 q 207 679 200 708 l 326 167 l 332 167 l 450 679 q 485 708 456 708 l 601 708 q 629 678 636 708 l 460 0 q 365 -175 429 -115 q 192 -235 301 -235 z "},"z":{"ha":624,"x_min":43,"x_max":582,"o":"m 43 29 l 43 75 q 69 156 43 122 l 364 551 l 364 557 l 85 557 q 56 588 56 557 l 56 679 q 85 708 56 708 l 538 708 q 567 679 567 708 l 567 596 q 544 524 567 551 l 272 157 l 272 151 l 553 151 q 582 121 582 151 l 582 29 q 553 0 582 0 l 72 0 q 43 29 43 0 z "},"{":{"ha":438,"x_min":32,"x_max":365,"o":"m 326 893 l 338 893 q 365 864 365 893 l 365 799 q 338 769 365 769 l 333 769 q 274 751 290 769 q 258 688 258 732 l 258 513 q 239 423 258 456 q 172 375 219 390 q 258 239 258 351 l 258 64 q 274 1 258 19 q 333 -18 290 -18 l 338 -18 q 365 -47 365 -18 l 365 -112 q 338 -142 365 -142 l 326 -142 q 119 85 119 -142 l 119 225 q 61 299 119 299 q 32 329 32 299 l 32 422 q 61 453 32 453 q 119 526 119 453 l 119 667 q 326 893 119 893 z "},"|":{"ha":321,"x_min":101,"x_max":221,"o":"m 221 864 l 221 29 q 190 0 221 0 l 131 0 q 101 29 101 0 l 101 864 q 131 893 101 893 l 190 893 q 221 864 221 893 z "},"}":{"ha":438,"x_min":32,"x_max":365,"o":"m 279 667 l 279 526 q 293 469 279 486 q 338 453 307 453 q 365 422 365 453 l 365 329 q 338 299 365 299 q 293 282 307 299 q 279 225 279 265 l 279 85 q 71 -142 279 -142 l 61 -142 q 32 -112 32 -142 l 32 -47 q 61 -18 32 -18 l 65 -18 q 123 1 107 -18 q 139 64 139 19 l 139 239 q 225 375 139 351 q 139 513 139 403 l 139 688 q 123 751 139 732 q 65 769 107 769 l 61 769 q 32 799 32 769 l 32 864 q 61 893 32 893 l 71 893 q 279 667 279 893 z "},"~":{"ha":785,"x_min":97,"x_max":688,"o":"m 542 358 q 511 358 542 358 q 386 380 481 358 q 250 401 292 401 q 166 381 208 401 q 117 360 124 360 q 97 379 97 360 l 97 460 q 106 492 97 481 q 151 518 114 503 q 242 533 188 533 q 388 511 296 533 q 528 489 481 489 q 619 510 576 489 q 668 531 661 531 q 688 513 688 531 l 688 431 q 649 379 688 394 q 542 358 603 358 z "}," ":{"ha":306,"x_min":0,"x_max":0,"o":""},"¡":{"ha":331,"x_min":69,"x_max":260,"o":"m 228 667 l 106 667 q 78 694 78 667 l 78 863 q 106 893 78 893 l 228 893 q 256 864 256 893 l 256 693 q 228 667 256 667 m 125 576 l 204 576 q 236 547 231 576 q 239 525 236 546 q 244 471 242 504 q 250 400 247 438 q 260 244 260 300 l 260 29 q 231 0 260 0 l 99 0 q 69 29 69 0 l 69 244 q 81 458 69 369 q 93 547 93 546 q 125 576 99 576 z "},"¢":{"ha":597,"x_min":63,"x_max":543,"o":"m 399 -131 l 311 -131 q 283 -103 283 -131 l 283 0 l 274 0 q 118 60 174 0 q 63 226 63 121 l 63 482 q 118 648 63 588 q 274 708 174 708 l 283 708 l 283 815 q 311 843 283 843 l 399 843 q 425 817 425 843 l 425 708 l 490 708 q 526 701 508 708 q 543 679 543 693 l 543 583 q 513 556 543 556 l 319 556 q 258 537 276 556 q 239 474 239 518 l 239 235 q 258 172 239 190 q 319 153 276 153 l 513 153 q 543 125 543 153 l 543 29 q 513 0 543 0 l 425 0 l 425 -104 q 399 -131 425 -131 z "},"£":{"ha":774,"x_min":32,"x_max":686,"o":"m 236 143 l 658 143 q 686 113 686 143 l 686 29 q 658 0 686 0 l 61 0 q 32 29 32 0 l 32 113 q 61 143 32 143 l 71 143 q 126 232 126 143 l 126 346 l 61 346 q 32 376 32 346 l 32 460 q 61 489 32 489 l 126 489 l 126 668 q 186 835 126 776 q 356 893 246 893 l 446 893 q 615 835 556 893 q 675 668 675 776 l 675 633 q 644 604 675 604 l 528 604 q 499 633 499 604 l 499 665 q 480 728 499 710 q 417 746 461 746 l 385 746 q 319 727 339 746 q 299 665 299 708 l 299 489 l 451 489 q 481 460 481 489 l 481 376 q 451 346 481 346 l 299 346 l 299 256 q 281 179 299 210 q 236 149 263 149 l 236 143 z "},"¥":{"ha":754,"x_min":33,"x_max":721,"o":"m 436 0 l 318 0 q 289 29 289 0 l 289 213 l 96 213 q 64 244 64 213 l 64 297 q 96 331 64 331 l 282 331 l 282 340 l 244 421 l 96 421 q 64 453 64 421 l 64 506 q 96 539 64 539 l 189 539 l 33 864 q 51 893 21 893 l 201 893 q 219 888 214 893 q 374 508 224 882 l 379 508 q 536 888 532 883 q 554 893 540 893 l 703 893 q 721 864 733 893 l 567 539 l 657 539 q 682 531 675 539 q 689 506 689 524 l 689 453 q 657 421 689 421 l 510 421 l 472 340 l 472 331 l 657 331 q 682 323 675 331 q 689 297 689 315 l 689 244 q 657 213 689 213 l 465 213 l 465 29 q 436 0 465 0 z "},"¦":{"ha":319,"x_min":100,"x_max":219,"o":"m 219 864 l 219 544 q 190 515 219 515 l 129 515 q 100 544 100 515 l 100 864 q 129 893 100 893 l 190 893 q 219 864 219 893 m 219 349 l 219 29 q 190 0 219 0 l 129 0 q 100 29 100 0 l 100 349 q 129 378 100 378 l 190 378 q 219 349 219 378 z "},"§":{"ha":681,"x_min":83,"x_max":597,"o":"m 433 418 q 372 485 433 467 q 246 522 296 504 l 246 478 q 310 407 246 425 q 433 372 407 383 l 433 418 m 368 0 l 136 0 q 107 29 107 0 l 107 125 q 136 153 107 153 l 354 153 q 419 199 419 153 q 401 233 419 221 q 335 257 383 246 l 215 283 q 83 465 83 313 l 83 706 q 141 844 83 794 q 310 893 199 893 l 538 893 q 565 864 565 893 l 565 768 q 559 747 565 753 q 538 740 553 740 l 315 740 q 260 697 260 740 q 278 663 260 676 q 346 638 296 649 l 465 611 q 597 431 597 579 l 597 190 q 539 50 597 100 q 368 0 481 0 z "},"¨":{"ha":578,"x_min":74,"x_max":503,"o":"m 74 826 l 74 949 q 101 976 74 976 l 211 976 q 239 950 239 976 l 239 826 q 211 797 239 797 l 101 797 q 74 826 74 797 m 338 826 l 338 949 q 365 976 338 976 l 475 976 q 503 950 503 976 l 503 826 q 475 797 503 797 l 365 797 q 338 826 338 797 z "},"©":{"ha":976,"x_min":88,"x_max":890,"o":"m 681 560 l 681 521 q 663 503 681 503 l 589 503 q 569 521 569 503 l 569 540 q 558 599 569 588 q 496 610 546 610 l 489 610 q 428 599 440 610 q 417 540 417 588 l 417 356 q 428 296 417 307 q 489 285 440 285 l 496 285 q 558 296 546 285 q 569 356 569 307 l 569 375 q 589 394 569 394 l 663 394 q 681 375 681 394 l 681 335 q 641 226 681 264 q 529 188 601 188 l 457 188 q 344 226 385 188 q 304 335 304 264 l 304 560 q 344 669 304 632 q 457 707 385 707 l 529 707 q 641 669 601 707 q 681 560 681 632 m 297 103 l 679 103 q 754 124 731 103 q 778 194 778 144 l 778 699 q 754 769 778 749 q 679 790 731 790 l 297 790 q 222 769 246 790 q 199 699 199 749 l 199 194 q 222 124 199 144 q 297 103 246 103 m 263 893 l 715 893 q 844 847 797 893 q 890 721 890 801 l 890 172 q 844 46 890 92 q 715 0 797 0 l 263 0 q 134 46 181 0 q 88 172 88 92 l 88 721 q 134 847 88 801 q 263 893 181 893 z "},"«":{"ha":631,"x_min":63,"x_max":568,"o":"m 568 208 l 568 132 q 560 113 568 117 q 539 118 551 108 l 332 278 q 310 299 315 290 q 304 329 304 308 l 304 386 q 332 435 304 415 l 539 594 q 560 600 551 604 q 568 581 568 596 l 568 504 q 540 464 568 481 l 399 357 l 540 250 q 568 208 568 232 m 326 208 l 326 132 q 318 113 326 117 q 297 118 310 108 l 90 278 q 68 299 74 290 q 63 329 63 308 l 63 386 q 90 435 63 415 l 297 594 q 318 600 310 604 q 326 581 326 596 l 326 504 q 299 464 326 481 l 157 357 l 299 250 q 326 208 326 232 z "},"®":{"ha":660,"x_min":86,"x_max":574,"o":"m 346 838 l 304 838 l 304 769 l 346 769 q 361 785 361 769 l 361 824 q 346 838 361 838 m 242 649 l 242 868 q 247 889 242 883 q 269 894 253 894 l 351 894 q 425 831 425 894 l 425 778 q 396 722 425 736 l 426 658 q 407 624 443 624 l 393 624 q 368 642 375 624 l 333 719 l 304 719 l 304 649 q 299 628 304 633 q 279 624 294 624 l 269 624 q 247 628 253 624 q 242 649 242 633 m 239 578 l 421 578 q 483 596 464 578 q 501 658 501 614 l 501 860 q 483 922 501 903 q 421 940 464 940 l 239 940 q 176 922 194 940 q 158 860 158 903 l 158 658 q 176 596 158 614 q 239 578 194 578 m 438 511 l 222 511 q 123 547 160 511 q 86 642 86 582 l 86 876 q 123 972 86 936 q 222 1007 160 1007 l 438 1007 q 538 972 501 1007 q 574 876 574 938 l 574 642 q 538 546 574 581 q 438 511 501 511 z "},"¯":{"ha":479,"x_min":74,"x_max":406,"o":"m 376 826 l 103 826 q 74 857 74 826 l 74 918 q 103 947 74 947 l 376 947 q 406 918 406 947 l 406 857 q 376 826 406 826 z "},"°":{"ha":526,"x_min":151,"x_max":375,"o":"m 306 708 l 219 708 q 151 776 151 708 l 151 911 q 219 976 151 976 l 306 976 q 356 959 338 976 q 375 911 375 942 l 375 776 q 356 726 375 744 q 306 708 338 708 m 272 774 q 297 779 290 774 q 303 803 303 785 l 303 881 q 297 906 303 900 q 272 911 290 911 l 253 911 q 228 906 233 911 q 222 881 222 900 l 222 803 q 228 779 222 785 q 253 774 235 774 l 272 774 z "},"±":{"ha":785,"x_min":97,"x_max":688,"o":"m 467 614 l 656 614 q 681 606 674 614 q 688 581 688 599 l 688 507 q 681 481 688 489 q 656 474 674 474 l 467 474 l 467 378 q 433 344 467 344 l 351 344 q 318 378 318 344 l 318 474 l 129 474 q 104 481 111 474 q 97 507 97 489 l 97 581 q 104 606 97 599 q 129 614 111 614 l 318 614 l 318 708 q 351 742 318 742 l 433 742 q 467 708 467 742 l 467 614 m 129 290 l 656 290 q 688 258 688 290 l 688 183 q 656 150 688 150 l 129 150 q 97 183 97 150 l 97 258 q 129 290 97 290 z "},"´":{"ha":414,"x_min":79,"x_max":339,"o":"m 183 976 l 321 976 q 339 968 335 976 q 335 949 343 960 l 221 815 q 182 797 206 797 l 94 797 q 79 826 65 797 l 142 950 q 183 976 156 976 z "},"¶":{"ha":758,"x_min":69,"x_max":656,"o":"m 357 0 l 274 0 q 244 29 244 0 l 244 442 q 121 485 172 442 q 69 615 69 529 l 69 718 q 128 851 69 810 q 272 893 188 893 l 626 893 q 656 865 656 893 l 656 29 q 626 0 656 0 l 543 0 q 514 29 514 0 l 514 747 q 497 763 514 763 l 403 763 q 386 747 386 763 l 386 29 q 357 0 386 0 z "},"·":{"ha":288,"x_min":54,"x_max":232,"o":"m 232 528 l 232 357 q 206 328 232 328 l 82 328 q 54 357 54 328 l 54 526 q 82 554 54 554 l 206 554 q 232 528 232 554 z "},"¸":{"ha":369,"x_min":76,"x_max":294,"o":"m 192 -51 q 294 -156 294 -51 l 294 -181 q 164 -278 294 -278 l 101 -278 q 81 -273 86 -278 q 76 -253 76 -268 l 76 -225 q 81 -204 76 -210 q 101 -199 86 -199 l 147 -199 q 197 -192 185 -199 q 210 -167 210 -186 l 210 -164 q 197 -137 210 -143 q 147 -131 185 -131 l 113 -131 q 78 -103 88 -131 q 86 -54 68 -76 l 157 28 l 265 28 l 192 -46 l 192 -51 z "},"»":{"ha":631,"x_min":63,"x_max":568,"o":"m 304 504 l 304 581 q 312 600 304 596 q 332 594 319 604 l 540 435 q 568 386 568 415 l 568 329 q 563 299 568 308 q 540 278 557 290 l 332 118 q 312 113 319 108 q 304 132 304 117 l 304 208 q 331 250 304 232 l 474 357 l 331 464 q 304 504 304 481 m 63 504 l 63 581 q 70 600 63 596 q 90 594 78 604 l 299 435 q 326 386 326 415 l 326 329 q 321 299 326 308 q 299 278 315 290 l 90 118 q 70 113 78 108 q 63 132 63 117 l 63 208 q 89 250 63 232 l 232 357 l 89 464 q 63 504 63 481 z "},"¿":{"ha":647,"x_min":53,"x_max":593,"o":"m 246 692 l 246 863 q 274 892 246 892 l 397 892 q 424 861 424 892 l 424 693 q 397 665 424 665 l 274 665 q 246 692 246 665 m 246 510 l 246 546 q 275 575 246 575 l 385 575 q 414 546 414 575 l 414 508 q 399 435 414 464 q 347 376 383 406 l 269 313 q 225 236 225 279 l 225 228 q 245 166 225 185 q 310 147 265 147 l 335 147 q 398 165 379 147 q 417 228 417 183 l 417 257 q 446 288 417 288 l 564 288 q 593 257 593 288 l 593 225 q 533 58 593 117 q 364 0 474 0 l 282 0 q 113 58 172 0 q 53 225 53 117 l 53 244 q 115 367 53 313 l 210 443 q 246 510 246 478 z "},"À":{"ha":772,"x_min":33,"x_max":740,"o":"m 429 982 l 338 982 q 301 1000 315 982 l 189 1133 q 183 1153 179 1144 q 203 1161 188 1161 l 339 1161 q 381 1135 367 1161 l 443 1011 q 429 982 457 982 m 183 0 l 50 0 q 33 29 25 0 l 253 864 q 294 893 263 893 l 479 893 q 521 864 514 893 l 740 29 q 724 0 749 0 l 590 0 q 569 6 575 0 q 561 29 564 13 l 522 182 l 251 182 l 213 29 q 203 6 210 13 q 183 0 197 0 m 385 725 l 285 324 l 490 324 l 390 725 l 385 725 z "},"Á":{"ha":772,"x_min":33,"x_max":740,"o":"m 426 1161 l 564 1161 q 583 1153 579 1161 q 578 1133 588 1144 l 465 1000 q 429 982 450 982 l 338 982 q 324 1011 310 982 l 386 1135 q 426 1161 400 1161 m 183 0 l 50 0 q 33 29 25 0 l 253 864 q 294 893 263 893 l 479 893 q 521 864 514 893 l 740 29 q 724 0 749 0 l 590 0 q 569 6 575 0 q 561 29 564 13 l 522 182 l 251 182 l 213 29 q 203 6 210 13 q 183 0 197 0 m 385 725 l 285 324 l 490 324 l 390 725 l 385 725 z "},"Â":{"ha":772,"x_min":33,"x_max":740,"o":"m 540 982 l 457 982 q 432 999 439 982 l 388 1090 l 342 999 q 318 982 336 982 l 236 982 q 225 1000 215 982 l 311 1146 q 342 1161 322 1161 l 432 1161 q 463 1146 451 1161 l 550 1000 q 540 982 560 982 m 183 0 l 50 0 q 33 29 25 0 l 253 864 q 294 893 263 893 l 479 893 q 521 864 514 893 l 740 29 q 724 0 749 0 l 590 0 q 569 6 575 0 q 561 29 564 13 l 522 182 l 251 182 l 213 29 q 203 6 210 13 q 183 0 197 0 m 385 725 l 285 324 l 490 324 l 390 725 l 385 725 z "},"Ã":{"ha":772,"x_min":33,"x_max":740,"o":"m 321 975 q 221 1081 221 975 l 221 1135 q 224 1147 221 1144 q 236 1150 226 1150 l 290 1150 q 306 1135 306 1150 l 306 1118 q 310 1078 306 1088 q 324 1068 314 1068 q 341 1076 333 1068 q 378 1120 349 1083 q 454 1157 407 1157 q 554 1050 554 1157 l 554 999 q 540 981 554 981 l 485 981 q 471 999 471 981 l 471 1013 q 466 1053 471 1043 q 450 1063 461 1063 q 408 1025 433 1063 q 321 975 372 975 m 183 0 l 50 0 q 33 29 25 0 l 253 864 q 294 893 263 893 l 479 893 q 521 864 514 893 l 740 29 q 724 0 749 0 l 590 0 q 569 6 575 0 q 561 29 564 13 l 522 182 l 251 182 l 213 29 q 203 6 210 13 q 183 0 197 0 m 385 725 l 285 324 l 490 324 l 390 725 l 385 725 z "},"Ä":{"ha":772,"x_min":33,"x_max":740,"o":"m 172 1011 l 172 1133 q 199 1161 172 1161 l 310 1161 q 336 1135 336 1161 l 336 1011 q 310 982 336 982 l 199 982 q 172 1011 172 982 m 436 1011 l 436 1133 q 463 1161 436 1161 l 574 1161 q 600 1135 600 1161 l 600 1011 q 574 982 600 982 l 463 982 q 436 1011 436 982 m 183 0 l 50 0 q 33 29 25 0 l 253 864 q 294 893 263 893 l 479 893 q 521 864 514 893 l 740 29 q 724 0 749 0 l 590 0 q 569 6 575 0 q 561 29 564 13 l 522 182 l 251 182 l 213 29 q 203 6 210 13 q 183 0 197 0 m 385 725 l 285 324 l 490 324 l 390 725 l 385 725 z "},"Å":{"ha":772,"x_min":33,"x_max":740,"o":"m 425 978 l 346 978 q 271 1053 271 978 l 271 1142 q 346 1214 271 1214 l 425 1214 q 481 1194 460 1214 q 501 1142 501 1175 l 501 1053 q 481 997 501 1017 q 425 978 460 978 m 374 1042 l 396 1042 q 421 1049 414 1042 q 428 1076 428 1057 l 428 1113 q 422 1141 428 1133 q 397 1149 415 1149 l 375 1149 q 349 1141 357 1149 q 342 1113 342 1133 l 342 1076 q 349 1049 342 1057 q 374 1042 356 1042 m 183 0 l 50 0 q 33 29 25 0 l 253 864 q 294 893 263 893 l 479 893 q 521 864 514 893 l 740 29 q 724 0 749 0 l 590 0 q 569 6 575 0 q 561 29 564 13 l 522 182 l 251 182 l 213 29 q 203 6 210 13 q 183 0 197 0 m 385 725 l 285 324 l 490 324 l 390 725 l 385 725 z "},"Æ":{"ha":1085,"x_min":10,"x_max":1022,"o":"m 156 0 l 28 0 q 10 31 -3 0 l 394 864 q 440 893 408 893 l 994 893 q 1022 864 1022 893 l 1022 769 q 994 740 1022 740 l 704 740 q 688 725 688 740 l 688 544 q 704 529 688 529 l 942 529 q 971 500 971 529 l 971 406 q 942 376 971 376 l 704 376 q 688 361 688 376 l 688 168 q 704 153 688 153 l 994 153 q 1022 124 1022 153 l 1022 29 q 994 0 1022 0 l 540 0 q 511 29 511 0 l 511 183 l 264 183 l 193 29 q 156 0 182 0 m 511 338 l 511 725 l 506 725 l 329 338 l 511 338 z "},"Ç":{"ha":747,"x_min":76,"x_max":686,"o":"m 656 571 l 539 571 q 510 601 510 571 l 510 658 q 491 722 510 703 q 428 740 472 740 l 333 740 q 272 722 290 740 q 253 658 253 703 l 253 235 q 272 172 253 190 q 333 153 290 153 l 428 153 q 491 172 472 153 q 510 235 510 190 l 510 292 q 539 322 510 322 l 656 322 q 686 292 686 322 l 686 226 q 626 59 686 118 q 457 0 565 0 l 456 0 l 400 -57 l 400 -62 q 503 -167 503 -62 l 503 -192 q 467 -266 503 -242 q 372 -290 432 -290 l 308 -290 q 288 -285 293 -290 q 283 -264 283 -279 l 283 -237 q 288 -215 283 -221 q 308 -210 293 -210 l 356 -210 q 406 -203 393 -210 q 418 -179 418 -197 l 418 -175 q 406 -148 418 -154 q 356 -142 393 -142 l 319 -142 q 285 -115 294 -142 q 294 -65 275 -87 l 350 0 l 306 0 q 136 58 196 0 q 76 226 76 117 l 76 667 q 136 835 76 776 q 306 893 196 893 l 457 893 q 626 834 565 893 q 686 667 686 775 l 686 601 q 656 571 686 571 z "},"È":{"ha":665,"x_min":90,"x_max":601,"o":"m 389 982 l 297 982 q 261 1000 275 982 l 149 1133 q 143 1153 139 1144 q 163 1161 147 1161 l 299 1161 q 340 1135 328 1161 l 403 1011 q 389 982 417 982 m 574 0 l 119 0 q 90 29 90 0 l 90 864 q 119 893 90 893 l 574 893 q 601 864 601 893 l 601 769 q 574 740 601 740 l 283 740 q 267 725 267 740 l 267 544 q 283 529 267 529 l 521 529 q 550 500 550 529 l 550 406 q 521 376 550 376 l 283 376 q 267 361 267 376 l 267 168 q 283 153 267 153 l 574 153 q 601 124 601 153 l 601 29 q 574 0 601 0 z "},"É":{"ha":665,"x_min":90,"x_max":601,"o":"m 372 1161 l 510 1161 q 529 1153 525 1161 q 524 1133 533 1144 l 411 1000 q 374 982 396 982 l 283 982 q 269 1011 256 982 l 331 1135 q 372 1161 346 1161 m 574 0 l 119 0 q 90 29 90 0 l 90 864 q 119 893 90 893 l 574 893 q 601 864 601 893 l 601 769 q 574 740 601 740 l 283 740 q 267 725 267 740 l 267 544 q 283 529 267 529 l 521 529 q 550 500 550 529 l 550 406 q 521 376 550 376 l 283 376 q 267 361 267 376 l 267 168 q 283 153 267 153 l 574 153 q 601 124 601 153 l 601 29 q 574 0 601 0 z "},"Ê":{"ha":665,"x_min":90,"x_max":601,"o":"m 497 982 l 414 982 q 390 999 396 982 l 344 1090 l 300 999 q 275 982 293 982 l 193 982 q 182 1000 172 982 l 269 1146 q 300 1161 281 1161 l 390 1161 q 421 1146 410 1161 l 507 1000 q 497 982 517 982 m 574 0 l 119 0 q 90 29 90 0 l 90 864 q 119 893 90 893 l 574 893 q 601 864 601 893 l 601 769 q 574 740 601 740 l 283 740 q 267 725 267 740 l 267 544 q 283 529 267 529 l 521 529 q 550 500 550 529 l 550 406 q 521 376 550 376 l 283 376 q 267 361 267 376 l 267 168 q 283 153 267 153 l 574 153 q 601 124 601 153 l 601 29 q 574 0 601 0 z "},"Ë":{"ha":665,"x_min":90,"x_max":601,"o":"m 132 1011 l 132 1133 q 158 1161 132 1161 l 269 1161 q 297 1135 297 1161 l 297 1011 q 269 982 297 982 l 158 982 q 132 1011 132 982 m 396 1011 l 396 1133 q 422 1161 396 1161 l 533 1161 q 561 1135 561 1161 l 561 1011 q 533 982 561 982 l 422 982 q 396 1011 396 982 m 574 0 l 119 0 q 90 29 90 0 l 90 864 q 119 893 90 893 l 574 893 q 601 864 601 893 l 601 769 q 574 740 601 740 l 283 740 q 267 725 267 740 l 267 544 q 283 529 267 529 l 521 529 q 550 500 550 529 l 550 406 q 521 376 550 376 l 283 376 q 267 361 267 376 l 267 168 q 283 153 267 153 l 574 153 q 601 124 601 153 l 601 29 q 574 0 601 0 z "},"Ì":{"ha":371,"x_min":-14,"x_max":274,"o":"m 231 982 l 140 982 q 104 1000 118 982 l -8 1133 q -14 1153 -18 1144 q 4 1161 -10 1161 l 142 1161 q 183 1135 169 1161 l 246 1011 q 231 982 260 982 m 274 864 l 274 29 q 244 0 274 0 l 126 0 q 97 29 97 0 l 97 864 q 126 893 97 893 l 244 893 q 274 864 274 893 z "},"Í":{"ha":371,"x_min":97,"x_max":385,"o":"m 228 1161 l 365 1161 q 385 1153 381 1161 q 379 1133 389 1144 l 267 1000 q 229 982 251 982 l 139 982 q 125 1011 111 982 l 186 1135 q 228 1161 201 1161 m 274 864 l 274 29 q 244 0 274 0 l 126 0 q 97 29 97 0 l 97 864 q 126 893 97 893 l 244 893 q 274 864 274 893 z "},"Î":{"ha":368,"x_min":21,"x_max":346,"o":"m 336 982 l 253 982 q 229 999 236 982 l 183 1090 l 139 999 q 114 982 132 982 l 33 982 q 21 1000 11 982 l 108 1146 q 139 1161 119 1161 l 229 1161 q 260 1146 249 1161 l 346 1000 q 336 982 356 982 m 274 864 l 274 29 q 244 0 274 0 l 126 0 q 97 29 97 0 l 97 864 q 126 893 97 893 l 244 893 q 274 864 274 893 z "},"Ï":{"ha":369,"x_min":-29,"x_max":400,"o":"m -29 1011 l -29 1133 q -3 1161 -29 1161 l 108 1161 q 136 1135 136 1161 l 136 1011 q 108 982 136 982 l -3 982 q -29 1011 -29 982 m 235 1011 l 235 1133 q 261 1161 235 1161 l 372 1161 q 400 1135 400 1161 l 400 1011 q 372 982 400 982 l 261 982 q 235 1011 235 982 m 274 864 l 274 29 q 244 0 274 0 l 126 0 q 97 29 97 0 l 97 864 q 126 893 97 893 l 244 893 q 274 864 274 893 z "},"Ð":{"ha":786,"x_min":29,"x_max":711,"o":"m 301 153 l 453 153 q 516 172 497 153 q 535 235 535 190 l 535 658 q 516 722 535 703 q 453 740 497 740 l 301 740 q 286 725 286 740 l 286 528 q 301 513 286 513 l 407 513 q 436 483 436 513 l 436 411 q 407 382 436 382 l 301 382 q 286 367 286 382 l 286 168 q 301 153 286 153 m 482 0 l 139 0 q 110 29 110 0 l 110 367 q 94 382 110 382 l 58 382 q 35 388 42 382 q 29 411 29 394 l 29 483 q 58 513 29 513 l 94 513 q 110 528 110 513 l 110 864 q 139 893 110 893 l 482 893 q 651 835 592 893 q 711 667 711 776 l 711 226 q 651 58 711 117 q 482 0 592 0 z "},"Ñ":{"ha":813,"x_min":90,"x_max":722,"o":"m 340 975 q 242 1081 242 975 l 242 1135 q 256 1150 242 1150 l 310 1150 q 322 1147 319 1150 q 325 1135 325 1144 l 325 1118 q 329 1078 325 1088 q 344 1068 333 1068 q 392 1113 356 1068 q 475 1157 425 1157 q 575 1050 575 1157 l 575 999 q 560 981 575 981 l 506 981 q 490 999 490 981 l 490 1013 q 486 1053 490 1043 q 470 1063 482 1063 q 428 1025 458 1063 q 340 975 393 975 m 235 0 l 119 0 q 90 29 90 0 l 90 864 q 119 893 90 893 l 224 893 q 263 874 253 893 l 543 347 l 549 347 l 549 864 q 578 893 549 893 l 693 893 q 722 864 722 893 l 722 29 q 693 0 722 0 l 592 0 q 547 28 561 0 l 269 544 l 264 544 l 264 29 q 235 0 264 0 z "},"Ò":{"ha":767,"x_min":76,"x_max":690,"o":"m 428 982 l 336 982 q 300 1000 314 982 l 188 1133 q 182 1153 178 1144 q 200 1161 186 1161 l 338 1161 q 379 1135 367 1161 l 442 1011 q 428 982 456 982 m 333 153 l 432 153 q 495 172 476 153 q 514 235 514 190 l 514 658 q 495 722 514 703 q 432 740 476 740 l 333 740 q 271 722 289 740 q 253 658 253 703 l 253 235 q 271 172 253 190 q 333 153 289 153 m 461 0 l 306 0 q 136 58 196 0 q 76 226 76 117 l 76 667 q 136 835 76 776 q 306 893 196 893 l 461 893 q 631 835 571 893 q 690 667 690 776 l 690 226 q 631 58 690 117 q 461 0 571 0 z "},"Ó":{"ha":767,"x_min":76,"x_max":690,"o":"m 414 1161 l 551 1161 q 569 1153 565 1161 q 564 1133 574 1144 l 451 1000 q 415 982 438 982 l 324 982 q 310 1011 296 982 l 372 1135 q 414 1161 386 1161 m 333 153 l 432 153 q 495 172 476 153 q 514 235 514 190 l 514 658 q 495 722 514 703 q 432 740 476 740 l 333 740 q 271 722 289 740 q 253 658 253 703 l 253 235 q 271 172 253 190 q 333 153 289 153 m 461 0 l 306 0 q 136 58 196 0 q 76 226 76 117 l 76 667 q 136 835 76 776 q 306 893 196 893 l 461 893 q 631 835 571 893 q 690 667 690 776 l 690 226 q 631 58 690 117 q 461 0 571 0 z "},"Ô":{"ha":767,"x_min":76,"x_max":690,"o":"m 540 982 l 457 982 q 433 999 439 982 l 388 1090 l 343 999 q 318 982 336 982 l 236 982 q 225 1000 215 982 l 313 1146 q 343 1161 324 1161 l 433 1161 q 464 1146 453 1161 l 550 1000 q 540 982 560 982 m 333 153 l 432 153 q 495 172 476 153 q 514 235 514 190 l 514 658 q 495 722 514 703 q 432 740 476 740 l 333 740 q 271 722 289 740 q 253 658 253 703 l 253 235 q 271 172 253 190 q 333 153 289 153 m 461 0 l 306 0 q 136 58 196 0 q 76 226 76 117 l 76 667 q 136 835 76 776 q 306 893 196 893 l 461 893 q 631 835 571 893 q 690 667 690 776 l 690 226 q 631 58 690 117 q 461 0 571 0 z "},"Õ":{"ha":767,"x_min":76,"x_max":690,"o":"m 317 975 q 217 1081 217 975 l 217 1135 q 232 1150 217 1150 l 286 1150 q 299 1147 296 1150 q 301 1135 301 1144 l 301 1118 q 306 1078 301 1088 q 321 1068 310 1068 q 368 1113 332 1068 q 451 1157 401 1157 q 550 1050 550 1157 l 550 999 q 536 981 550 981 l 482 981 q 467 999 467 981 l 467 1013 q 463 1053 467 1043 q 447 1063 458 1063 q 404 1025 435 1063 q 317 975 369 975 m 333 153 l 432 153 q 495 172 476 153 q 514 235 514 190 l 514 658 q 495 722 514 703 q 432 740 476 740 l 333 740 q 271 722 289 740 q 253 658 253 703 l 253 235 q 271 172 253 190 q 333 153 289 153 m 461 0 l 306 0 q 136 58 196 0 q 76 226 76 117 l 76 667 q 136 835 76 776 q 306 893 196 893 l 461 893 q 631 835 571 893 q 690 667 690 776 l 690 226 q 631 58 690 117 q 461 0 571 0 z "},"Ö":{"ha":767,"x_min":76,"x_max":690,"o":"m 169 1011 l 169 1133 q 196 1161 169 1161 l 307 1161 q 333 1135 333 1161 l 333 1011 q 307 982 333 982 l 196 982 q 169 1011 169 982 m 433 1011 l 433 1133 q 460 1161 433 1161 l 571 1161 q 597 1135 597 1161 l 597 1011 q 571 982 597 982 l 460 982 q 433 1011 433 982 m 333 153 l 432 153 q 495 172 476 153 q 514 235 514 190 l 514 658 q 495 722 514 703 q 432 740 476 740 l 333 740 q 271 722 289 740 q 253 658 253 703 l 253 235 q 271 172 253 190 q 333 153 289 153 m 461 0 l 306 0 q 136 58 196 0 q 76 226 76 117 l 76 667 q 136 835 76 776 q 306 893 196 893 l 461 893 q 631 835 571 893 q 690 667 690 776 l 690 226 q 631 58 690 117 q 461 0 571 0 z "},"×":{"ha":724,"x_min":115,"x_max":606,"o":"m 467 447 l 606 307 q 606 261 629 285 l 546 203 q 500 201 524 179 l 361 342 l 221 201 q 176 203 199 179 l 117 261 q 115 307 93 285 l 256 447 l 117 585 q 118 631 94 608 l 176 690 q 222 690 200 714 l 361 553 l 499 690 q 546 690 522 714 l 604 631 q 604 585 628 608 l 467 447 z "},"Ø":{"ha":806,"x_min":71,"x_max":738,"o":"m 715 667 l 715 226 q 656 59 715 118 q 488 0 596 0 l 319 0 q 174 39 232 0 l 150 6 q 107 -1 133 -17 l 78 21 q 71 63 54 38 l 110 118 q 90 226 90 165 l 90 667 q 150 835 90 776 q 319 893 210 893 l 488 893 q 633 853 576 893 l 657 886 q 700 893 675 910 l 729 872 q 738 831 753 856 l 696 772 q 715 667 715 726 m 267 658 l 267 338 l 531 708 q 458 740 514 740 l 347 740 q 285 722 303 740 q 267 658 267 703 m 539 235 l 539 551 l 276 183 q 347 153 293 153 l 458 153 q 521 172 503 153 q 539 235 539 190 z "},"Ù":{"ha":778,"x_min":83,"x_max":694,"o":"m 433 982 l 343 982 q 306 1000 321 982 l 193 1133 q 189 1153 185 1144 q 207 1161 193 1161 l 344 1161 q 386 1135 371 1161 l 447 1011 q 433 982 463 982 m 547 893 l 664 893 q 694 865 694 893 l 694 226 q 634 59 694 118 q 465 0 574 0 l 313 0 q 143 58 203 0 q 83 226 83 117 l 83 864 q 113 893 83 893 l 231 893 q 260 864 260 893 l 260 235 q 278 172 260 190 q 340 153 297 153 l 436 153 q 499 172 481 153 q 518 235 518 190 l 518 864 q 547 893 518 893 z "},"Ú":{"ha":778,"x_min":83,"x_max":694,"o":"m 429 1161 l 567 1161 q 585 1153 581 1161 q 581 1133 589 1144 l 467 1000 q 431 982 453 982 l 340 982 q 325 1011 311 982 l 388 1135 q 429 1161 400 1161 m 547 893 l 664 893 q 694 865 694 893 l 694 226 q 634 59 694 118 q 465 0 574 0 l 313 0 q 143 58 203 0 q 83 226 83 117 l 83 864 q 113 893 83 893 l 231 893 q 260 864 260 893 l 260 235 q 278 172 260 190 q 340 153 297 153 l 436 153 q 499 172 481 153 q 518 235 518 190 l 518 864 q 547 893 518 893 z "},"Û":{"ha":778,"x_min":83,"x_max":694,"o":"m 544 982 l 463 982 q 438 999 444 982 l 392 1090 l 347 999 q 322 982 340 982 l 242 982 q 229 1000 219 982 l 317 1146 q 347 1161 328 1161 l 438 1161 q 468 1146 457 1161 l 556 1000 q 544 982 565 982 m 547 893 l 664 893 q 694 865 694 893 l 694 226 q 634 59 694 118 q 465 0 574 0 l 313 0 q 143 58 203 0 q 83 226 83 117 l 83 864 q 113 893 83 893 l 231 893 q 260 864 260 893 l 260 235 q 278 172 260 190 q 340 153 297 153 l 436 153 q 499 172 481 153 q 518 235 518 190 l 518 864 q 547 893 518 893 z "},"Ü":{"ha":778,"x_min":83,"x_max":694,"o":"m 175 1011 l 175 1133 q 201 1161 175 1161 l 313 1161 q 339 1135 339 1161 l 339 1011 q 313 982 339 982 l 201 982 q 175 1011 175 982 m 439 1011 l 439 1133 q 465 1161 439 1161 l 576 1161 q 603 1135 603 1161 l 603 1011 q 576 982 603 982 l 465 982 q 439 1011 439 982 m 547 893 l 664 893 q 694 865 694 893 l 694 226 q 634 59 694 118 q 465 0 574 0 l 313 0 q 143 58 203 0 q 83 226 83 117 l 83 864 q 113 893 83 893 l 231 893 q 260 864 260 893 l 260 235 q 278 172 260 190 q 340 153 297 153 l 436 153 q 499 172 481 153 q 518 235 518 190 l 518 864 q 547 893 518 893 z "},"Ý":{"ha":718,"x_min":17,"x_max":703,"o":"m 394 1161 l 532 1161 q 550 1153 546 1161 q 546 1133 554 1144 l 433 1000 q 396 982 418 982 l 306 982 q 292 1011 276 982 l 353 1135 q 394 1161 368 1161 m 418 0 l 300 0 q 271 29 271 0 l 271 326 l 17 863 q 17 884 11 875 q 36 893 24 893 l 183 893 q 217 864 206 893 l 356 526 l 365 526 l 501 864 q 535 893 511 893 l 682 893 q 702 885 696 893 q 701 863 708 876 l 447 326 l 447 29 q 418 0 447 0 z "},"Þ":{"ha":700,"x_min":110,"x_max":647,"o":"m 301 336 l 389 336 q 451 354 433 336 q 469 417 469 372 l 469 474 q 451 537 469 518 q 389 556 433 556 l 301 556 q 286 540 286 556 l 286 351 q 301 336 286 336 m 257 0 l 139 0 q 110 29 110 0 l 110 864 q 139 893 110 893 l 257 893 q 286 864 286 893 l 286 724 q 303 708 286 708 l 418 708 q 587 649 526 708 q 647 482 647 590 l 647 408 q 587 241 647 300 q 418 182 526 182 l 303 182 q 286 167 286 182 l 286 29 q 257 0 286 0 z "},"ß":{"ha":754,"x_min":78,"x_max":685,"o":"m 390 517 l 411 517 q 478 536 457 517 q 499 599 499 556 l 499 665 q 478 726 499 708 q 414 744 458 744 l 335 744 q 273 726 292 744 q 254 665 254 708 l 254 29 q 225 0 254 0 l 107 0 q 78 29 78 0 l 78 667 q 138 835 78 776 q 307 893 197 893 l 442 893 q 611 833 551 893 q 671 664 671 774 l 671 590 q 572 444 671 476 q 657 391 629 436 q 685 282 685 346 l 685 214 q 456 0 685 0 l 372 0 q 349 6 356 0 q 343 28 343 13 l 343 118 q 372 147 343 147 l 428 147 q 492 166 472 147 q 513 228 513 185 l 513 286 q 424 368 513 368 l 390 368 q 368 374 374 368 q 363 396 363 381 l 363 488 q 390 517 363 517 z "},"à":{"ha":719,"x_min":63,"x_max":643,"o":"m 443 797 l 353 797 q 315 815 331 797 l 203 949 q 199 968 194 960 q 217 976 203 976 l 354 976 q 396 950 383 976 l 458 826 q 443 797 472 797 m 325 0 l 292 0 q 122 58 182 0 q 63 226 63 117 l 63 482 q 122 650 63 592 q 292 708 182 708 l 613 708 q 643 679 643 708 l 643 29 q 613 0 643 0 l 496 0 q 467 29 467 0 l 467 75 l 461 75 q 407 19 446 38 q 325 0 368 0 m 467 258 l 467 540 q 450 556 467 556 l 319 556 q 257 537 275 556 q 239 474 239 518 l 239 235 q 257 172 239 190 q 319 153 275 153 l 371 153 q 467 258 467 153 z "},"á":{"ha":719,"x_min":63,"x_max":643,"o":"m 418 976 l 556 976 q 574 968 569 976 q 568 949 578 960 l 456 815 q 417 797 440 797 l 328 797 q 314 826 300 797 l 376 950 q 418 976 389 976 m 325 0 l 292 0 q 122 58 182 0 q 63 226 63 117 l 63 482 q 122 650 63 592 q 292 708 182 708 l 613 708 q 643 679 643 708 l 643 29 q 613 0 643 0 l 496 0 q 467 29 467 0 l 467 75 l 461 75 q 407 19 446 38 q 325 0 368 0 m 467 258 l 467 540 q 450 556 467 556 l 319 556 q 257 537 275 556 q 239 474 239 518 l 239 235 q 257 172 239 190 q 319 153 275 153 l 371 153 q 467 258 467 153 z "},"â":{"ha":719,"x_min":63,"x_max":643,"o":"m 526 797 l 443 797 q 419 814 425 797 l 374 906 l 329 814 q 304 797 322 797 l 222 797 q 211 815 201 797 l 299 961 q 329 976 310 976 l 419 976 q 450 961 439 976 l 536 815 q 526 797 546 797 m 325 0 l 292 0 q 122 58 182 0 q 63 226 63 117 l 63 482 q 122 650 63 592 q 292 708 182 708 l 613 708 q 643 679 643 708 l 643 29 q 613 0 643 0 l 496 0 q 467 29 467 0 l 467 75 l 461 75 q 407 19 446 38 q 325 0 368 0 m 467 258 l 467 540 q 450 556 467 556 l 319 556 q 257 537 275 556 q 239 474 239 518 l 239 235 q 257 172 239 190 q 319 153 275 153 l 371 153 q 467 258 467 153 z "},"ã":{"ha":719,"x_min":63,"x_max":643,"o":"m 213 903 l 213 956 q 215 969 213 965 q 228 972 218 972 l 282 972 q 296 956 296 972 l 296 940 q 301 901 296 911 q 315 890 306 890 q 333 898 325 890 q 369 942 340 906 q 446 978 397 978 q 546 872 546 978 l 546 821 q 532 803 546 803 l 476 803 q 463 821 463 803 l 463 833 q 458 875 463 865 q 442 885 453 885 q 426 879 432 885 q 400 846 421 874 q 313 797 364 797 q 213 903 213 797 m 325 0 l 292 0 q 122 58 182 0 q 63 226 63 117 l 63 482 q 122 650 63 592 q 292 708 182 708 l 613 708 q 643 679 643 708 l 643 29 q 613 0 643 0 l 496 0 q 467 29 467 0 l 467 75 l 461 75 q 407 19 446 38 q 325 0 368 0 m 467 258 l 467 540 q 450 556 467 556 l 319 556 q 257 537 275 556 q 239 474 239 518 l 239 235 q 257 172 239 190 q 319 153 275 153 l 371 153 q 467 258 467 153 z "},"ä":{"ha":719,"x_min":63,"x_max":643,"o":"m 168 826 l 168 949 q 194 976 168 976 l 306 976 q 332 950 332 976 l 332 826 q 306 797 332 797 l 194 797 q 168 826 168 797 m 432 826 l 432 949 q 458 976 432 976 l 569 976 q 596 950 596 976 l 596 826 q 569 797 596 797 l 458 797 q 432 826 432 797 m 325 0 l 292 0 q 122 58 182 0 q 63 226 63 117 l 63 482 q 122 650 63 592 q 292 708 182 708 l 613 708 q 643 679 643 708 l 643 29 q 613 0 643 0 l 496 0 q 467 29 467 0 l 467 75 l 461 75 q 407 19 446 38 q 325 0 368 0 m 467 258 l 467 540 q 450 556 467 556 l 319 556 q 257 537 275 556 q 239 474 239 518 l 239 235 q 257 172 239 190 q 319 153 275 153 l 371 153 q 467 258 467 153 z "},"å":{"ha":719,"x_min":63,"x_max":643,"o":"m 467 258 l 467 540 q 450 556 467 556 l 319 556 q 257 537 275 556 q 239 474 239 518 l 239 235 q 257 172 239 190 q 319 153 275 153 l 371 153 q 467 258 467 153 m 325 0 l 292 0 q 122 58 182 0 q 63 226 63 117 l 63 482 q 122 650 63 592 q 292 708 182 708 l 613 708 q 643 679 643 708 l 643 29 q 613 0 643 0 l 496 0 q 467 29 467 0 l 467 75 l 461 75 q 407 19 446 38 q 325 0 368 0 m 325 908 l 325 867 q 333 837 325 844 q 363 829 342 829 l 385 829 q 414 837 406 829 q 422 867 422 844 l 422 908 q 415 940 422 932 q 386 947 407 947 l 363 947 q 333 940 342 947 q 325 908 325 932 m 265 843 l 265 938 q 333 1001 265 1001 l 414 1001 q 483 938 483 1001 l 483 843 q 414 776 483 776 l 333 776 q 265 843 265 776 z "},"æ":{"ha":1049,"x_min":57,"x_max":992,"o":"m 625 254 l 625 235 q 644 172 625 190 q 707 153 663 153 l 963 153 q 992 124 992 153 l 992 28 q 985 6 992 13 q 963 0 979 0 l 678 0 q 504 79 561 0 q 308 0 458 0 l 286 0 q 118 56 179 0 q 57 217 57 113 l 57 232 q 286 447 57 447 l 439 447 q 449 458 449 447 l 449 476 q 429 538 449 519 q 368 556 410 556 l 142 556 q 114 585 114 556 l 114 679 q 142 708 114 708 l 363 708 q 538 632 494 708 q 703 708 581 708 l 764 708 q 932 649 872 708 q 992 482 992 590 l 992 299 q 963 269 992 269 l 642 269 q 625 254 625 269 m 839 404 l 839 474 q 820 537 839 518 q 757 556 801 556 l 708 556 q 644 537 664 556 q 625 475 625 518 l 625 404 q 640 389 625 389 l 822 389 q 839 404 839 389 m 450 247 l 450 307 q 433 322 450 322 l 315 322 q 242 303 263 322 q 222 240 222 285 l 222 228 q 243 161 222 181 q 315 142 264 142 l 354 142 q 428 167 407 142 q 450 247 450 192 z "},"ç":{"ha":571,"x_min":63,"x_max":528,"o":"m 499 556 l 319 556 q 258 537 276 556 q 239 474 239 518 l 239 235 q 258 172 239 190 q 319 153 276 153 l 499 153 q 528 124 528 153 l 528 28 q 522 6 528 13 q 499 0 515 0 l 417 0 l 371 -46 l 371 -51 q 474 -156 474 -51 l 474 -181 q 343 -278 474 -278 l 281 -278 q 259 -273 264 -278 q 254 -253 254 -268 l 254 -225 q 260 -204 254 -210 q 281 -199 265 -199 l 326 -199 q 376 -192 364 -199 q 389 -167 389 -186 l 389 -164 q 376 -137 389 -143 q 326 -131 364 -131 l 290 -131 q 256 -103 265 -131 q 265 -54 247 -76 l 311 0 l 292 0 q 122 58 182 0 q 63 226 63 117 l 63 482 q 122 650 63 592 q 292 708 182 708 l 499 708 q 528 679 528 708 l 528 583 q 522 562 528 568 q 499 556 515 556 z "},"è":{"ha":686,"x_min":63,"x_max":631,"o":"m 403 797 l 313 797 q 276 815 290 797 l 163 949 q 158 968 154 960 q 176 976 163 976 l 314 976 q 356 950 342 976 l 418 826 q 403 797 432 797 m 599 0 l 292 0 q 122 58 182 0 q 63 226 63 117 l 63 482 q 122 650 63 592 q 292 708 182 708 l 401 708 q 571 650 511 708 q 631 482 631 592 l 631 306 q 601 276 631 276 l 253 276 q 236 261 236 276 l 236 231 q 255 169 236 188 q 318 150 274 150 l 599 150 q 628 119 628 150 l 628 28 q 622 6 628 13 q 599 0 615 0 m 253 394 l 442 394 q 457 410 457 394 l 457 476 q 439 539 457 521 q 376 557 421 557 l 318 557 q 256 539 274 557 q 238 476 238 521 l 238 410 q 253 394 238 394 z "},"é":{"ha":686,"x_min":63,"x_max":631,"o":"m 392 976 l 528 976 q 547 968 543 976 q 542 949 551 960 l 429 815 q 390 797 414 797 l 301 797 q 288 826 274 797 l 350 950 q 392 976 364 976 m 599 0 l 292 0 q 122 58 182 0 q 63 226 63 117 l 63 482 q 122 650 63 592 q 292 708 182 708 l 401 708 q 571 650 511 708 q 631 482 631 592 l 631 306 q 601 276 631 276 l 253 276 q 236 261 236 276 l 236 231 q 255 169 236 188 q 318 150 274 150 l 599 150 q 628 119 628 150 l 628 28 q 622 6 628 13 q 599 0 615 0 m 253 394 l 442 394 q 457 410 457 394 l 457 476 q 439 539 457 521 q 376 557 421 557 l 318 557 q 256 539 274 557 q 238 476 238 521 l 238 410 q 253 394 238 394 z "},"ê":{"ha":686,"x_min":63,"x_max":631,"o":"m 506 797 l 424 797 q 399 814 406 797 l 354 906 l 308 814 q 285 797 303 797 l 203 797 q 192 815 182 797 l 278 961 q 308 976 289 976 l 399 976 q 429 961 418 976 l 517 815 q 506 797 526 797 m 599 0 l 292 0 q 122 58 182 0 q 63 226 63 117 l 63 482 q 122 650 63 592 q 292 708 182 708 l 401 708 q 571 650 511 708 q 631 482 631 592 l 631 306 q 601 276 631 276 l 253 276 q 236 261 236 276 l 236 231 q 255 169 236 188 q 318 150 274 150 l 599 150 q 628 119 628 150 l 628 28 q 622 6 628 13 q 599 0 615 0 m 253 394 l 442 394 q 457 410 457 394 l 457 476 q 439 539 457 521 q 376 557 421 557 l 318 557 q 256 539 274 557 q 238 476 238 521 l 238 410 q 253 394 238 394 z "},"ë":{"ha":686,"x_min":63,"x_max":631,"o":"m 139 826 l 139 949 q 167 976 139 976 l 276 976 q 304 950 304 976 l 304 826 q 276 797 304 797 l 167 797 q 139 826 139 797 m 403 826 l 403 949 q 431 976 403 976 l 540 976 q 568 950 568 976 l 568 826 q 540 797 568 797 l 431 797 q 403 826 403 797 m 599 0 l 292 0 q 122 58 182 0 q 63 226 63 117 l 63 482 q 122 650 63 592 q 292 708 182 708 l 401 708 q 571 650 511 708 q 631 482 631 592 l 631 306 q 601 276 631 276 l 253 276 q 236 261 236 276 l 236 231 q 255 169 236 188 q 318 150 274 150 l 599 150 q 628 119 628 150 l 628 28 q 622 6 628 13 q 599 0 615 0 m 253 394 l 442 394 q 457 410 457 394 l 457 476 q 439 539 457 521 q 376 557 421 557 l 318 557 q 256 539 274 557 q 238 476 238 521 l 238 410 q 253 394 238 394 z "},"ì":{"ha":343,"x_min":-29,"x_max":260,"o":"m 215 797 l 125 797 q 89 815 103 797 l -24 949 q -29 968 -33 960 q -11 976 -25 976 l 126 976 q 168 950 156 976 l 231 826 q 215 797 244 797 m 83 29 l 83 679 q 111 708 83 708 l 231 708 q 260 679 260 708 l 260 29 q 253 6 260 11 q 232 0 247 0 l 113 0 q 83 29 83 0 z "},"í":{"ha":343,"x_min":83,"x_max":374,"o":"m 218 976 l 354 976 q 374 968 369 976 q 368 949 378 960 l 256 815 q 217 797 240 797 l 128 797 q 114 826 100 797 l 176 950 q 218 976 189 976 m 83 29 l 83 679 q 111 708 83 708 l 231 708 q 260 679 260 708 l 260 29 q 253 6 260 11 q 232 0 247 0 l 113 0 q 83 29 83 0 z "},"î":{"ha":342,"x_min":8,"x_max":333,"o":"m 324 797 l 240 797 q 217 814 222 797 l 171 906 l 126 814 q 101 797 119 797 l 19 797 q 8 815 -1 797 l 96 961 q 126 976 107 976 l 217 976 q 247 961 236 976 l 333 815 q 324 797 343 797 m 83 29 l 83 679 q 111 708 83 708 l 231 708 q 260 679 260 708 l 260 29 q 253 6 260 11 q 232 0 247 0 l 113 0 q 83 29 83 0 z "},"ï":{"ha":342,"x_min":-43,"x_max":386,"o":"m -43 826 l -43 949 q -17 976 -43 976 l 94 976 q 122 950 122 976 l 122 826 q 94 797 122 797 l -17 797 q -43 826 -43 797 m 221 826 l 221 949 q 247 976 221 976 l 358 976 q 386 950 386 976 l 386 826 q 358 797 386 797 l 247 797 q 221 826 221 797 m 83 29 l 83 679 q 111 708 83 708 l 231 708 q 260 679 260 708 l 260 29 q 253 6 260 11 q 232 0 247 0 l 113 0 q 83 29 83 0 z "},"ð":{"ha":704,"x_min":63,"x_max":631,"o":"m 631 429 l 631 226 q 571 59 631 118 q 403 0 511 0 l 292 0 q 122 58 182 0 q 63 226 63 117 l 63 343 q 122 511 63 453 q 292 569 182 569 l 325 569 q 414 551 369 569 q 474 494 458 532 l 479 494 q 432 579 467 544 l 314 711 l 203 618 q 163 625 183 603 l 121 675 q 125 711 107 696 l 232 801 l 154 889 q 160 942 128 917 l 218 985 q 269 979 244 1004 l 344 896 l 458 992 q 497 992 482 1011 l 540 939 q 538 896 558 913 l 428 804 l 560 658 q 615 561 600 613 q 631 429 631 510 m 454 235 l 454 311 q 439 390 454 364 q 371 417 424 417 l 332 417 q 239 335 239 417 l 239 235 q 257 172 239 190 q 319 153 275 153 l 374 153 q 436 172 418 153 q 454 235 454 190 z "},"ñ":{"ha":726,"x_min":76,"x_max":657,"o":"m 186 903 l 186 956 q 201 972 186 972 l 256 972 q 268 969 265 972 q 271 956 271 965 l 271 940 q 275 900 271 910 q 290 890 279 890 q 336 934 301 890 q 421 978 371 978 q 519 872 519 978 l 519 821 q 506 803 519 803 l 451 803 q 436 821 436 803 l 436 833 q 432 875 436 865 q 416 885 428 885 q 374 846 404 885 q 286 797 339 797 q 186 903 186 797 m 224 0 l 106 0 q 76 29 76 0 l 76 679 q 106 708 76 708 l 224 708 q 253 679 253 708 l 253 633 l 258 633 q 394 708 289 708 l 439 708 q 657 482 657 708 l 657 29 q 626 0 657 0 l 510 0 q 481 29 481 0 l 481 474 q 462 537 481 518 q 399 556 443 556 l 349 556 q 253 450 253 556 l 253 29 q 224 0 253 0 z "},"ò":{"ha":707,"x_min":63,"x_max":644,"o":"m 406 797 l 315 797 q 278 815 293 797 l 165 949 q 161 968 157 960 q 179 976 165 976 l 317 976 q 358 950 344 976 l 419 826 q 406 797 435 797 m 415 0 l 292 0 q 122 58 182 0 q 63 226 63 117 l 63 482 q 122 650 63 592 q 292 708 182 708 l 415 708 q 584 649 524 708 q 644 482 644 590 l 644 226 q 584 59 644 118 q 415 0 524 0 m 318 151 l 389 151 q 452 169 433 151 q 471 232 471 188 l 471 476 q 452 539 471 521 q 389 557 433 557 l 318 557 q 256 539 274 557 q 238 476 238 521 l 238 232 q 256 169 238 188 q 318 151 274 151 z "},"ó":{"ha":707,"x_min":63,"x_max":644,"o":"m 396 976 l 533 976 q 553 968 549 976 q 547 949 557 960 l 435 815 q 396 797 417 797 l 307 797 q 293 826 278 797 l 354 950 q 396 976 369 976 m 415 0 l 292 0 q 122 58 182 0 q 63 226 63 117 l 63 482 q 122 650 63 592 q 292 708 182 708 l 415 708 q 584 649 524 708 q 644 482 644 590 l 644 226 q 584 59 644 118 q 415 0 524 0 m 318 151 l 389 151 q 452 169 433 151 q 471 232 471 188 l 471 476 q 452 539 471 521 q 389 557 433 557 l 318 557 q 256 539 274 557 q 238 476 238 521 l 238 232 q 256 169 238 188 q 318 151 274 151 z "},"ô":{"ha":707,"x_min":63,"x_max":644,"o":"m 506 797 l 422 797 q 399 814 404 797 l 353 906 l 308 814 q 283 797 301 797 l 201 797 q 190 815 181 797 l 278 961 q 308 976 289 976 l 399 976 q 429 961 418 976 l 515 815 q 506 797 525 797 m 415 0 l 292 0 q 122 58 182 0 q 63 226 63 117 l 63 482 q 122 650 63 592 q 292 708 182 708 l 415 708 q 584 649 524 708 q 644 482 644 590 l 644 226 q 584 59 644 118 q 415 0 524 0 m 318 151 l 389 151 q 452 169 433 151 q 471 232 471 188 l 471 476 q 452 539 471 521 q 389 557 433 557 l 318 557 q 256 539 274 557 q 238 476 238 521 l 238 232 q 256 169 238 188 q 318 151 274 151 z "},"õ":{"ha":707,"x_min":63,"x_max":644,"o":"m 175 903 l 175 956 q 190 972 175 972 l 244 972 q 257 969 254 972 q 260 956 260 965 l 260 940 q 264 900 260 910 q 279 890 268 890 q 325 934 290 890 q 410 978 360 978 q 508 872 508 978 l 508 821 q 494 803 508 803 l 440 803 q 425 821 425 803 l 425 833 q 421 875 425 865 q 405 885 417 885 q 363 846 393 885 q 275 797 329 797 q 175 903 175 797 m 415 0 l 292 0 q 122 58 182 0 q 63 226 63 117 l 63 482 q 122 650 63 592 q 292 708 182 708 l 415 708 q 584 649 524 708 q 644 482 644 590 l 644 226 q 584 59 644 118 q 415 0 524 0 m 318 151 l 389 151 q 452 169 433 151 q 471 232 471 188 l 471 476 q 452 539 471 521 q 389 557 433 557 l 318 557 q 256 539 274 557 q 238 476 238 521 l 238 232 q 256 169 238 188 q 318 151 274 151 z "},"ö":{"ha":707,"x_min":63,"x_max":644,"o":"m 139 826 l 139 949 q 167 976 139 976 l 276 976 q 304 950 304 976 l 304 826 q 276 797 304 797 l 167 797 q 139 826 139 797 m 403 826 l 403 949 q 431 976 403 976 l 540 976 q 568 950 568 976 l 568 826 q 540 797 568 797 l 431 797 q 403 826 403 797 m 415 0 l 292 0 q 122 58 182 0 q 63 226 63 117 l 63 482 q 122 650 63 592 q 292 708 182 708 l 415 708 q 584 649 524 708 q 644 482 644 590 l 644 226 q 584 59 644 118 q 415 0 524 0 m 318 151 l 389 151 q 452 169 433 151 q 471 232 471 188 l 471 476 q 452 539 471 521 q 389 557 433 557 l 318 557 q 256 539 274 557 q 238 476 238 521 l 238 232 q 256 169 238 188 q 318 151 274 151 z "},"÷":{"ha":644,"x_min":99,"x_max":546,"o":"m 264 222 l 264 290 q 293 318 264 318 l 353 318 q 383 290 383 318 l 383 222 q 353 193 383 193 l 293 193 q 264 222 264 193 m 518 386 l 128 386 q 99 415 99 386 l 99 475 q 128 504 99 504 l 518 504 q 546 475 546 504 l 546 415 q 518 386 546 386 m 264 600 l 264 668 q 293 697 264 697 l 353 697 q 383 668 383 697 l 383 600 q 353 572 383 572 l 293 572 q 264 600 264 572 z "},"ø":{"ha":722,"x_min":29,"x_max":694,"o":"m 653 482 l 653 226 q 592 59 653 118 q 424 0 532 0 l 300 0 q 131 58 192 0 l 93 21 q 51 21 68 0 l 31 42 q 29 85 8 61 l 83 139 q 71 226 71 176 l 71 482 q 131 650 71 592 q 300 708 190 708 l 424 708 q 593 649 533 708 l 631 686 q 672 688 651 708 l 694 667 q 694 624 717 644 l 640 569 q 653 482 653 531 m 247 474 l 247 303 l 467 522 q 394 556 451 556 l 328 556 q 265 537 283 556 q 247 474 247 518 m 475 235 l 475 404 l 257 185 q 328 153 272 153 l 394 153 q 457 172 439 153 q 475 235 475 190 z "},"ù":{"ha":726,"x_min":69,"x_max":650,"o":"m 410 797 l 318 797 q 282 815 296 797 l 169 949 q 164 968 160 960 q 182 976 168 976 l 319 976 q 361 950 347 976 l 424 826 q 410 797 438 797 m 332 0 l 286 0 q 124 58 179 0 q 69 226 69 117 l 69 679 q 99 708 69 708 l 217 708 q 246 679 246 708 l 246 235 q 265 172 246 190 q 326 153 283 153 l 378 153 q 474 258 474 153 l 474 679 q 503 708 474 708 l 619 708 q 650 679 650 708 l 650 29 q 619 0 650 0 l 503 0 q 474 29 474 0 l 474 75 l 468 75 q 414 19 453 38 q 332 0 375 0 z "},"ú":{"ha":726,"x_min":69,"x_max":650,"o":"m 396 976 l 533 976 q 551 968 547 976 q 547 949 556 960 l 433 815 q 394 797 418 797 l 307 797 q 292 826 278 797 l 354 950 q 396 976 367 976 m 332 0 l 286 0 q 124 58 179 0 q 69 226 69 117 l 69 679 q 99 708 69 708 l 217 708 q 246 679 246 708 l 246 235 q 265 172 246 190 q 326 153 283 153 l 378 153 q 474 258 474 153 l 474 679 q 503 708 474 708 l 619 708 q 650 679 650 708 l 650 29 q 619 0 650 0 l 503 0 q 474 29 474 0 l 474 75 l 468 75 q 414 19 453 38 q 332 0 375 0 z "},"û":{"ha":726,"x_min":69,"x_max":650,"o":"m 513 797 l 429 797 q 404 814 411 797 l 360 906 l 315 814 q 290 797 308 797 l 208 797 q 197 815 188 797 l 283 961 q 315 976 294 976 l 404 976 q 436 961 425 976 l 522 815 q 513 797 532 797 m 332 0 l 286 0 q 124 58 179 0 q 69 226 69 117 l 69 679 q 99 708 69 708 l 217 708 q 246 679 246 708 l 246 235 q 265 172 246 190 q 326 153 283 153 l 378 153 q 474 258 474 153 l 474 679 q 503 708 474 708 l 619 708 q 650 679 650 708 l 650 29 q 619 0 650 0 l 503 0 q 474 29 474 0 l 474 75 l 468 75 q 414 19 453 38 q 332 0 375 0 z "},"ü":{"ha":726,"x_min":69,"x_max":650,"o":"m 146 826 l 146 949 q 172 976 146 976 l 283 976 q 310 950 310 976 l 310 826 q 283 797 310 797 l 172 797 q 146 826 146 797 m 410 826 l 410 949 q 436 976 410 976 l 547 976 q 574 950 574 976 l 574 826 q 547 797 574 797 l 436 797 q 410 826 410 797 m 332 0 l 286 0 q 124 58 179 0 q 69 226 69 117 l 69 679 q 99 708 69 708 l 217 708 q 246 679 246 708 l 246 235 q 265 172 246 190 q 326 153 283 153 l 378 153 q 474 258 474 153 l 474 679 q 503 708 474 708 l 619 708 q 650 679 650 708 l 650 29 q 619 0 650 0 l 503 0 q 474 29 474 0 l 474 75 l 468 75 q 414 19 453 38 q 332 0 375 0 z "},"ý":{"ha":656,"x_min":28,"x_max":629,"o":"m 367 976 l 503 976 q 522 968 518 976 q 517 949 526 960 l 404 815 q 365 797 389 797 l 276 797 q 263 826 249 797 l 325 950 q 367 976 339 976 m 192 -235 l 103 -235 q 75 -204 75 -235 l 75 -111 q 103 -81 75 -81 l 132 -81 q 251 -56 219 -81 q 299 38 282 -32 l 225 38 q 190 67 199 38 l 28 679 q 49 708 19 708 l 172 708 q 207 679 200 708 l 326 167 l 332 167 l 450 679 q 485 708 456 708 l 601 708 q 629 678 636 708 l 460 0 q 365 -175 429 -115 q 192 -235 301 -235 z "},"þ":{"ha":732,"x_min":78,"x_max":669,"o":"m 350 153 l 411 153 q 474 172 456 153 q 493 235 493 190 l 493 474 q 474 537 493 518 q 411 556 456 556 l 350 556 q 254 450 254 556 l 254 258 q 350 153 254 153 m 254 75 l 254 -156 q 225 -185 254 -185 l 107 -185 q 78 -156 78 -185 l 78 947 q 107 976 78 976 l 225 976 q 254 947 254 976 l 254 633 l 260 633 q 314 690 275 671 q 396 708 353 708 l 440 708 q 610 650 550 708 q 669 482 669 592 l 669 226 q 610 58 669 117 q 440 0 550 0 l 396 0 q 314 19 353 0 q 260 75 275 38 l 254 75 z "},"ÿ":{"ha":656,"x_min":28,"x_max":629,"o":"m 115 826 l 115 949 q 142 976 115 976 l 253 976 q 281 950 281 976 l 281 826 q 253 797 281 797 l 142 797 q 115 826 115 797 m 379 826 l 379 949 q 406 976 379 976 l 517 976 q 544 950 544 976 l 544 826 q 517 797 544 797 l 406 797 q 379 826 379 797 m 192 -235 l 103 -235 q 75 -204 75 -235 l 75 -111 q 103 -81 75 -81 l 132 -81 q 251 -56 219 -81 q 299 38 282 -32 l 225 38 q 190 67 199 38 l 28 679 q 49 708 19 708 l 172 708 q 207 679 200 708 l 326 167 l 332 167 l 450 679 q 485 708 456 708 l 601 708 q 629 678 636 708 l 460 0 q 365 -175 429 -115 q 192 -235 301 -235 z "},"Ā":{"ha":772,"x_min":33,"x_max":740,"o":"m 524 1017 l 249 1017 q 221 1046 221 1017 l 221 1108 q 249 1138 221 1138 l 524 1138 q 551 1108 551 1138 l 551 1046 q 524 1017 551 1017 m 183 0 l 50 0 q 33 29 25 0 l 253 864 q 294 893 263 893 l 479 893 q 521 864 514 893 l 740 29 q 724 0 749 0 l 590 0 q 569 6 575 0 q 561 29 564 13 l 522 182 l 251 182 l 213 29 q 203 6 210 13 q 183 0 197 0 m 385 725 l 285 324 l 490 324 l 390 725 l 385 725 z "},"ā":{"ha":719,"x_min":63,"x_max":643,"o":"m 529 826 l 256 826 q 226 857 226 826 l 226 918 q 256 947 226 947 l 529 947 q 558 918 558 947 l 558 857 q 529 826 558 826 m 325 0 l 292 0 q 122 58 182 0 q 63 226 63 117 l 63 482 q 122 650 63 592 q 292 708 182 708 l 613 708 q 643 679 643 708 l 643 29 q 613 0 643 0 l 496 0 q 467 29 467 0 l 467 75 l 461 75 q 407 19 446 38 q 325 0 368 0 m 467 258 l 467 540 q 450 556 467 556 l 319 556 q 257 537 275 556 q 239 474 239 518 l 239 235 q 257 172 239 190 q 319 153 275 153 l 371 153 q 467 258 467 153 z "},"Ă":{"ha":772,"x_min":33,"x_max":740,"o":"m 226 1143 q 246 1161 226 1161 l 315 1161 q 333 1143 333 1161 l 333 1131 q 345 1084 333 1097 q 382 1071 357 1071 l 392 1071 q 440 1131 440 1071 l 440 1143 q 458 1161 440 1161 l 528 1161 q 547 1143 547 1161 l 547 1128 q 510 1019 547 1057 q 411 982 474 982 l 363 982 q 263 1019 299 982 q 226 1128 226 1057 l 226 1143 m 183 0 l 50 0 q 33 29 25 0 l 253 864 q 294 893 263 893 l 479 893 q 521 864 514 893 l 740 29 q 724 0 749 0 l 590 0 q 569 6 575 0 q 561 29 564 13 l 522 182 l 251 182 l 213 29 q 203 6 210 13 q 183 0 197 0 m 385 725 l 285 324 l 490 324 l 390 725 l 385 725 z "},"ă":{"ha":719,"x_min":63,"x_max":643,"o":"m 467 258 l 467 540 q 450 556 467 556 l 319 556 q 257 537 275 556 q 239 474 239 518 l 239 235 q 257 172 239 190 q 319 153 275 153 l 371 153 q 467 258 467 153 m 325 0 l 292 0 q 122 58 182 0 q 63 226 63 117 l 63 482 q 122 650 63 592 q 292 708 182 708 l 613 708 q 643 679 643 708 l 643 29 q 613 0 643 0 l 496 0 q 467 29 467 0 l 467 75 l 461 75 q 407 19 446 38 q 325 0 368 0 m 224 943 l 224 958 q 243 976 224 976 l 313 976 q 332 958 332 976 l 332 946 q 343 899 332 913 q 379 886 354 886 l 390 886 q 438 946 438 886 l 438 958 q 457 976 438 976 l 525 976 q 544 958 544 976 l 544 943 q 508 835 544 872 q 408 797 472 797 l 360 797 q 260 835 296 797 q 224 943 224 872 z "},"Ą":{"ha":772,"x_min":33,"x_max":740,"o":"m 724 0 l 629 0 l 578 -79 l 635 -79 q 659 -85 653 -79 q 665 -107 665 -90 q 619 -153 665 -136 q 533 -171 574 -171 q 480 -147 492 -171 q 488 -94 468 -122 l 561 26 l 561 29 l 522 182 l 251 182 l 213 29 q 203 6 210 13 q 183 0 197 0 l 50 0 q 33 29 25 0 l 253 864 q 294 893 263 893 l 479 893 q 521 864 514 893 l 740 29 q 724 0 749 0 m 285 324 l 490 324 l 390 725 l 385 725 l 285 324 z "},"ą":{"ha":719,"x_min":63,"x_max":643,"o":"m 292 708 l 613 708 q 643 679 643 708 l 643 29 q 613 0 643 0 l 526 0 q 496 -55 513 -22 q 483 -87 479 -87 q 543 -81 543 -87 q 564 -104 572 -78 q 517 -149 561 -133 q 439 -164 474 -164 q 401 -131 404 -164 q 415 -74 397 -99 l 467 25 l 467 75 l 461 75 q 407 19 446 38 q 325 0 368 0 l 292 0 q 122 58 182 0 q 63 226 63 117 l 63 482 q 122 650 63 592 q 292 708 182 708 m 467 258 l 467 540 q 450 556 467 556 l 319 556 q 257 537 275 556 q 239 474 239 518 l 239 235 q 257 172 239 190 q 319 153 275 153 l 371 153 q 467 258 467 153 z "},"Ć":{"ha":747,"x_min":76,"x_max":686,"o":"m 457 0 l 306 0 q 136 58 196 0 q 76 226 76 117 l 76 667 q 136 835 76 776 q 306 893 196 893 l 457 893 q 626 834 565 893 q 686 667 686 775 l 686 601 q 656 571 686 571 l 539 571 q 510 601 510 571 l 510 658 q 491 722 510 703 q 428 740 472 740 l 333 740 q 272 722 290 740 q 253 658 253 703 l 253 235 q 272 172 253 190 q 333 153 290 153 l 428 153 q 491 172 472 153 q 510 235 510 190 l 510 292 q 539 322 510 322 l 656 322 q 686 292 686 322 l 686 226 q 626 59 686 118 q 457 0 565 0 m 403 1161 l 540 1161 q 558 1153 554 1161 q 554 1133 563 1144 l 442 1000 q 404 982 426 982 l 314 982 q 299 1011 285 982 l 361 1135 q 403 1161 375 1161 z "},"ć":{"ha":571,"x_min":63,"x_max":528,"o":"m 354 976 l 492 976 q 511 968 507 976 q 506 949 515 960 l 393 815 q 354 797 378 797 l 265 797 q 251 826 236 797 l 313 950 q 354 976 328 976 m 528 124 l 528 28 q 522 6 528 13 q 499 0 515 0 l 292 0 q 122 58 182 0 q 63 226 63 117 l 63 482 q 122 650 63 592 q 292 708 182 708 l 499 708 q 528 679 528 708 l 528 583 q 522 562 528 568 q 499 556 515 556 l 319 556 q 258 537 276 556 q 239 474 239 518 l 239 235 q 258 172 239 190 q 319 153 276 153 l 499 153 q 528 124 528 153 z "},"Ċ":{"ha":747,"x_min":76,"x_max":686,"o":"m 457 0 l 306 0 q 136 58 196 0 q 76 226 76 117 l 76 667 q 136 835 76 776 q 306 893 196 893 l 457 893 q 626 834 565 893 q 686 667 686 775 l 686 601 q 656 571 686 571 l 539 571 q 510 601 510 571 l 510 658 q 491 722 510 703 q 428 740 472 740 l 333 740 q 272 722 290 740 q 253 658 253 703 l 253 235 q 272 172 253 190 q 333 153 290 153 l 428 153 q 491 172 472 153 q 510 235 510 190 l 510 292 q 539 322 510 322 l 656 322 q 686 292 686 322 l 686 226 q 626 59 686 118 q 457 0 565 0 m 293 1013 l 293 1143 q 321 1171 293 1171 l 442 1171 q 469 1144 469 1171 l 469 1013 q 442 983 469 983 l 321 983 q 293 1013 293 983 z "},"ċ":{"ha":571,"x_min":63,"x_max":528,"o":"m 246 821 l 246 953 q 274 981 246 981 l 396 981 q 422 954 422 981 l 422 821 q 396 793 422 793 l 274 793 q 246 821 246 793 m 528 124 l 528 28 q 522 6 528 13 q 499 0 515 0 l 292 0 q 122 58 182 0 q 63 226 63 117 l 63 482 q 122 650 63 592 q 292 708 182 708 l 499 708 q 528 679 528 708 l 528 583 q 522 562 528 568 q 499 556 515 556 l 319 556 q 258 537 276 556 q 239 474 239 518 l 239 235 q 258 172 239 190 q 319 153 276 153 l 499 153 q 528 124 528 153 z "},"Č":{"ha":747,"x_min":76,"x_max":686,"o":"m 457 0 l 306 0 q 136 58 196 0 q 76 226 76 117 l 76 667 q 136 835 76 776 q 306 893 196 893 l 457 893 q 626 834 565 893 q 686 667 686 775 l 686 601 q 656 571 686 571 l 539 571 q 510 601 510 571 l 510 658 q 491 722 510 703 q 428 740 472 740 l 333 740 q 272 722 290 740 q 253 658 253 703 l 253 235 q 272 172 253 190 q 333 153 290 153 l 428 153 q 491 172 472 153 q 510 235 510 190 l 510 292 q 539 322 510 322 l 656 322 q 686 292 686 322 l 686 226 q 626 59 686 118 q 457 0 565 0 m 431 982 l 342 982 q 310 997 321 982 l 224 1143 q 235 1161 214 1161 l 317 1161 q 340 1144 335 1161 l 386 1053 l 431 1144 q 456 1161 438 1161 l 539 1161 q 549 1143 558 1161 l 463 997 q 431 982 451 982 z "},"č":{"ha":571,"x_min":63,"x_max":528,"o":"m 289 797 q 258 813 269 797 l 172 958 q 183 976 163 976 l 265 976 q 289 960 283 976 l 335 868 l 379 960 q 404 976 386 976 l 486 976 q 497 958 507 976 l 410 813 q 379 797 399 797 l 289 797 m 528 124 l 528 28 q 522 6 528 13 q 499 0 515 0 l 292 0 q 122 58 182 0 q 63 226 63 117 l 63 482 q 122 650 63 592 q 292 708 182 708 l 499 708 q 528 679 528 708 l 528 583 q 522 562 528 568 q 499 556 515 556 l 319 556 q 258 537 276 556 q 239 474 239 518 l 239 235 q 258 172 239 190 q 319 153 276 153 l 499 153 q 528 124 528 153 z "},"Ď":{"ha":768,"x_min":90,"x_max":692,"o":"m 338 982 q 307 997 318 982 l 219 1143 q 232 1161 210 1161 l 313 1161 q 338 1144 331 1161 l 382 1053 l 428 1144 q 453 1161 435 1161 l 535 1161 q 544 1143 554 1161 l 458 997 q 428 982 447 982 l 338 982 m 282 153 l 433 153 q 497 172 478 153 q 515 235 515 190 l 515 658 q 497 722 515 703 q 433 740 478 740 l 282 740 q 267 725 267 740 l 267 168 q 282 153 267 153 m 90 29 l 90 864 q 119 893 90 893 l 463 893 q 631 834 571 893 q 692 667 692 775 l 692 226 q 631 59 692 118 q 463 0 571 0 l 119 0 q 90 29 90 0 z "},"ď":{"ha":881,"x_min":63,"x_max":882,"o":"m 882 950 l 882 908 q 850 799 882 860 l 778 658 q 751 644 767 644 q 728 672 728 644 l 728 949 q 754 976 728 976 l 856 976 q 882 950 882 976 m 336 0 l 279 0 q 117 58 172 0 q 63 226 63 117 l 63 482 q 117 650 63 592 q 279 708 172 708 l 336 708 q 418 690 379 708 q 472 633 457 671 l 478 633 l 478 947 q 507 976 478 976 l 625 976 q 654 947 654 976 l 654 29 q 625 0 654 0 l 507 0 q 478 29 478 0 l 478 75 l 472 75 q 418 19 457 38 q 336 0 379 0 m 478 258 l 478 450 q 382 556 478 556 l 319 556 q 257 537 275 556 q 239 474 239 518 l 239 235 q 257 172 239 190 q 319 153 275 153 l 382 153 q 478 258 478 153 z "},"Đ":{"ha":786,"x_min":29,"x_max":711,"o":"m 301 153 l 453 153 q 516 172 497 153 q 535 235 535 190 l 535 658 q 516 722 535 703 q 453 740 497 740 l 301 740 q 286 725 286 740 l 286 575 q 301 558 286 558 l 407 558 q 436 529 436 558 l 436 457 q 430 435 436 442 q 407 429 424 429 l 301 429 q 286 414 286 429 l 286 168 q 301 153 286 153 m 482 0 l 139 0 q 110 29 110 0 l 110 414 q 94 429 110 429 l 58 429 q 35 435 42 429 q 29 457 29 442 l 29 529 q 58 558 29 558 l 94 558 q 110 575 110 558 l 110 864 q 139 893 110 893 l 482 893 q 651 835 592 893 q 711 667 711 776 l 711 226 q 651 58 711 117 q 482 0 592 0 z "},"đ":{"ha":782,"x_min":63,"x_max":775,"o":"m 336 0 l 292 0 q 122 58 182 0 q 63 226 63 117 l 63 408 q 122 576 63 518 q 292 635 182 635 l 336 635 q 418 615 379 635 q 472 558 457 596 l 478 558 l 478 725 q 461 742 478 742 l 281 742 q 258 748 264 742 q 253 769 253 754 l 253 842 q 281 871 253 871 l 461 871 q 478 888 478 871 l 478 947 q 507 976 478 976 l 625 976 q 654 947 654 976 l 654 888 q 671 871 654 871 l 746 871 q 775 842 775 871 l 775 769 q 769 748 775 754 q 746 742 763 742 l 671 742 q 654 725 654 742 l 654 29 q 625 0 654 0 l 507 0 q 478 29 478 0 l 478 75 l 472 75 q 418 19 457 38 q 336 0 379 0 m 478 258 l 478 376 q 382 481 478 481 l 319 481 q 257 463 275 481 q 239 400 239 444 l 239 235 q 257 172 239 190 q 319 153 275 153 l 382 153 q 478 258 478 153 z "},"Ē":{"ha":665,"x_min":90,"x_max":601,"o":"m 483 1017 l 208 1017 q 181 1046 181 1017 l 181 1108 q 208 1138 181 1138 l 483 1138 q 511 1108 511 1138 l 511 1046 q 483 1017 511 1017 m 574 0 l 119 0 q 90 29 90 0 l 90 864 q 119 893 90 893 l 574 893 q 601 864 601 893 l 601 769 q 574 740 601 740 l 283 740 q 267 725 267 740 l 267 544 q 283 529 267 529 l 521 529 q 550 500 550 529 l 550 406 q 521 376 550 376 l 283 376 q 267 361 267 376 l 267 168 q 283 153 267 153 l 574 153 q 601 124 601 153 l 601 29 q 574 0 601 0 z "},"ē":{"ha":686,"x_min":63,"x_max":631,"o":"m 490 826 l 217 826 q 188 857 188 826 l 188 918 q 217 947 188 947 l 490 947 q 519 918 519 947 l 519 857 q 490 826 519 826 m 599 0 l 292 0 q 122 58 182 0 q 63 226 63 117 l 63 482 q 122 650 63 592 q 292 708 182 708 l 401 708 q 571 650 511 708 q 631 482 631 592 l 631 306 q 601 276 631 276 l 253 276 q 236 261 236 276 l 236 231 q 255 169 236 188 q 318 150 274 150 l 599 150 q 628 119 628 150 l 628 28 q 622 6 628 13 q 599 0 615 0 m 253 394 l 442 394 q 457 410 457 394 l 457 476 q 439 539 457 521 q 376 557 421 557 l 318 557 q 256 539 274 557 q 238 476 238 521 l 238 410 q 253 394 238 394 z "},"Ĕ":{"ha":665,"x_min":90,"x_max":601,"o":"m 185 1143 q 204 1161 185 1161 l 274 1161 q 293 1143 293 1161 l 293 1131 q 304 1084 293 1097 q 340 1071 315 1071 l 350 1071 q 399 1131 399 1071 l 399 1143 q 418 1161 399 1161 l 486 1161 q 506 1143 506 1161 l 506 1128 q 469 1019 506 1057 q 369 982 433 982 l 321 982 q 221 1019 257 982 q 185 1128 185 1057 l 185 1143 m 574 0 l 119 0 q 90 29 90 0 l 90 864 q 119 893 90 893 l 574 893 q 601 864 601 893 l 601 769 q 574 740 601 740 l 283 740 q 267 725 267 740 l 267 544 q 283 529 267 529 l 521 529 q 550 500 550 529 l 550 406 q 521 376 550 376 l 283 376 q 267 361 267 376 l 267 168 q 283 153 267 153 l 574 153 q 601 124 601 153 l 601 29 q 574 0 601 0 z "},"ĕ":{"ha":686,"x_min":63,"x_max":631,"o":"m 253 394 l 442 394 q 457 410 457 394 l 457 476 q 439 539 457 521 q 376 557 421 557 l 318 557 q 256 539 274 557 q 238 476 238 521 l 238 410 q 253 394 238 394 m 599 0 l 292 0 q 122 58 182 0 q 63 226 63 117 l 63 482 q 122 650 63 592 q 292 708 182 708 l 401 708 q 571 650 511 708 q 631 482 631 592 l 631 306 q 601 276 631 276 l 253 276 q 236 261 236 276 l 236 231 q 255 169 236 188 q 318 150 274 150 l 599 150 q 628 119 628 150 l 628 28 q 622 6 628 13 q 599 0 615 0 m 193 943 l 193 958 q 213 976 193 976 l 282 976 q 300 958 300 976 l 300 946 q 312 899 300 913 q 349 886 324 886 l 358 886 q 407 946 407 886 l 407 958 q 425 976 407 976 l 494 976 q 514 958 514 976 l 514 943 q 477 835 514 872 q 378 797 440 797 l 329 797 q 229 835 265 797 q 193 943 193 872 z "},"Ė":{"ha":669,"x_min":90,"x_max":601,"o":"m 258 1013 l 258 1143 q 286 1171 258 1171 l 408 1171 q 435 1144 435 1171 l 435 1013 q 408 983 435 983 l 286 983 q 258 1013 258 983 m 574 0 l 119 0 q 90 29 90 0 l 90 864 q 119 893 90 893 l 574 893 q 601 864 601 893 l 601 769 q 574 740 601 740 l 283 740 q 267 725 267 740 l 267 544 q 283 529 267 529 l 521 529 q 550 500 550 529 l 550 406 q 521 376 550 376 l 283 376 q 267 361 267 376 l 267 168 q 283 153 267 153 l 574 153 q 601 124 601 153 l 601 29 q 574 0 601 0 z "},"ė":{"ha":686,"x_min":63,"x_max":631,"o":"m 267 821 l 267 953 q 293 981 267 981 l 415 981 q 443 954 443 981 l 443 821 q 415 793 443 793 l 293 793 q 267 821 267 793 m 599 0 l 292 0 q 122 58 182 0 q 63 226 63 117 l 63 482 q 122 650 63 592 q 292 708 182 708 l 401 708 q 571 650 511 708 q 631 482 631 592 l 631 306 q 601 276 631 276 l 253 276 q 236 261 236 276 l 236 231 q 255 169 236 188 q 318 150 274 150 l 599 150 q 628 119 628 150 l 628 28 q 622 6 628 13 q 599 0 615 0 m 253 394 l 442 394 q 457 410 457 394 l 457 476 q 439 539 457 521 q 376 557 421 557 l 318 557 q 256 539 274 557 q 238 476 238 521 l 238 410 q 253 394 238 394 z "},"Ę":{"ha":665,"x_min":90,"x_max":601,"o":"m 574 740 l 283 740 q 267 725 267 740 l 267 544 q 283 529 267 529 l 521 529 q 550 500 550 529 l 550 406 q 521 376 550 376 l 283 376 q 267 361 267 376 l 267 168 q 283 153 267 153 l 574 153 q 601 124 601 153 l 601 29 q 574 0 601 0 l 518 0 l 465 -79 l 524 -79 q 547 -85 540 -79 q 553 -107 553 -90 q 507 -153 553 -136 q 420 -171 461 -171 q 368 -147 379 -171 q 376 -94 357 -122 l 435 0 l 119 0 q 90 29 90 0 l 90 864 q 119 893 90 893 l 574 893 q 601 864 601 893 l 601 769 q 574 740 601 740 z "},"ę":{"ha":686,"x_min":63,"x_max":631,"o":"m 601 276 l 253 276 q 236 261 236 276 l 236 231 q 255 169 236 188 q 318 150 274 150 l 599 150 q 628 119 628 150 l 628 28 q 622 6 628 13 q 599 0 615 0 l 528 0 q 515 -24 521 -11 q 500 -53 508 -36 q 485 -87 482 -87 q 546 -81 546 -87 q 564 -85 558 -79 q 565 -104 569 -92 q 520 -149 564 -133 q 442 -164 476 -164 q 403 -131 407 -164 q 418 -74 400 -99 l 456 0 l 292 0 q 122 58 182 0 q 63 226 63 117 l 63 482 q 122 650 63 592 q 292 708 182 708 l 401 708 q 571 650 511 708 q 631 482 631 592 l 631 306 q 601 276 631 276 m 238 476 l 238 410 q 253 394 238 394 l 442 394 q 457 410 457 394 l 457 476 q 439 539 457 521 q 376 557 421 557 l 318 557 q 256 539 274 557 q 238 476 238 521 z "},"Ě":{"ha":665,"x_min":90,"x_max":601,"o":"m 310 982 q 279 997 290 982 l 193 1143 q 204 1161 183 1161 l 285 1161 q 310 1144 303 1161 l 356 1053 l 400 1144 q 425 1161 407 1161 l 507 1161 q 518 1143 528 1161 l 431 997 q 400 982 419 982 l 310 982 m 574 0 l 119 0 q 90 29 90 0 l 90 864 q 119 893 90 893 l 574 893 q 601 864 601 893 l 601 769 q 574 740 601 740 l 283 740 q 267 725 267 740 l 267 544 q 283 529 267 529 l 521 529 q 550 500 550 529 l 550 406 q 521 376 550 376 l 283 376 q 267 361 267 376 l 267 168 q 283 153 267 153 l 574 153 q 601 124 601 153 l 601 29 q 574 0 601 0 z "},"ě":{"ha":686,"x_min":63,"x_max":631,"o":"m 308 797 q 278 813 289 797 l 192 958 q 203 976 182 976 l 285 976 q 308 960 303 976 l 354 868 l 399 960 q 424 976 406 976 l 506 976 q 517 958 526 976 l 429 813 q 399 797 418 797 l 308 797 m 599 0 l 292 0 q 122 58 182 0 q 63 226 63 117 l 63 482 q 122 650 63 592 q 292 708 182 708 l 401 708 q 571 650 511 708 q 631 482 631 592 l 631 306 q 601 276 631 276 l 253 276 q 236 261 236 276 l 236 231 q 255 169 236 188 q 318 150 274 150 l 599 150 q 628 119 628 150 l 628 28 q 622 6 628 13 q 599 0 615 0 m 253 394 l 442 394 q 457 410 457 394 l 457 476 q 439 539 457 521 q 376 557 421 557 l 318 557 q 256 539 274 557 q 238 476 238 521 l 238 410 q 253 394 238 394 z "},"Ĝ":{"ha":757,"x_min":76,"x_max":681,"o":"m 535 982 l 451 982 q 426 999 433 982 l 382 1090 l 336 999 q 313 982 331 982 l 231 982 q 219 1000 210 982 l 306 1146 q 336 1161 317 1161 l 426 1161 q 458 1146 447 1161 l 544 1000 q 535 982 554 982 m 453 0 l 306 0 q 136 58 196 0 q 76 226 76 117 l 76 667 q 136 835 76 776 q 306 893 196 893 l 453 893 q 621 834 561 893 q 681 667 681 775 l 681 625 q 651 594 681 594 l 533 594 q 504 625 504 594 l 504 658 q 486 722 504 703 q 424 740 468 740 l 333 740 q 272 722 290 740 q 253 658 253 703 l 253 235 q 272 172 253 190 q 333 153 290 153 l 424 153 q 486 172 468 153 q 504 235 504 190 l 504 322 q 489 338 504 338 l 406 338 q 376 367 376 338 l 376 461 q 406 490 376 490 l 649 490 q 681 458 681 490 l 681 226 q 621 59 681 118 q 453 0 561 0 z "},"ĝ":{"ha":721,"x_min":64,"x_max":644,"o":"m 532 797 l 450 797 q 425 814 432 797 l 381 906 l 335 814 q 311 797 329 797 l 229 797 q 218 815 208 797 l 304 961 q 335 976 315 976 l 425 976 q 456 961 444 976 l 543 815 q 532 797 553 797 m 326 32 l 281 32 q 119 90 174 32 q 64 258 64 149 l 64 482 q 124 650 64 592 q 293 708 183 708 l 614 708 q 644 679 644 708 l 644 -6 q 584 -172 644 -114 q 415 -231 524 -231 l 149 -231 q 126 -224 132 -231 q 119 -203 119 -218 l 119 -107 q 149 -78 119 -78 l 386 -78 q 449 -59 431 -78 q 468 3 468 -40 l 468 108 l 463 108 q 408 51 447 71 q 326 32 369 32 m 468 290 l 468 540 q 451 556 468 556 l 321 556 q 258 537 276 556 q 240 474 240 518 l 240 267 q 258 204 240 222 q 321 186 276 186 l 372 186 q 468 290 468 186 z "},"Ğ":{"ha":757,"x_min":76,"x_max":681,"o":"m 218 1143 q 238 1161 218 1161 l 307 1161 q 326 1143 326 1161 l 326 1131 q 338 1084 326 1097 q 374 1071 349 1071 l 385 1071 q 432 1131 432 1071 l 432 1143 q 451 1161 432 1161 l 519 1161 q 539 1143 539 1161 l 539 1128 q 503 1019 539 1057 q 403 982 467 982 l 354 982 q 255 1019 292 982 q 218 1128 218 1057 l 218 1143 m 453 0 l 306 0 q 136 58 196 0 q 76 226 76 117 l 76 667 q 136 835 76 776 q 306 893 196 893 l 453 893 q 621 834 561 893 q 681 667 681 775 l 681 625 q 651 594 681 594 l 533 594 q 504 625 504 594 l 504 658 q 486 722 504 703 q 424 740 468 740 l 333 740 q 272 722 290 740 q 253 658 253 703 l 253 235 q 272 172 253 190 q 333 153 290 153 l 424 153 q 486 172 468 153 q 504 235 504 190 l 504 322 q 489 338 504 338 l 406 338 q 376 367 376 338 l 376 461 q 406 490 376 490 l 649 490 q 681 458 681 490 l 681 226 q 621 59 681 118 q 453 0 561 0 z "},"ğ":{"ha":721,"x_min":64,"x_max":644,"o":"m 468 290 l 468 540 q 451 556 468 556 l 321 556 q 258 537 276 556 q 240 474 240 518 l 240 267 q 258 204 240 222 q 321 186 276 186 l 372 186 q 468 290 468 186 m 326 32 l 281 32 q 119 90 174 32 q 64 258 64 149 l 64 482 q 124 650 64 592 q 293 708 183 708 l 614 708 q 644 679 644 708 l 644 -6 q 584 -172 644 -114 q 415 -231 524 -231 l 149 -231 q 126 -224 132 -231 q 119 -203 119 -218 l 119 -107 q 149 -78 119 -78 l 386 -78 q 449 -59 431 -78 q 468 3 468 -40 l 468 108 l 463 108 q 408 51 447 71 q 326 32 369 32 m 228 943 l 228 958 q 247 976 228 976 l 315 976 q 335 958 335 976 l 335 946 q 347 899 335 913 q 383 886 358 886 l 393 886 q 440 946 440 886 l 440 958 q 460 976 440 976 l 529 976 q 549 958 549 976 l 549 943 q 512 835 549 872 q 411 797 475 797 l 364 797 q 264 835 300 797 q 228 943 228 872 z "},"Ġ":{"ha":757,"x_min":76,"x_max":681,"o":"m 290 1013 l 290 1143 q 318 1171 290 1171 l 440 1171 q 467 1144 467 1171 l 467 1013 q 440 983 467 983 l 318 983 q 290 1013 290 983 m 453 0 l 306 0 q 136 58 196 0 q 76 226 76 117 l 76 667 q 136 835 76 776 q 306 893 196 893 l 453 893 q 621 834 561 893 q 681 667 681 775 l 681 625 q 651 594 681 594 l 533 594 q 504 625 504 594 l 504 658 q 486 722 504 703 q 424 740 468 740 l 333 740 q 272 722 290 740 q 253 658 253 703 l 253 235 q 272 172 253 190 q 333 153 290 153 l 424 153 q 486 172 468 153 q 504 235 504 190 l 504 322 q 489 338 504 338 l 406 338 q 376 367 376 338 l 376 461 q 406 490 376 490 l 649 490 q 681 458 681 490 l 681 226 q 621 59 681 118 q 453 0 561 0 z "},"ġ":{"ha":721,"x_min":64,"x_max":644,"o":"m 292 821 l 292 953 q 319 981 292 981 l 442 981 q 468 954 468 981 l 468 821 q 442 793 468 793 l 319 793 q 292 821 292 793 m 326 32 l 281 32 q 119 90 174 32 q 64 258 64 149 l 64 482 q 124 650 64 592 q 293 708 183 708 l 614 708 q 644 679 644 708 l 644 -6 q 584 -172 644 -114 q 415 -231 524 -231 l 149 -231 q 126 -224 132 -231 q 119 -203 119 -218 l 119 -107 q 149 -78 119 -78 l 386 -78 q 449 -59 431 -78 q 468 3 468 -40 l 468 108 l 463 108 q 408 51 447 71 q 326 32 369 32 m 468 290 l 468 540 q 451 556 468 556 l 321 556 q 258 537 276 556 q 240 474 240 518 l 240 267 q 258 204 240 222 q 321 186 276 186 l 372 186 q 468 290 468 186 z "},"Ģ":{"ha":757,"x_min":76,"x_max":681,"o":"m 472 -71 l 472 -136 q 440 -222 472 -185 l 367 -317 q 342 -331 356 -331 q 317 -303 317 -331 l 317 -72 q 344 -44 317 -44 l 444 -44 q 472 -71 472 -44 m 453 0 l 306 0 q 136 58 196 0 q 76 226 76 117 l 76 667 q 136 835 76 776 q 306 893 196 893 l 453 893 q 621 834 561 893 q 681 667 681 775 l 681 625 q 651 594 681 594 l 533 594 q 504 625 504 594 l 504 658 q 486 722 504 703 q 424 740 468 740 l 333 740 q 272 722 290 740 q 253 658 253 703 l 253 235 q 272 172 253 190 q 333 153 290 153 l 424 153 q 486 172 468 153 q 504 235 504 190 l 504 322 q 489 338 504 338 l 406 338 q 376 367 376 338 l 376 461 q 406 490 376 490 l 649 490 q 681 458 681 490 l 681 226 q 621 59 681 118 q 453 0 561 0 z "},"ģ":{"ha":721,"x_min":64,"x_max":644,"o":"m 326 32 l 281 32 q 119 90 174 32 q 64 258 64 149 l 64 482 q 124 650 64 592 q 293 708 183 708 l 614 708 q 644 679 644 708 l 644 -6 q 584 -172 644 -114 q 415 -231 524 -231 l 149 -231 q 126 -224 132 -231 q 119 -203 119 -218 l 119 -107 q 149 -78 119 -78 l 386 -78 q 449 -59 431 -78 q 468 3 468 -40 l 468 108 l 463 108 q 408 51 447 71 q 326 32 369 32 m 468 290 l 468 540 q 451 556 468 556 l 321 556 q 258 537 276 556 q 240 474 240 518 l 240 267 q 258 204 240 222 q 321 186 276 186 l 372 186 q 468 290 468 186 m 306 822 l 306 888 q 338 975 306 936 l 411 1068 q 436 1082 422 1082 q 461 1054 461 1082 l 461 824 q 433 796 461 796 l 333 796 q 306 822 306 796 z "},"ĥ":{"ha":726,"x_min":76,"x_max":657,"o":"m 599 896 l 517 896 q 492 913 500 896 l 447 1004 l 401 913 q 378 896 393 896 l 296 896 q 285 914 275 896 l 371 1060 q 401 1075 381 1075 l 492 1075 q 522 1060 513 1075 l 610 914 q 599 896 619 896 m 224 0 l 106 0 q 76 29 76 0 l 76 947 q 106 976 76 976 l 224 976 q 253 947 253 976 l 253 633 l 258 633 q 394 708 289 708 l 439 708 q 657 482 657 708 l 657 29 q 626 0 657 0 l 510 0 q 481 29 481 0 l 481 474 q 462 537 481 518 q 399 556 443 556 l 349 556 q 253 450 253 556 l 253 29 q 224 0 253 0 z "},"Ħ":{"ha":847,"x_min":29,"x_max":835,"o":"m 268 0 l 151 0 q 121 29 121 0 l 121 593 q 106 610 121 610 l 58 610 q 35 616 42 610 q 29 638 29 622 l 29 710 q 58 739 29 739 l 106 739 q 121 756 121 739 l 121 864 q 151 893 121 893 l 268 893 q 299 864 299 893 l 299 756 q 314 739 299 739 l 550 739 q 564 751 564 739 l 564 864 q 594 893 564 893 l 711 893 q 742 864 742 893 l 742 756 q 758 739 742 739 l 806 739 q 835 710 835 739 l 835 638 q 828 616 835 622 q 806 610 822 610 l 758 610 q 742 593 742 610 l 742 29 q 711 0 742 0 l 594 0 q 564 29 564 0 l 564 331 q 549 346 564 346 l 314 346 q 299 331 299 346 l 299 29 q 268 0 299 0 m 314 499 l 549 499 q 565 515 565 499 l 565 593 q 549 610 565 610 l 314 610 q 299 593 299 610 l 299 515 q 314 499 299 499 z "},"ħ":{"ha":794,"x_min":7,"x_max":719,"o":"m 274 0 l 157 0 q 126 29 126 0 l 126 725 q 111 742 126 742 l 36 742 q 13 747 19 742 q 7 769 7 753 l 7 842 q 36 871 7 871 l 111 871 q 126 888 126 871 l 126 947 q 157 976 126 976 l 274 976 q 304 947 304 976 l 304 888 q 319 871 304 871 l 500 871 q 529 842 529 871 l 529 769 q 523 748 529 754 q 500 742 517 742 l 319 742 q 304 725 304 742 l 304 569 l 310 569 q 363 627 324 608 q 444 646 401 646 l 490 646 q 659 587 599 646 q 719 419 719 528 l 719 29 q 689 0 719 0 l 572 0 q 542 29 542 0 l 542 411 q 524 474 542 456 q 461 493 506 493 l 399 493 q 304 388 304 493 l 304 29 q 274 0 304 0 z "},"Ĩ":{"ha":369,"x_min":19,"x_max":353,"o":"m 118 975 q 19 1081 19 975 l 19 1135 q 33 1150 19 1150 l 89 1150 q 103 1135 103 1150 l 103 1118 q 108 1078 103 1088 q 123 1068 113 1068 q 169 1113 133 1068 q 253 1157 206 1157 q 353 1050 353 1157 l 353 999 q 338 981 353 981 l 283 981 q 268 999 268 981 l 268 1013 q 264 1053 268 1043 q 248 1063 260 1063 q 207 1025 236 1063 q 118 975 171 975 m 274 864 l 274 29 q 244 0 274 0 l 126 0 q 97 29 97 0 l 97 864 q 126 893 97 893 l 244 893 q 274 864 274 893 z "},"ĩ":{"ha":343,"x_min":6,"x_max":339,"o":"m 6 903 l 6 956 q 19 972 6 972 l 75 972 q 89 956 89 972 l 89 940 q 94 900 89 910 q 109 890 99 890 q 155 934 119 890 q 239 978 190 978 q 339 872 339 978 l 339 821 q 324 803 339 803 l 269 803 q 254 821 254 803 l 254 833 q 250 875 254 865 q 235 885 246 885 q 218 878 225 885 q 193 846 211 871 q 104 797 157 797 q 6 903 6 797 m 83 29 l 83 679 q 111 708 83 708 l 231 708 q 260 679 260 708 l 260 29 q 253 6 260 11 q 232 0 247 0 l 113 0 q 83 29 83 0 z "},"Ī":{"ha":369,"x_min":19,"x_max":351,"o":"m 322 1017 l 49 1017 q 19 1046 19 1017 l 19 1108 q 49 1138 19 1138 l 322 1138 q 351 1108 351 1138 l 351 1046 q 322 1017 351 1017 m 274 864 l 274 29 q 244 0 274 0 l 126 0 q 97 29 97 0 l 97 864 q 126 893 97 893 l 244 893 q 274 864 274 893 z "},"ī":{"ha":342,"x_min":6,"x_max":336,"o":"m 308 826 l 33 826 q 6 857 6 826 l 6 918 q 33 947 6 947 l 308 947 q 336 918 336 947 l 336 857 q 308 826 336 826 m 83 29 l 83 679 q 111 708 83 708 l 231 708 q 260 679 260 708 l 260 29 q 253 6 260 11 q 232 0 247 0 l 113 0 q 83 29 83 0 z "},"Ĭ":{"ha":371,"x_min":25,"x_max":346,"o":"m 25 1143 q 44 1161 25 1161 l 114 1161 q 133 1143 133 1161 l 133 1131 q 144 1084 133 1097 q 181 1071 156 1071 l 192 1071 q 239 1131 239 1071 l 239 1143 q 258 1161 239 1161 l 326 1161 q 346 1143 346 1161 l 346 1128 q 310 1019 346 1057 q 210 982 274 982 l 161 982 q 61 1019 97 982 q 25 1128 25 1057 l 25 1143 m 274 864 l 274 29 q 244 0 274 0 l 126 0 q 97 29 97 0 l 97 864 q 126 893 97 893 l 244 893 q 274 864 274 893 z "},"ĭ":{"ha":343,"x_min":11,"x_max":332,"o":"m 83 29 l 83 679 q 111 708 83 708 l 231 708 q 260 679 260 708 l 260 29 q 253 6 260 11 q 232 0 247 0 l 113 0 q 83 29 83 0 m 11 943 l 11 958 q 31 976 11 976 l 100 976 q 119 958 119 976 l 119 946 q 131 899 119 913 q 167 886 142 886 l 178 886 q 225 946 225 886 l 225 958 q 244 976 225 976 l 313 976 q 332 958 332 976 l 332 943 q 296 835 332 872 q 196 797 260 797 l 147 797 q 47 835 83 797 q 11 943 11 872 z "},"Į":{"ha":371,"x_min":86,"x_max":274,"o":"m 244 0 l 236 0 l 183 -79 l 242 -79 q 265 -85 258 -79 q 271 -107 271 -90 q 225 -153 271 -136 q 138 -171 179 -171 q 86 -147 97 -171 q 94 -94 75 -122 l 151 0 l 126 0 q 97 29 97 0 l 97 864 q 126 893 97 893 l 244 893 q 274 864 274 893 l 274 29 q 244 0 274 0 z "},"į":{"ha":343,"x_min":83,"x_max":260,"o":"m 111 976 l 232 976 q 260 950 260 976 l 260 828 q 232 800 260 800 l 111 800 q 83 828 83 800 l 83 949 q 111 976 83 976 m 111 708 l 231 708 q 260 679 260 708 l 260 29 q 253 6 260 11 q 232 0 247 0 l 211 0 q 198 -24 204 -11 q 183 -53 192 -36 q 168 -87 165 -87 q 229 -81 229 -87 q 247 -85 242 -79 q 249 -104 253 -92 q 203 -149 247 -133 q 125 -164 160 -164 q 87 -131 90 -164 q 101 -74 83 -99 l 139 0 l 113 0 q 83 29 83 0 l 83 679 q 111 708 83 708 z "},"İ":{"ha":371,"x_min":97,"x_max":274,"o":"m 274 864 l 274 29 q 244 0 274 0 l 126 0 q 97 29 97 0 l 97 864 q 126 893 97 893 l 244 893 q 274 864 274 893 m 97 1006 l 97 1125 q 125 1153 97 1153 l 246 1153 q 274 1126 274 1153 l 274 1006 q 246 976 274 976 l 125 976 q 97 1006 97 976 z "},"ı":{"ha":356,"x_min":89,"x_max":265,"o":"m 89 29 l 89 679 q 117 708 89 708 l 236 708 q 265 679 265 708 l 265 29 q 259 6 265 11 q 238 0 253 0 l 118 0 q 89 29 89 0 z "},"Ĳ":{"ha":1047,"x_min":103,"x_max":958,"o":"m 813 893 l 929 893 q 958 865 958 893 l 958 226 q 899 59 958 118 q 731 0 839 0 l 592 0 q 422 58 482 0 q 363 226 363 117 l 363 357 q 392 386 363 386 l 510 386 q 539 357 539 386 l 539 235 q 558 172 539 190 q 619 153 576 153 l 701 153 q 764 172 746 153 q 782 235 782 190 l 782 864 q 813 893 782 893 m 279 864 l 279 29 q 250 0 279 0 l 132 0 q 103 29 103 0 l 103 864 q 132 893 103 893 l 250 893 q 279 864 279 893 z "},"ĳ":{"ha":681,"x_min":83,"x_max":596,"o":"m 83 29 l 83 679 q 111 708 83 708 l 231 708 q 260 679 260 708 l 260 29 q 253 6 260 11 q 232 0 247 0 l 113 0 q 83 29 83 0 m 83 828 l 83 949 q 111 976 83 976 l 232 976 q 260 950 260 976 l 260 828 q 232 800 260 800 l 111 800 q 83 828 83 800 m 419 828 l 419 949 q 447 976 419 976 l 568 976 q 596 950 596 976 l 596 828 q 568 800 596 800 l 447 800 q 419 828 419 800 m 365 -231 l 274 -231 q 244 -201 244 -231 l 244 -107 q 274 -78 244 -78 l 311 -78 q 397 -56 374 -78 q 419 29 419 -33 l 419 679 q 450 708 419 708 l 567 708 q 596 679 596 708 l 596 -3 q 535 -171 596 -111 q 365 -231 474 -231 z "},"Ĵ":{"ha":693,"x_min":44,"x_max":714,"o":"m 494 893 l 611 893 q 640 865 640 893 l 640 226 q 581 59 640 118 q 413 0 521 0 l 274 0 q 104 58 164 0 q 44 226 44 117 l 44 357 q 74 386 44 386 l 192 386 q 221 357 221 386 l 221 235 q 240 172 221 190 q 301 153 258 153 l 383 153 q 446 172 428 153 q 464 235 464 190 l 464 864 q 494 893 464 893 m 704 982 l 621 982 q 597 999 603 982 l 551 1090 l 507 999 q 482 982 500 982 l 400 982 q 389 1000 379 982 l 476 1146 q 507 1161 488 1161 l 597 1161 q 628 1146 617 1161 l 714 1000 q 704 982 724 982 z "},"ĵ":{"ha":338,"x_min":-93,"x_max":329,"o":"m 319 797 l 236 797 q 211 814 218 797 l 167 906 l 121 814 q 97 797 115 797 l 15 797 q 4 815 -6 797 l 90 961 q 122 976 101 976 l 211 976 q 243 961 232 976 l 329 815 q 319 797 339 797 m 29 -231 l -64 -231 q -93 -201 -93 -231 l -93 -107 q -64 -78 -93 -78 l -25 -78 q 60 -56 38 -78 q 83 29 83 -33 l 83 679 q 113 708 83 708 l 231 708 q 260 679 260 708 l 260 -3 q 199 -171 260 -111 q 29 -231 138 -231 z "},"Ķ":{"ha":775,"x_min":90,"x_max":760,"o":"m 494 -71 l 494 -136 q 464 -222 494 -183 l 390 -317 q 364 -331 379 -331 q 340 -303 340 -331 l 340 -72 q 367 -44 340 -44 l 468 -44 q 494 -71 494 -44 m 238 0 l 119 0 q 90 29 90 0 l 90 864 q 119 893 90 893 l 238 893 q 267 864 267 893 l 267 468 l 269 468 q 313 554 281 501 l 524 864 q 578 893 542 893 l 714 893 q 733 884 729 893 q 725 861 736 875 l 461 496 l 756 35 q 759 9 765 18 q 733 0 753 0 l 632 0 q 567 29 583 0 l 354 369 l 267 267 l 267 29 q 238 0 267 0 z "},"ķ":{"ha":656,"x_min":76,"x_max":644,"o":"m 482 708 l 617 708 q 639 699 633 708 q 635 674 644 689 l 450 369 l 450 364 l 643 35 q 644 10 651 21 q 619 0 638 0 l 500 0 q 466 6 476 0 q 444 29 456 11 l 268 339 q 268 385 256 361 l 435 681 q 482 708 450 708 m 224 0 l 106 0 q 76 29 76 0 l 76 947 q 106 976 76 976 l 224 976 q 253 947 253 976 l 253 29 q 224 0 253 0 m 429 -71 l 429 -136 q 399 -222 429 -183 l 325 -317 q 299 -331 311 -331 q 275 -303 275 -331 l 275 -72 q 301 -44 275 -44 l 403 -44 q 429 -71 429 -44 z "},"Ĺ":{"ha":624,"x_min":90,"x_max":604,"o":"m 224 1161 l 361 1161 q 379 1153 375 1161 q 375 1133 383 1144 l 261 1000 q 225 982 247 982 l 135 982 q 119 1011 106 982 l 182 1135 q 224 1161 194 1161 m 576 0 l 119 0 q 90 29 90 0 l 90 864 q 119 893 90 893 l 238 893 q 267 864 267 893 l 267 169 q 283 154 267 154 l 576 154 q 604 124 604 154 l 604 29 q 576 0 604 0 z "},"ĺ":{"ha":338,"x_min":83,"x_max":368,"o":"m 213 1225 l 350 1225 q 368 1217 364 1225 q 364 1197 372 1208 l 251 1064 q 211 1046 233 1046 l 124 1046 q 108 1075 94 1046 l 171 1199 q 213 1225 183 1225 m 231 0 l 113 0 q 83 29 83 0 l 83 947 q 113 976 83 976 l 231 976 q 260 947 260 976 l 260 29 q 231 0 260 0 z "},"Ļ":{"ha":624,"x_min":90,"x_max":604,"o":"m 419 -71 l 419 -136 q 388 -222 419 -182 l 314 -317 q 288 -331 303 -331 q 264 -303 264 -331 l 264 -72 q 290 -44 264 -44 l 392 -44 q 419 -71 419 -44 m 576 0 l 119 0 q 90 29 90 0 l 90 864 q 119 893 90 893 l 238 893 q 267 864 267 893 l 267 169 q 283 154 267 154 l 576 154 q 604 124 604 154 l 604 29 q 576 0 604 0 z "},"ļ":{"ha":343,"x_min":83,"x_max":260,"o":"m 250 -71 l 250 -136 q 218 -222 250 -185 l 146 -317 q 119 -331 132 -331 q 96 -303 96 -331 l 96 -72 q 122 -44 96 -44 l 224 -44 q 250 -71 250 -44 m 231 0 l 113 0 q 83 29 83 0 l 83 947 q 113 976 83 976 l 231 976 q 260 947 260 976 l 260 29 q 231 0 260 0 z "},"Ľ":{"ha":624,"x_min":90,"x_max":604,"o":"m 549 867 l 549 825 q 517 715 549 782 l 443 575 q 417 561 432 561 q 393 589 393 561 l 393 865 q 419 893 393 893 l 521 893 q 549 867 549 893 m 576 0 l 119 0 q 90 29 90 0 l 90 864 q 119 893 90 893 l 238 893 q 267 864 267 893 l 267 169 q 283 154 267 154 l 576 154 q 604 124 604 154 l 604 29 q 576 0 604 0 z "},"ľ":{"ha":496,"x_min":83,"x_max":492,"o":"m 492 950 l 492 908 q 460 799 492 860 l 386 658 q 361 644 376 644 q 336 672 336 644 l 336 949 q 364 976 336 976 l 464 976 q 492 950 492 976 m 231 0 l 113 0 q 83 29 83 0 l 83 947 q 113 976 83 976 l 231 976 q 260 947 260 976 l 260 29 q 231 0 260 0 z "},"Ŀ":{"ha":692,"x_min":101,"x_max":615,"o":"m 588 0 l 131 0 q 101 29 101 0 l 101 864 q 131 893 101 893 l 249 893 q 278 864 278 893 l 278 169 q 294 154 278 154 l 588 154 q 615 124 615 154 l 615 29 q 588 0 615 0 m 576 511 l 576 376 q 550 347 576 347 l 426 347 q 399 378 399 347 l 399 510 q 426 538 399 538 l 550 538 q 576 511 576 538 z "},"ŀ":{"ha":556,"x_min":94,"x_max":532,"o":"m 242 0 l 124 0 q 94 29 94 0 l 94 947 q 124 976 94 976 l 242 976 q 271 947 271 976 l 271 29 q 242 0 271 0 m 532 511 l 532 376 q 506 347 532 347 l 382 347 q 354 378 354 347 l 354 510 q 382 538 354 538 l 506 538 q 532 511 532 538 z "},"Ł":{"ha":718,"x_min":25,"x_max":654,"o":"m 626 0 l 169 0 q 140 29 140 0 l 140 394 l 53 344 q 33 344 42 339 q 25 363 25 349 l 25 453 q 53 496 25 481 l 140 544 l 140 864 q 169 893 140 893 l 288 893 q 317 864 317 893 l 317 646 l 431 710 q 458 693 458 722 l 458 600 q 431 556 458 571 l 317 492 l 317 169 q 333 154 317 154 l 626 154 q 654 124 654 154 l 654 29 q 626 0 654 0 z "},"ł":{"ha":447,"x_min":18,"x_max":428,"o":"m 282 0 l 164 0 q 135 29 135 0 l 135 403 l 46 353 q 26 352 35 347 q 18 371 18 357 l 18 467 q 46 507 18 494 l 135 557 l 135 947 q 164 976 135 976 l 282 976 q 311 947 311 976 l 311 658 l 401 708 q 420 710 413 715 q 428 692 428 706 l 428 597 q 401 554 428 568 l 311 504 l 311 29 q 282 0 311 0 z "},"Ń":{"ha":813,"x_min":90,"x_max":722,"o":"m 443 1161 l 579 1161 q 599 1153 594 1161 q 593 1133 603 1144 l 481 1000 q 444 982 467 982 l 353 982 q 339 1011 325 982 l 401 1135 q 443 1161 414 1161 m 235 0 l 119 0 q 90 29 90 0 l 90 864 q 119 893 90 893 l 224 893 q 263 874 253 893 l 543 347 l 549 347 l 549 864 q 578 893 549 893 l 693 893 q 722 864 722 893 l 722 29 q 693 0 722 0 l 592 0 q 547 28 561 0 l 269 544 l 264 544 l 264 29 q 235 0 264 0 z "},"ń":{"ha":726,"x_min":76,"x_max":657,"o":"m 419 976 l 557 976 q 575 968 571 976 q 571 949 579 960 l 457 815 q 418 797 442 797 l 331 797 q 315 826 301 797 l 378 950 q 419 976 392 976 m 224 0 l 106 0 q 76 29 76 0 l 76 679 q 106 708 76 708 l 224 708 q 253 679 253 708 l 253 633 l 258 633 q 394 708 289 708 l 439 708 q 657 482 657 708 l 657 29 q 626 0 657 0 l 510 0 q 481 29 481 0 l 481 474 q 462 537 481 518 q 399 556 443 556 l 349 556 q 253 450 253 556 l 253 29 q 224 0 253 0 z "},"Ņ":{"ha":813,"x_min":90,"x_max":722,"o":"m 496 -71 l 496 -136 q 464 -222 496 -185 l 390 -317 q 365 -331 379 -331 q 340 -303 340 -331 l 340 -72 q 368 -44 340 -44 l 468 -44 q 496 -71 496 -44 m 235 0 l 119 0 q 90 29 90 0 l 90 864 q 119 893 90 893 l 224 893 q 263 874 253 893 l 543 347 l 549 347 l 549 864 q 578 893 549 893 l 693 893 q 722 864 722 893 l 722 29 q 693 0 722 0 l 592 0 q 547 28 561 0 l 269 544 l 264 544 l 264 29 q 235 0 264 0 z "},"ņ":{"ha":725,"x_min":76,"x_max":657,"o":"m 444 -71 l 444 -136 q 413 -222 444 -185 l 340 -317 q 314 -331 326 -331 q 290 -303 290 -331 l 290 -72 q 317 -44 290 -44 l 418 -44 q 444 -71 444 -44 m 224 0 l 106 0 q 76 29 76 0 l 76 679 q 106 708 76 708 l 224 708 q 253 679 253 708 l 253 633 l 258 633 q 394 708 289 708 l 439 708 q 657 482 657 708 l 657 29 q 626 0 657 0 l 510 0 q 481 29 481 0 l 481 474 q 462 537 481 518 q 399 556 443 556 l 349 556 q 253 450 253 556 l 253 29 q 224 0 253 0 z "},"Ň":{"ha":813,"x_min":90,"x_max":722,"o":"m 235 0 l 119 0 q 90 29 90 0 l 90 864 q 119 893 90 893 l 224 893 q 263 874 253 893 l 543 347 l 549 347 l 549 864 q 578 893 549 893 l 693 893 q 722 864 722 893 l 722 29 q 693 0 722 0 l 592 0 q 547 28 561 0 l 269 544 l 264 544 l 264 29 q 235 0 264 0 m 374 982 q 343 997 354 982 l 256 1143 q 267 1161 246 1161 l 349 1161 q 374 1144 367 1161 l 418 1053 l 464 1144 q 488 1161 469 1161 l 571 1161 q 581 1143 590 1161 l 494 997 q 464 982 483 982 l 374 982 z "},"ň":{"ha":726,"x_min":76,"x_max":657,"o":"m 322 797 q 290 813 301 797 l 204 958 q 215 976 194 976 l 297 976 q 322 960 315 976 l 367 868 l 411 960 q 436 976 418 976 l 519 976 q 529 958 539 976 l 443 813 q 411 797 432 797 l 322 797 m 224 0 l 106 0 q 76 29 76 0 l 76 679 q 106 708 76 708 l 224 708 q 253 679 253 708 l 253 633 l 258 633 q 394 708 289 708 l 439 708 q 657 482 657 708 l 657 29 q 626 0 657 0 l 510 0 q 481 29 481 0 l 481 474 q 462 537 481 518 q 399 556 443 556 l 349 556 q 253 450 253 556 l 253 29 q 224 0 253 0 z "},"Ŋ":{"ha":818,"x_min":101,"x_max":733,"o":"m 556 28 l 283 544 l 278 544 l 278 29 q 249 0 278 0 l 131 0 q 101 29 101 0 l 101 864 q 131 893 101 893 l 238 893 q 275 874 265 893 l 551 347 l 557 347 l 557 864 q 586 893 557 893 l 704 893 q 733 864 733 893 l 733 -11 q 672 -179 733 -119 q 503 -239 611 -239 l 410 -239 q 382 -210 382 -239 l 382 -115 q 410 -86 382 -86 l 449 -86 q 533 -64 511 -86 q 556 21 556 -42 l 556 28 z "},"ŋ":{"ha":726,"x_min":76,"x_max":657,"o":"m 426 -239 l 335 -239 q 306 -210 306 -239 l 306 -115 q 335 -86 306 -86 l 372 -86 q 458 -64 436 -86 q 481 21 481 -42 l 481 474 q 462 537 481 518 q 399 556 443 556 l 349 556 q 253 450 253 556 l 253 29 q 224 0 253 0 l 106 0 q 76 29 76 0 l 76 679 q 106 708 76 708 l 224 708 q 253 679 253 708 l 253 633 l 258 633 q 313 690 274 671 q 394 708 351 708 l 428 708 q 597 649 536 708 q 657 482 657 590 l 657 -11 q 596 -179 657 -119 q 426 -239 535 -239 z "},"Ō":{"ha":767,"x_min":76,"x_max":690,"o":"m 521 1017 l 246 1017 q 218 1046 218 1017 l 218 1108 q 246 1138 218 1138 l 521 1138 q 549 1108 549 1138 l 549 1046 q 521 1017 549 1017 m 333 153 l 432 153 q 495 172 476 153 q 514 235 514 190 l 514 658 q 495 722 514 703 q 432 740 476 740 l 333 740 q 271 722 289 740 q 253 658 253 703 l 253 235 q 271 172 253 190 q 333 153 289 153 m 461 0 l 306 0 q 136 58 196 0 q 76 226 76 117 l 76 667 q 136 835 76 776 q 306 893 196 893 l 461 893 q 631 835 571 893 q 690 667 690 776 l 690 226 q 631 58 690 117 q 461 0 571 0 z "},"ō":{"ha":707,"x_min":63,"x_max":644,"o":"m 490 826 l 217 826 q 188 857 188 826 l 188 918 q 217 947 188 947 l 490 947 q 519 918 519 947 l 519 857 q 490 826 519 826 m 415 0 l 292 0 q 122 58 182 0 q 63 226 63 117 l 63 482 q 122 650 63 592 q 292 708 182 708 l 415 708 q 584 649 524 708 q 644 482 644 590 l 644 226 q 584 59 644 118 q 415 0 524 0 m 318 151 l 389 151 q 452 169 433 151 q 471 232 471 188 l 471 476 q 452 539 471 521 q 389 557 433 557 l 318 557 q 256 539 274 557 q 238 476 238 521 l 238 232 q 256 169 238 188 q 318 151 274 151 z "},"Ŏ":{"ha":767,"x_min":76,"x_max":690,"o":"m 224 1143 q 243 1161 224 1161 l 313 1161 q 332 1143 332 1161 l 332 1131 q 343 1084 332 1097 q 379 1071 354 1071 l 389 1071 q 438 1131 438 1071 l 438 1143 q 457 1161 438 1161 l 525 1161 q 544 1143 544 1161 l 544 1128 q 508 1019 544 1057 q 408 982 472 982 l 360 982 q 260 1019 296 982 q 224 1128 224 1057 l 224 1143 m 333 153 l 432 153 q 495 172 476 153 q 514 235 514 190 l 514 658 q 495 722 514 703 q 432 740 476 740 l 333 740 q 271 722 289 740 q 253 658 253 703 l 253 235 q 271 172 253 190 q 333 153 289 153 m 461 0 l 306 0 q 136 58 196 0 q 76 226 76 117 l 76 667 q 136 835 76 776 q 306 893 196 893 l 461 893 q 631 835 571 893 q 690 667 690 776 l 690 226 q 631 58 690 117 q 461 0 571 0 z "},"ŏ":{"ha":707,"x_min":63,"x_max":644,"o":"m 318 151 l 389 151 q 452 169 433 151 q 471 232 471 188 l 471 476 q 452 539 471 521 q 389 557 433 557 l 318 557 q 256 539 274 557 q 238 476 238 521 l 238 232 q 256 169 238 188 q 318 151 274 151 m 415 0 l 292 0 q 122 58 182 0 q 63 226 63 117 l 63 482 q 122 650 63 592 q 292 708 182 708 l 415 708 q 584 649 524 708 q 644 482 644 590 l 644 226 q 584 59 644 118 q 415 0 524 0 m 193 943 l 193 958 q 213 976 193 976 l 282 976 q 301 958 301 976 l 301 946 q 313 899 301 913 q 349 886 324 886 l 360 886 q 407 946 407 886 l 407 958 q 426 976 407 976 l 494 976 q 514 958 514 976 l 514 943 q 478 835 514 872 q 378 797 442 797 l 329 797 q 230 835 267 797 q 193 943 193 872 z "},"Ő":{"ha":767,"x_min":76,"x_max":690,"o":"m 328 1161 l 418 1161 q 432 1133 450 1161 l 332 1000 q 297 982 318 982 l 239 982 q 225 1011 211 982 l 286 1135 q 328 1161 300 1161 m 540 1161 l 629 1161 q 643 1133 663 1161 l 544 1000 q 508 982 529 982 l 451 982 q 438 1011 422 982 l 499 1135 q 540 1161 511 1161 m 333 153 l 432 153 q 495 172 476 153 q 514 235 514 190 l 514 658 q 495 722 514 703 q 432 740 476 740 l 333 740 q 271 722 289 740 q 253 658 253 703 l 253 235 q 271 172 253 190 q 333 153 289 153 m 461 0 l 306 0 q 136 58 196 0 q 76 226 76 117 l 76 667 q 136 835 76 776 q 306 893 196 893 l 461 893 q 631 835 571 893 q 690 667 690 776 l 690 226 q 631 58 690 117 q 461 0 571 0 z "},"ő":{"ha":707,"x_min":63,"x_max":644,"o":"m 300 976 l 390 976 q 403 949 422 976 l 304 815 q 269 797 290 797 l 211 797 q 197 826 183 797 l 258 950 q 300 976 272 976 m 513 976 l 601 976 q 615 949 635 976 l 517 815 q 481 797 501 797 l 424 797 q 410 826 394 797 l 471 950 q 513 976 483 976 m 415 0 l 292 0 q 122 58 182 0 q 63 226 63 117 l 63 482 q 122 650 63 592 q 292 708 182 708 l 415 708 q 584 649 524 708 q 644 482 644 590 l 644 226 q 584 59 644 118 q 415 0 524 0 m 318 151 l 389 151 q 452 169 433 151 q 471 232 471 188 l 471 476 q 452 539 471 521 q 389 557 433 557 l 318 557 q 256 539 274 557 q 238 476 238 521 l 238 232 q 256 169 238 188 q 318 151 274 151 z "},"Œ":{"ha":1085,"x_min":88,"x_max":1008,"o":"m 88 226 l 88 667 q 147 835 88 776 q 317 893 207 893 l 979 893 q 1008 864 1008 893 l 1008 769 q 979 740 1008 740 l 700 740 q 685 725 685 740 l 685 544 q 700 529 685 529 l 928 529 q 956 500 956 529 l 956 406 q 928 376 956 376 l 700 376 q 685 361 685 376 l 685 168 q 700 153 685 153 l 979 153 q 1008 124 1008 153 l 1008 29 q 979 0 1008 0 l 317 0 q 147 58 207 0 q 88 226 88 117 m 346 153 l 493 153 q 510 168 510 153 l 510 725 q 493 740 510 740 l 346 740 q 283 722 301 740 q 265 658 265 703 l 265 235 q 283 172 265 190 q 346 153 301 153 z "},"œ":{"ha":1093,"x_min":63,"x_max":1036,"o":"m 392 0 l 292 0 q 122 58 182 0 q 63 226 63 117 l 63 482 q 122 650 63 592 q 292 708 182 708 l 381 708 q 568 625 508 708 q 742 708 614 708 l 807 708 q 976 649 915 708 q 1036 482 1036 590 l 1036 306 q 1006 276 1036 276 l 660 276 q 644 261 644 276 l 644 235 q 663 172 644 190 q 725 153 681 153 l 1004 153 q 1032 124 1032 153 l 1032 28 q 1026 6 1032 13 q 1004 0 1021 0 l 731 0 q 614 21 654 0 q 543 90 574 42 q 392 0 514 0 m 660 394 l 843 394 q 860 410 860 394 l 860 474 q 841 537 860 518 q 779 556 822 556 l 725 556 q 663 537 681 556 q 644 474 644 518 l 644 410 q 660 394 644 394 m 319 153 l 386 153 q 449 172 431 153 q 467 235 467 190 l 467 474 q 449 537 467 518 q 386 556 431 556 l 319 556 q 257 537 275 556 q 239 474 239 518 l 239 235 q 257 172 239 190 q 319 153 275 153 z "},"Ŕ":{"ha":760,"x_min":90,"x_max":706,"o":"m 397 1161 l 535 1161 q 553 1153 549 1161 q 549 1133 557 1144 l 435 1000 q 399 982 421 982 l 308 982 q 293 1011 279 982 l 356 1135 q 397 1161 369 1161 m 238 0 l 119 0 q 90 29 90 0 l 90 864 q 119 893 90 893 l 450 893 q 619 833 558 893 q 681 665 681 774 l 681 557 q 557 349 681 400 l 557 343 l 706 33 q 682 0 718 0 l 569 0 q 533 6 544 0 q 515 29 522 11 l 376 329 l 283 329 q 267 314 267 329 l 267 29 q 238 0 267 0 m 282 471 l 418 471 q 483 490 463 471 q 504 550 504 508 l 504 658 q 483 721 504 701 q 418 740 463 740 l 282 740 q 267 725 267 740 l 267 486 q 282 471 267 471 z "},"ŕ":{"ha":485,"x_min":76,"x_max":472,"o":"m 289 976 l 426 976 q 446 968 442 976 q 440 949 450 960 l 328 815 q 289 797 313 797 l 200 797 q 186 826 172 797 l 247 950 q 289 976 263 976 m 224 0 l 106 0 q 76 29 76 0 l 76 679 q 106 708 76 708 l 224 708 q 253 679 253 708 l 253 632 l 258 632 q 313 689 274 669 q 394 708 351 708 l 444 708 q 472 679 472 708 l 472 583 q 466 560 472 567 q 444 556 460 554 l 349 556 q 253 447 253 556 l 253 29 q 224 0 253 0 z "},"Ŗ":{"ha":760,"x_min":90,"x_max":706,"o":"m 478 -71 l 478 -136 q 446 -222 478 -185 l 372 -317 q 347 -331 361 -331 q 322 -303 322 -331 l 322 -72 q 350 -44 322 -44 l 450 -44 q 478 -71 478 -44 m 238 0 l 119 0 q 90 29 90 0 l 90 864 q 119 893 90 893 l 450 893 q 619 833 558 893 q 681 665 681 774 l 681 557 q 557 349 681 400 l 557 343 l 706 33 q 682 0 718 0 l 569 0 q 533 6 544 0 q 515 29 522 11 l 376 329 l 283 329 q 267 314 267 329 l 267 29 q 238 0 267 0 m 282 471 l 418 471 q 483 490 463 471 q 504 550 504 508 l 504 658 q 483 721 504 701 q 418 740 463 740 l 282 740 q 267 725 267 740 l 267 486 q 282 471 267 471 z "},"ŗ":{"ha":485,"x_min":76,"x_max":472,"o":"m 243 -71 l 243 -136 q 211 -222 243 -185 l 139 -317 q 113 -331 125 -331 q 89 -303 89 -331 l 89 -72 q 115 -44 89 -44 l 217 -44 q 243 -71 243 -44 m 224 0 l 106 0 q 76 29 76 0 l 76 679 q 106 708 76 708 l 224 708 q 253 679 253 708 l 253 632 l 258 632 q 313 689 274 669 q 394 708 351 708 l 444 708 q 472 679 472 708 l 472 583 q 466 560 472 567 q 444 556 460 554 l 349 556 q 253 447 253 556 l 253 29 q 224 0 253 0 z "},"Ř":{"ha":760,"x_min":90,"x_max":706,"o":"m 321 982 q 290 997 301 982 l 204 1143 q 215 1161 194 1161 l 297 1161 q 321 1144 315 1161 l 367 1053 l 411 1144 q 436 1161 418 1161 l 519 1161 q 529 1143 539 1161 l 443 997 q 411 982 432 982 l 321 982 m 238 0 l 119 0 q 90 29 90 0 l 90 864 q 119 893 90 893 l 450 893 q 619 833 558 893 q 681 665 681 774 l 681 557 q 557 349 681 400 l 557 343 l 706 33 q 682 0 718 0 l 569 0 q 533 6 544 0 q 515 29 522 11 l 376 329 l 283 329 q 267 314 267 329 l 267 29 q 238 0 267 0 m 282 471 l 418 471 q 483 490 463 471 q 504 550 504 508 l 504 658 q 483 721 504 701 q 418 740 463 740 l 282 740 q 267 725 267 740 l 267 486 q 282 471 267 471 z "},"ř":{"ha":485,"x_min":76,"x_max":472,"o":"m 219 797 q 189 813 200 797 l 103 958 q 114 976 93 976 l 196 976 q 219 960 214 976 l 265 868 l 310 960 q 335 976 317 976 l 417 976 q 428 958 438 976 l 340 813 q 310 797 329 797 l 219 797 m 224 0 l 106 0 q 76 29 76 0 l 76 679 q 106 708 76 708 l 224 708 q 253 679 253 708 l 253 632 l 258 632 q 313 689 274 669 q 394 708 351 708 l 444 708 q 472 679 472 708 l 472 583 q 466 560 472 567 q 444 556 460 554 l 349 556 q 253 447 253 556 l 253 29 q 224 0 253 0 z "},"Ś":{"ha":749,"x_min":67,"x_max":681,"o":"m 68 228 l 68 256 q 97 285 68 285 l 215 285 q 244 256 244 285 l 244 244 q 265 172 244 192 q 342 153 286 153 l 407 153 q 483 174 461 153 q 504 251 504 194 l 504 268 q 472 330 504 308 q 390 356 439 351 q 285 372 342 360 q 181 402 229 383 q 99 476 132 421 q 67 617 67 531 l 67 665 q 128 833 67 774 q 297 893 189 893 l 436 893 q 607 833 546 893 q 668 665 668 774 l 668 639 q 639 610 668 610 l 521 610 q 492 639 492 610 l 492 647 q 471 721 492 701 q 394 740 450 740 l 340 740 q 263 719 283 740 q 243 635 243 697 l 243 608 q 357 533 243 543 q 567 486 475 524 q 648 412 615 465 q 681 275 681 358 l 681 228 q 619 60 681 119 q 450 0 558 0 l 299 0 q 129 60 190 0 q 68 228 68 119 m 392 1161 l 529 1161 q 547 1153 543 1161 q 543 1133 551 1144 l 431 1000 q 393 982 415 982 l 303 982 q 288 1011 274 982 l 350 1135 q 392 1161 364 1161 z "},"ś":{"ha":611,"x_min":49,"x_max":563,"o":"m 317 976 l 454 976 q 472 968 468 976 q 467 949 476 960 l 354 815 q 315 797 339 797 l 226 797 q 213 826 199 797 l 275 950 q 317 976 289 976 m 344 0 l 81 0 q 53 29 53 0 l 53 118 q 58 140 53 133 q 81 146 64 146 l 313 146 q 381 188 381 146 l 381 194 q 324 258 381 228 l 186 335 q 82 413 115 371 q 49 519 49 454 q 100 663 49 617 q 261 708 151 708 l 493 708 q 521 679 521 708 l 521 589 q 515 567 521 574 q 493 561 510 561 l 300 561 q 232 526 232 561 l 232 519 q 292 457 232 489 l 432 374 q 533 294 504 335 q 563 186 563 253 q 344 0 563 0 z "},"Ŝ":{"ha":749,"x_min":67,"x_max":681,"o":"m 68 228 l 68 256 q 97 285 68 285 l 215 285 q 244 256 244 285 l 244 244 q 265 172 244 192 q 342 153 286 153 l 407 153 q 483 174 461 153 q 504 251 504 194 l 504 268 q 472 330 504 308 q 390 356 439 351 q 285 372 342 360 q 181 402 229 383 q 99 476 132 421 q 67 617 67 531 l 67 665 q 128 833 67 774 q 297 893 189 893 l 436 893 q 607 833 546 893 q 668 665 668 774 l 668 639 q 639 610 668 610 l 521 610 q 492 639 492 610 l 492 647 q 471 721 492 701 q 394 740 450 740 l 340 740 q 263 719 283 740 q 243 635 243 697 l 243 608 q 357 533 243 543 q 567 486 475 524 q 648 412 615 465 q 681 275 681 358 l 681 228 q 619 60 681 119 q 450 0 558 0 l 299 0 q 129 60 190 0 q 68 228 68 119 m 528 982 l 444 982 q 419 999 426 982 l 375 1090 l 329 999 q 306 982 324 982 l 224 982 q 213 1000 203 982 l 299 1146 q 331 1161 310 1161 l 419 1161 q 451 1146 440 1161 l 538 1000 q 528 982 547 982 z "},"ŝ":{"ha":611,"x_min":49,"x_max":563,"o":"m 450 797 l 367 797 q 343 814 349 797 l 297 906 l 253 814 q 228 797 246 797 l 146 797 q 135 815 125 797 l 221 961 q 253 976 232 976 l 343 976 q 374 961 363 976 l 460 815 q 450 797 469 797 m 344 0 l 81 0 q 53 29 53 0 l 53 118 q 58 140 53 133 q 81 146 64 146 l 313 146 q 381 188 381 146 l 381 194 q 324 258 381 228 l 186 335 q 82 413 115 371 q 49 519 49 454 q 100 663 49 617 q 261 708 151 708 l 493 708 q 521 679 521 708 l 521 589 q 515 567 521 574 q 493 561 510 561 l 300 561 q 232 526 232 561 l 232 519 q 292 457 232 489 l 432 374 q 533 294 504 335 q 563 186 563 253 q 344 0 563 0 z "},"Ş":{"ha":749,"x_min":67,"x_max":681,"o":"m 243 635 l 243 608 q 357 533 243 543 q 567 486 475 524 q 648 412 615 465 q 681 275 681 358 l 681 228 q 622 63 681 122 q 461 0 564 3 l 415 -46 l 415 -51 q 518 -156 518 -51 l 518 -181 q 388 -278 518 -278 l 325 -278 q 305 -273 310 -278 q 300 -253 300 -268 l 300 -225 q 305 -204 300 -210 q 325 -199 310 -199 l 371 -199 q 421 -192 408 -199 q 433 -167 433 -186 l 433 -164 q 421 -137 433 -143 q 371 -131 408 -131 l 336 -131 q 301 -103 311 -131 q 310 -54 292 -76 l 357 0 l 299 0 q 129 60 190 0 q 68 228 68 119 l 68 256 q 97 285 68 285 l 215 285 q 244 256 244 285 l 244 244 q 265 172 244 192 q 342 153 286 153 l 407 153 q 483 174 461 153 q 504 251 504 194 l 504 268 q 472 330 504 308 q 390 356 439 351 q 285 372 342 360 q 181 402 229 383 q 99 476 132 421 q 67 617 67 531 l 67 665 q 128 833 67 774 q 297 893 189 893 l 436 893 q 607 833 546 893 q 668 665 668 774 l 668 639 q 639 610 668 610 l 521 610 q 492 639 492 610 l 492 647 q 471 721 492 701 q 394 740 450 740 l 340 740 q 263 719 283 740 q 243 635 243 697 z "},"ş":{"ha":611,"x_min":49,"x_max":563,"o":"m 324 -51 q 426 -156 426 -51 l 426 -181 q 296 -278 426 -278 l 233 -278 q 213 -273 217 -278 q 208 -253 208 -268 l 208 -225 q 213 -204 208 -210 q 233 -199 218 -199 l 279 -199 q 329 -192 317 -199 q 342 -167 342 -186 l 342 -164 q 329 -137 342 -143 q 279 -131 317 -131 l 244 -131 q 210 -103 219 -131 q 218 -54 200 -76 l 265 0 l 81 0 q 53 29 53 0 l 53 118 q 58 140 53 133 q 81 146 64 146 l 313 146 q 381 188 381 146 l 381 194 q 324 258 381 228 l 186 335 q 82 413 115 371 q 49 519 49 454 q 100 663 49 617 q 261 708 151 708 l 493 708 q 521 679 521 708 l 521 589 q 515 567 521 574 q 493 561 510 561 l 300 561 q 232 526 232 561 l 232 519 q 292 457 232 489 l 432 374 q 533 294 504 335 q 563 186 563 253 q 371 1 563 11 l 324 -46 l 324 -51 z "},"Š":{"ha":749,"x_min":67,"x_max":681,"o":"m 68 228 l 68 256 q 97 285 68 285 l 215 285 q 244 256 244 285 l 244 244 q 265 172 244 192 q 342 153 286 153 l 407 153 q 483 174 461 153 q 504 251 504 194 l 504 268 q 472 330 504 308 q 390 356 439 351 q 285 372 342 360 q 181 402 229 383 q 99 476 132 421 q 67 617 67 531 l 67 665 q 128 833 67 774 q 297 893 189 893 l 436 893 q 607 833 546 893 q 668 665 668 774 l 668 639 q 639 610 668 610 l 521 610 q 492 639 492 610 l 492 647 q 471 721 492 701 q 394 740 450 740 l 340 740 q 263 719 283 740 q 243 635 243 697 l 243 608 q 357 533 243 543 q 567 486 475 524 q 648 412 615 465 q 681 275 681 358 l 681 228 q 619 60 681 119 q 450 0 558 0 l 299 0 q 129 60 190 0 q 68 228 68 119 m 410 982 l 319 982 q 288 997 299 982 l 201 1143 q 213 1161 192 1161 l 294 1161 q 319 1144 313 1161 l 364 1053 l 410 1144 q 433 1161 415 1161 l 517 1161 q 526 1143 536 1161 l 440 997 q 410 982 429 982 z "},"š":{"ha":611,"x_min":49,"x_max":563,"o":"m 253 797 q 221 813 232 797 l 135 958 q 146 976 125 976 l 228 976 q 253 960 246 976 l 297 868 l 343 960 q 367 976 349 976 l 450 976 q 460 958 469 976 l 374 813 q 343 797 363 797 l 253 797 m 344 0 l 81 0 q 53 29 53 0 l 53 118 q 58 140 53 133 q 81 146 64 146 l 313 146 q 381 188 381 146 l 381 194 q 324 258 381 228 l 186 335 q 82 413 115 371 q 49 519 49 454 q 100 663 49 617 q 261 708 151 708 l 493 708 q 521 679 521 708 l 521 589 q 515 567 521 574 q 493 561 510 561 l 300 561 q 232 526 232 561 l 232 519 q 292 457 232 489 l 432 374 q 533 294 504 335 q 563 186 563 253 q 344 0 563 0 z "},"Ţ":{"ha":615,"x_min":17,"x_max":600,"o":"m 385 -71 l 385 -136 q 354 -222 385 -183 l 281 -317 q 254 -331 269 -331 q 231 -303 231 -331 l 231 -72 q 257 -44 231 -44 l 358 -44 q 385 -71 385 -44 m 367 0 l 250 0 q 219 29 219 0 l 219 725 q 204 740 219 740 l 46 740 q 17 769 17 740 l 17 864 q 46 893 17 893 l 571 893 q 600 864 600 893 l 600 769 q 571 740 600 740 l 413 740 q 396 725 396 740 l 396 29 q 367 0 396 0 z "},"ţ":{"ha":490,"x_min":7,"x_max":451,"o":"m 361 -71 l 361 -136 q 329 -222 361 -185 l 256 -317 q 231 -331 244 -331 q 207 -303 207 -331 l 207 -72 q 233 -44 207 -44 l 335 -44 q 361 -71 361 -44 m 92 556 l 36 556 q 13 561 19 556 q 7 583 7 567 l 7 679 q 36 708 7 708 l 92 708 q 107 724 107 708 l 107 856 q 138 885 107 885 l 254 885 q 283 856 283 885 l 283 724 q 300 708 283 708 l 408 708 q 438 679 438 708 l 438 583 q 431 562 438 568 q 408 556 425 556 l 300 556 q 283 540 283 556 l 283 233 q 303 172 283 190 q 367 153 322 153 l 422 153 q 451 124 451 153 l 451 28 q 445 6 451 13 q 422 0 439 0 l 338 0 q 167 58 228 0 q 107 225 107 117 l 107 540 q 92 556 107 556 z "},"Ť":{"ha":615,"x_min":17,"x_max":600,"o":"m 265 982 q 235 997 246 982 l 147 1143 q 160 1161 138 1161 l 240 1161 q 265 1144 258 1161 l 311 1053 l 356 1144 q 381 1161 363 1161 l 463 1161 q 474 1143 483 1161 l 386 997 q 356 982 375 982 l 265 982 m 367 0 l 250 0 q 219 29 219 0 l 219 725 q 204 740 219 740 l 46 740 q 17 769 17 740 l 17 864 q 46 893 17 893 l 571 893 q 600 864 600 893 l 600 769 q 571 740 600 740 l 413 740 q 396 725 396 740 l 396 29 q 367 0 396 0 z "},"ť":{"ha":650,"x_min":7,"x_max":649,"o":"m 649 867 l 649 825 q 617 715 649 782 l 543 575 q 517 561 532 561 q 493 589 493 561 l 493 865 q 521 893 493 893 l 621 893 q 649 867 649 893 m 92 556 l 36 556 q 13 561 19 556 q 7 583 7 567 l 7 679 q 36 708 7 708 l 92 708 q 107 724 107 708 l 107 856 q 138 885 107 885 l 254 885 q 283 856 283 885 l 283 724 q 300 708 283 708 l 408 708 q 438 679 438 708 l 438 583 q 431 562 438 568 q 408 556 425 556 l 300 556 q 283 540 283 556 l 283 233 q 303 172 283 190 q 367 153 322 153 l 422 153 q 451 124 451 153 l 451 28 q 445 6 451 13 q 422 0 439 0 l 338 0 q 167 58 228 0 q 107 225 107 117 l 107 540 q 92 556 107 556 z "},"Ŧ":{"ha":704,"x_min":39,"x_max":644,"o":"m 400 0 l 283 0 q 254 29 254 0 l 254 383 q 238 399 254 399 l 153 399 q 131 405 136 399 q 125 428 125 411 l 125 499 q 153 529 125 529 l 238 529 q 254 544 254 529 l 254 725 q 238 740 254 740 l 68 740 q 39 769 39 740 l 39 864 q 68 893 39 893 l 617 893 q 644 864 644 893 l 644 769 q 617 740 644 740 l 446 740 q 431 725 431 740 l 431 544 q 446 529 431 529 l 533 529 q 561 499 561 529 l 561 428 q 556 405 561 411 q 533 399 550 399 l 446 399 q 431 383 431 399 l 431 29 q 400 0 431 0 z "},"ŧ":{"ha":510,"x_min":7,"x_max":469,"o":"m 442 0 l 346 0 q 176 58 236 0 q 115 225 115 117 l 115 296 q 100 313 115 313 l 36 313 q 13 319 19 313 q 7 340 7 325 l 7 413 q 36 442 7 442 l 100 442 q 115 458 115 442 l 115 540 q 100 556 115 556 l 36 556 q 13 561 19 556 q 7 583 7 567 l 7 679 q 36 708 7 708 l 100 708 q 115 724 115 708 l 115 856 q 144 885 115 885 l 263 885 q 292 856 292 885 l 292 724 q 308 708 292 708 l 428 708 q 456 679 456 708 l 456 583 q 450 562 456 568 q 428 556 444 556 l 308 556 q 292 540 292 556 l 292 458 q 308 442 292 442 l 428 442 q 456 413 456 442 l 456 340 q 450 319 456 325 q 428 313 444 313 l 308 313 q 292 296 292 313 l 292 233 q 311 172 292 190 q 375 153 331 153 l 442 153 q 469 124 469 153 l 469 28 q 464 6 469 13 q 442 0 458 0 z "},"Ũ":{"ha":778,"x_min":83,"x_max":694,"o":"m 322 975 q 222 1081 222 975 l 222 1135 q 238 1150 222 1150 l 292 1150 q 304 1147 301 1150 q 307 1135 307 1144 l 307 1118 q 311 1078 307 1088 q 325 1068 315 1068 q 342 1076 335 1068 q 379 1120 350 1083 q 457 1157 408 1157 q 556 1050 556 1157 l 556 999 q 542 981 556 981 l 488 981 q 472 999 472 981 l 472 1013 q 467 1053 472 1043 q 451 1063 463 1063 q 410 1025 440 1063 q 322 975 375 975 m 547 893 l 664 893 q 694 865 694 893 l 694 226 q 634 59 694 118 q 465 0 574 0 l 313 0 q 143 58 203 0 q 83 226 83 117 l 83 864 q 113 893 83 893 l 231 893 q 260 864 260 893 l 260 235 q 278 172 260 190 q 340 153 297 153 l 436 153 q 499 172 481 153 q 518 235 518 190 l 518 864 q 547 893 518 893 z "},"ũ":{"ha":726,"x_min":69,"x_max":650,"o":"m 179 903 l 179 956 q 194 972 179 972 l 249 972 q 261 969 258 972 q 264 956 264 965 l 264 940 q 268 900 264 910 q 283 890 272 890 q 329 934 294 890 q 414 978 364 978 q 513 872 513 978 l 513 821 q 499 803 513 803 l 444 803 q 429 821 429 803 l 429 833 q 425 875 429 865 q 409 885 421 885 q 367 846 397 885 q 279 797 333 797 q 179 903 179 797 m 332 0 l 286 0 q 124 58 179 0 q 69 226 69 117 l 69 679 q 99 708 69 708 l 217 708 q 246 679 246 708 l 246 235 q 265 172 246 190 q 326 153 283 153 l 378 153 q 474 258 474 153 l 474 679 q 503 708 474 708 l 619 708 q 650 679 650 708 l 650 29 q 619 0 650 0 l 503 0 q 474 29 474 0 l 474 75 l 468 75 q 414 19 453 38 q 332 0 375 0 z "},"Ū":{"ha":778,"x_min":83,"x_max":694,"o":"m 526 1017 l 251 1017 q 224 1046 224 1017 l 224 1108 q 251 1138 224 1138 l 526 1138 q 554 1108 554 1138 l 554 1046 q 526 1017 554 1017 m 547 893 l 664 893 q 694 865 694 893 l 694 226 q 634 59 694 118 q 465 0 574 0 l 313 0 q 143 58 203 0 q 83 226 83 117 l 83 864 q 113 893 83 893 l 231 893 q 260 864 260 893 l 260 235 q 278 172 260 190 q 340 153 297 153 l 436 153 q 499 172 481 153 q 518 235 518 190 l 518 864 q 547 893 518 893 z "},"ū":{"ha":726,"x_min":69,"x_max":650,"o":"m 497 826 l 222 826 q 194 857 194 826 l 194 918 q 222 947 194 947 l 497 947 q 525 918 525 947 l 525 857 q 497 826 525 826 m 332 0 l 286 0 q 124 58 179 0 q 69 226 69 117 l 69 679 q 99 708 69 708 l 217 708 q 246 679 246 708 l 246 235 q 265 172 246 190 q 326 153 283 153 l 378 153 q 474 258 474 153 l 474 679 q 503 708 474 708 l 619 708 q 650 679 650 708 l 650 29 q 619 0 650 0 l 503 0 q 474 29 474 0 l 474 75 l 468 75 q 414 19 453 38 q 332 0 375 0 z "},"Ŭ":{"ha":778,"x_min":83,"x_max":694,"o":"m 229 1143 q 249 1161 229 1161 l 318 1161 q 338 1143 338 1161 l 338 1131 q 349 1084 338 1097 q 385 1071 360 1071 l 394 1071 q 443 1131 443 1071 l 443 1143 q 463 1161 443 1161 l 531 1161 q 550 1143 550 1161 l 550 1128 q 514 1019 550 1057 q 414 982 478 982 l 365 982 q 265 1019 301 982 q 229 1128 229 1057 l 229 1143 m 547 893 l 664 893 q 694 865 694 893 l 694 226 q 634 59 694 118 q 465 0 574 0 l 313 0 q 143 58 203 0 q 83 226 83 117 l 83 864 q 113 893 83 893 l 231 893 q 260 864 260 893 l 260 235 q 278 172 260 190 q 340 153 297 153 l 436 153 q 499 172 481 153 q 518 235 518 190 l 518 864 q 547 893 518 893 z "},"ŭ":{"ha":726,"x_min":69,"x_max":650,"o":"m 332 0 l 286 0 q 124 58 179 0 q 69 226 69 117 l 69 679 q 99 708 69 708 l 217 708 q 246 679 246 708 l 246 235 q 265 172 246 190 q 326 153 283 153 l 378 153 q 474 258 474 153 l 474 679 q 503 708 474 708 l 619 708 q 650 679 650 708 l 650 29 q 619 0 650 0 l 503 0 q 474 29 474 0 l 474 75 l 468 75 q 414 19 453 38 q 332 0 375 0 m 200 940 l 200 956 q 219 974 200 974 l 289 974 q 308 956 308 974 l 308 943 q 319 897 308 910 q 356 885 331 885 l 365 885 q 414 943 414 885 l 414 956 q 433 974 414 974 l 501 974 q 521 956 521 974 l 521 940 q 485 832 521 869 q 385 794 449 794 l 336 794 q 236 832 272 794 q 200 940 200 869 z "},"Ů":{"ha":778,"x_min":83,"x_max":694,"o":"m 428 978 l 349 978 q 274 1053 274 978 l 274 1142 q 293 1195 274 1176 q 349 1214 313 1214 l 428 1214 q 483 1194 463 1214 q 504 1142 504 1175 l 504 1053 q 483 997 504 1017 q 428 978 463 978 m 376 1042 l 399 1042 q 424 1049 417 1042 q 431 1076 431 1057 l 431 1113 q 424 1141 431 1133 q 400 1149 418 1149 l 378 1149 q 353 1141 360 1149 q 346 1113 346 1133 l 346 1076 q 352 1049 346 1057 q 376 1042 358 1042 m 547 893 l 664 893 q 694 865 694 893 l 694 226 q 634 59 694 118 q 465 0 574 0 l 313 0 q 143 58 203 0 q 83 226 83 117 l 83 864 q 113 893 83 893 l 231 893 q 260 864 260 893 l 260 235 q 278 172 260 190 q 340 153 297 153 l 436 153 q 499 172 481 153 q 518 235 518 190 l 518 864 q 547 893 518 893 z "},"ů":{"ha":726,"x_min":69,"x_max":650,"o":"m 332 0 l 286 0 q 124 58 179 0 q 69 226 69 117 l 69 679 q 99 708 69 708 l 217 708 q 246 679 246 708 l 246 235 q 265 172 246 190 q 326 153 283 153 l 378 153 q 474 258 474 153 l 474 679 q 503 708 474 708 l 619 708 q 650 679 650 708 l 650 29 q 619 0 650 0 l 503 0 q 474 29 474 0 l 474 75 l 468 75 q 414 19 453 38 q 332 0 375 0 m 303 908 l 303 867 q 311 837 303 844 q 340 829 319 829 l 363 829 q 392 837 383 829 q 400 867 400 844 l 400 908 q 392 940 400 932 q 364 947 385 947 l 340 947 q 311 940 319 947 q 303 908 303 932 m 242 843 l 242 938 q 311 1001 242 1001 l 392 1001 q 461 938 461 1001 l 461 843 q 392 776 461 776 l 311 776 q 242 843 242 776 z "},"Ű":{"ha":778,"x_min":83,"x_max":694,"o":"m 329 1161 l 419 1161 q 432 1133 451 1161 l 333 1000 q 299 982 319 982 l 240 982 q 226 1011 213 982 l 288 1135 q 329 1161 301 1161 m 542 1161 l 631 1161 q 644 1133 664 1161 l 546 1000 q 510 982 531 982 l 453 982 q 438 1011 424 982 l 500 1135 q 542 1161 513 1161 m 547 893 l 664 893 q 694 865 694 893 l 694 226 q 634 59 694 118 q 465 0 574 0 l 313 0 q 143 58 203 0 q 83 226 83 117 l 83 864 q 113 893 83 893 l 231 893 q 260 864 260 893 l 260 235 q 278 172 260 190 q 340 153 297 153 l 436 153 q 499 172 481 153 q 518 235 518 190 l 518 864 q 547 893 518 893 z "},"ű":{"ha":726,"x_min":69,"x_max":650,"o":"m 328 976 l 418 976 q 431 949 450 976 l 332 815 q 297 797 318 797 l 239 797 q 225 826 211 797 l 286 950 q 328 976 300 976 m 540 976 l 629 976 q 643 949 663 976 l 544 815 q 508 797 529 797 l 451 797 q 436 826 422 797 l 499 950 q 540 976 511 976 m 332 0 l 286 0 q 124 58 179 0 q 69 226 69 117 l 69 679 q 99 708 69 708 l 217 708 q 246 679 246 708 l 246 235 q 265 172 246 190 q 326 153 283 153 l 378 153 q 474 258 474 153 l 474 679 q 503 708 474 708 l 619 708 q 650 679 650 708 l 650 29 q 619 0 650 0 l 503 0 q 474 29 474 0 l 474 75 l 468 75 q 414 19 453 38 q 332 0 375 0 z "},"Ų":{"ha":778,"x_min":83,"x_max":694,"o":"m 547 893 l 664 893 q 694 865 694 893 l 694 226 q 634 59 694 118 q 465 0 574 0 l 453 0 l 400 -79 l 458 -79 q 481 -85 475 -79 q 488 -107 488 -90 q 442 -153 488 -136 q 355 -171 396 -171 q 303 -147 314 -171 q 311 -94 292 -122 l 368 0 l 313 0 q 143 58 203 0 q 83 226 83 117 l 83 864 q 113 893 83 893 l 231 893 q 260 864 260 893 l 260 235 q 278 172 260 190 q 340 153 297 153 l 436 153 q 499 172 481 153 q 518 235 518 190 l 518 864 q 547 893 518 893 z "},"ų":{"ha":696,"x_min":69,"x_max":650,"o":"m 503 708 l 619 708 q 650 679 650 708 l 650 29 q 619 0 650 0 l 535 0 q 522 -24 528 -11 q 507 -53 515 -36 q 492 -87 489 -87 q 553 -81 553 -87 q 572 -85 567 -79 q 572 -104 576 -90 q 527 -149 571 -133 q 449 -164 483 -164 q 410 -131 414 -164 q 425 -74 407 -99 l 474 21 l 474 75 l 468 75 q 414 19 453 38 q 332 0 375 0 l 286 0 q 124 58 179 0 q 69 226 69 117 l 69 679 q 99 708 69 708 l 217 708 q 246 679 246 708 l 246 235 q 265 172 246 190 q 326 153 283 153 l 378 153 q 474 258 474 153 l 474 679 q 503 708 474 708 z "},"Ŵ":{"ha":1122,"x_min":21,"x_max":1100,"o":"m 719 982 l 636 982 q 613 999 618 982 l 567 1090 l 522 999 q 497 982 515 982 l 415 982 q 404 1000 394 982 l 492 1146 q 522 1161 503 1161 l 613 1161 q 643 1146 632 1161 l 729 1000 q 719 982 739 982 m 399 0 l 204 0 q 169 29 174 0 l 21 864 q 50 893 17 893 l 194 893 q 228 864 226 893 l 308 179 l 318 179 l 451 868 q 481 893 456 893 l 636 893 q 667 869 663 893 l 803 179 l 814 179 l 893 863 q 926 893 894 893 l 1071 893 q 1100 863 1104 893 l 950 29 q 918 0 946 0 l 722 0 q 689 29 693 0 l 564 681 l 558 681 l 432 29 q 399 0 426 0 z "},"ŵ":{"ha":965,"x_min":29,"x_max":936,"o":"m 635 797 l 551 797 q 528 814 533 797 l 482 906 l 438 814 q 413 797 431 797 l 331 797 q 319 815 310 797 l 407 961 q 438 976 418 976 l 528 976 q 558 961 547 976 l 644 815 q 635 797 654 797 m 360 0 l 201 0 q 168 29 175 0 l 29 679 q 50 708 24 708 l 183 708 q 217 679 214 708 l 279 204 l 290 204 l 389 679 q 421 708 393 708 l 543 708 q 578 679 572 708 l 674 204 l 685 204 l 749 679 q 782 708 753 708 l 915 708 q 936 679 943 708 l 797 29 q 764 0 792 0 l 606 0 q 572 29 578 0 l 488 499 l 476 499 l 393 29 q 360 0 389 0 z "},"Ŷ":{"ha":718,"x_min":17,"x_max":703,"o":"m 506 982 l 424 982 q 399 999 406 982 l 354 1090 l 308 999 q 285 982 303 982 l 203 982 q 192 1000 182 982 l 278 1146 q 308 1161 289 1161 l 399 1161 q 429 1146 418 1161 l 517 1000 q 506 982 526 982 m 418 0 l 300 0 q 271 29 271 0 l 271 326 l 17 863 q 17 884 11 875 q 36 893 24 893 l 183 893 q 217 864 206 893 l 356 526 l 365 526 l 501 864 q 535 893 511 893 l 682 893 q 702 885 696 893 q 701 863 708 876 l 447 326 l 447 29 q 418 0 447 0 z "},"ŷ":{"ha":656,"x_min":28,"x_max":629,"o":"m 489 797 l 406 797 q 381 814 388 797 l 336 906 l 290 814 q 267 797 285 797 l 185 797 q 174 815 164 797 l 260 961 q 290 976 271 976 l 381 976 q 413 961 401 976 l 499 815 q 489 797 508 797 m 192 -235 l 103 -235 q 75 -204 75 -235 l 75 -111 q 103 -81 75 -81 l 132 -81 q 251 -56 219 -81 q 299 38 282 -32 l 225 38 q 190 67 199 38 l 28 679 q 49 708 19 708 l 172 708 q 207 679 200 708 l 326 167 l 332 167 l 450 679 q 485 708 456 708 l 601 708 q 629 678 636 708 l 460 0 q 365 -175 429 -115 q 192 -235 301 -235 z "},"Ÿ":{"ha":718,"x_min":17,"x_max":703,"o":"m 144 1011 l 144 1133 q 171 1161 144 1161 l 282 1161 q 308 1135 308 1161 l 308 1011 q 282 982 308 982 l 171 982 q 144 1011 144 982 m 408 1011 l 408 1133 q 435 1161 408 1161 l 546 1161 q 572 1135 572 1161 l 572 1011 q 546 982 572 982 l 435 982 q 408 1011 408 982 m 418 0 l 300 0 q 271 29 271 0 l 271 326 l 17 863 q 17 884 11 875 q 36 893 24 893 l 183 893 q 217 864 206 893 l 356 526 l 365 526 l 501 864 q 535 893 511 893 l 682 893 q 702 885 696 893 q 701 863 708 876 l 447 326 l 447 29 q 418 0 447 0 z "},"Ź":{"ha":724,"x_min":67,"x_max":656,"o":"m 426 1161 l 564 1161 q 582 1153 578 1161 q 578 1133 586 1144 l 464 1000 q 428 982 450 982 l 338 982 q 322 1011 308 982 l 385 1135 q 426 1161 397 1161 m 67 29 l 67 113 q 85 181 67 158 l 453 724 l 453 729 l 121 729 q 92 758 92 729 l 92 864 q 121 893 92 893 l 614 893 q 642 864 642 893 l 642 744 q 621 672 642 703 l 275 169 l 275 164 l 628 164 q 656 138 656 164 l 656 32 q 628 0 656 0 l 96 0 q 67 29 67 0 z "},"ź":{"ha":624,"x_min":43,"x_max":582,"o":"m 374 976 l 511 976 q 529 968 525 976 q 525 949 533 960 l 413 815 q 372 797 394 797 l 285 797 q 269 826 256 797 l 332 950 q 374 976 344 976 m 43 29 l 43 75 q 69 156 43 122 l 364 551 l 364 557 l 85 557 q 56 588 56 557 l 56 679 q 85 708 56 708 l 538 708 q 567 679 567 708 l 567 596 q 544 524 567 551 l 272 157 l 272 151 l 553 151 q 582 121 582 151 l 582 29 q 553 0 582 0 l 72 0 q 43 29 43 0 z "},"Ż":{"ha":724,"x_min":67,"x_max":656,"o":"m 307 1013 l 307 1143 q 335 1171 307 1171 l 456 1171 q 483 1144 483 1171 l 483 1013 q 456 983 483 983 l 335 983 q 307 1013 307 983 m 67 29 l 67 113 q 85 181 67 158 l 453 724 l 453 729 l 121 729 q 92 758 92 729 l 92 864 q 121 893 92 893 l 614 893 q 642 864 642 893 l 642 744 q 621 672 642 703 l 275 169 l 275 164 l 628 164 q 656 138 656 164 l 656 32 q 628 0 656 0 l 96 0 q 67 29 67 0 z "},"ż":{"ha":624,"x_min":43,"x_max":582,"o":"m 254 821 l 254 953 q 282 981 254 981 l 404 981 q 432 954 432 981 l 432 821 q 404 793 432 793 l 282 793 q 254 821 254 793 m 43 29 l 43 75 q 69 156 43 122 l 364 551 l 364 557 l 85 557 q 56 588 56 557 l 56 679 q 85 708 56 708 l 538 708 q 567 679 567 708 l 567 596 q 544 524 567 551 l 272 157 l 272 151 l 553 151 q 582 121 582 151 l 582 29 q 553 0 582 0 l 72 0 q 43 29 43 0 z "},"Ž":{"ha":724,"x_min":67,"x_max":656,"o":"m 344 982 q 314 997 325 982 l 228 1143 q 239 1161 218 1161 l 321 1161 q 344 1144 339 1161 l 390 1053 l 435 1144 q 460 1161 442 1161 l 542 1161 q 553 1143 563 1161 l 465 997 q 435 982 454 982 l 344 982 m 67 29 l 67 113 q 85 181 67 158 l 453 724 l 453 729 l 121 729 q 92 758 92 729 l 92 864 q 121 893 92 893 l 614 893 q 642 864 642 893 l 642 744 q 621 672 642 703 l 275 169 l 275 164 l 628 164 q 656 138 656 164 l 656 32 q 628 0 656 0 l 96 0 q 67 29 67 0 z "},"ž":{"ha":624,"x_min":43,"x_max":582,"o":"m 293 797 q 263 813 274 797 l 176 958 q 188 976 167 976 l 269 976 q 293 960 288 976 l 339 868 l 383 960 q 408 976 390 976 l 490 976 q 501 958 511 976 l 414 813 q 383 797 403 797 l 293 797 m 43 29 l 43 75 q 69 156 43 122 l 364 551 l 364 557 l 85 557 q 56 588 56 557 l 56 679 q 85 708 56 708 l 538 708 q 567 679 567 708 l 567 596 q 544 524 567 551 l 272 157 l 272 151 l 553 151 q 582 121 582 151 l 582 29 q 553 0 582 0 l 72 0 q 43 29 43 0 z "},"ƒ":{"ha":731,"x_min":17,"x_max":714,"o":"m 136 -185 l 50 -185 q 17 -157 17 -185 l 17 -61 q 47 -32 17 -32 l 117 -32 q 180 -13 160 -32 q 210 50 200 6 l 285 397 q 271 414 289 414 l 190 414 q 157 443 157 414 l 157 538 q 189 567 157 567 l 304 567 q 324 582 319 567 l 360 750 q 448 925 386 874 q 621 976 510 976 l 681 976 q 714 949 714 976 l 714 854 q 685 824 714 824 l 628 824 q 565 805 585 824 q 535 742 544 786 l 500 582 q 513 567 496 567 l 614 567 q 649 538 649 567 l 649 443 q 622 414 649 414 l 481 414 q 461 397 465 414 l 379 18 q 300 -135 357 -86 q 136 -185 243 -185 z "},"Ǽ":{"ha":1085,"x_min":10,"x_max":1022,"o":"m 676 1161 l 814 1161 q 833 1153 829 1161 q 828 1133 838 1144 l 715 1000 q 679 982 700 982 l 588 982 q 574 1011 560 982 l 636 1135 q 676 1161 650 1161 m 156 0 l 28 0 q 10 31 -3 0 l 394 864 q 440 893 408 893 l 994 893 q 1022 864 1022 893 l 1022 769 q 994 740 1022 740 l 704 740 q 688 725 688 740 l 688 544 q 704 529 688 529 l 942 529 q 971 500 971 529 l 971 406 q 942 376 971 376 l 704 376 q 688 361 688 376 l 688 168 q 704 153 688 153 l 994 153 q 1022 124 1022 153 l 1022 29 q 994 0 1022 0 l 540 0 q 511 29 511 0 l 511 183 l 264 183 l 193 29 q 156 0 182 0 m 511 338 l 511 725 l 506 725 l 329 338 l 511 338 z "},"ǽ":{"ha":1049,"x_min":57,"x_max":992,"o":"m 575 976 l 713 976 q 732 968 728 976 q 726 949 736 960 l 614 815 q 575 797 599 797 l 486 797 q 472 826 458 797 l 535 950 q 575 976 547 976 m 625 254 l 625 235 q 644 172 625 190 q 707 153 663 153 l 963 153 q 992 124 992 153 l 992 28 q 985 6 992 13 q 963 0 979 0 l 678 0 q 504 79 561 0 q 308 0 458 0 l 286 0 q 118 56 179 0 q 57 217 57 113 l 57 232 q 286 447 57 447 l 439 447 q 449 458 449 447 l 449 476 q 429 538 449 519 q 368 556 410 556 l 142 556 q 114 585 114 556 l 114 679 q 142 708 114 708 l 363 708 q 538 632 494 708 q 703 708 581 708 l 764 708 q 932 649 872 708 q 992 482 992 590 l 992 299 q 963 269 992 269 l 642 269 q 625 254 625 269 m 839 404 l 839 474 q 820 537 839 518 q 757 556 801 556 l 708 556 q 644 537 664 556 q 625 475 625 518 l 625 404 q 640 389 625 389 l 822 389 q 839 404 839 389 m 450 247 l 450 307 q 433 322 450 322 l 315 322 q 242 303 263 322 q 222 240 222 285 l 222 228 q 243 161 222 181 q 315 142 264 142 l 354 142 q 428 167 407 142 q 450 247 450 192 z "},"Ǿ":{"ha":806,"x_min":71,"x_max":738,"o":"m 715 667 l 715 226 q 656 59 715 118 q 488 0 596 0 l 319 0 q 174 39 232 0 l 150 6 q 107 -1 133 -17 l 78 21 q 71 63 54 38 l 110 118 q 90 226 90 165 l 90 667 q 150 835 90 776 q 319 893 210 893 l 488 893 q 633 853 576 893 l 657 886 q 700 893 675 910 l 729 872 q 738 831 753 856 l 696 772 q 715 667 715 726 m 267 658 l 267 338 l 531 708 q 458 740 514 740 l 347 740 q 285 722 303 740 q 267 658 267 703 m 539 235 l 539 551 l 276 183 q 347 153 293 153 l 458 153 q 521 172 503 153 q 539 235 539 190 m 435 982 l 344 982 q 331 1011 315 982 l 392 1135 q 433 1161 407 1161 l 571 1161 q 589 1153 585 1161 q 585 1133 593 1144 l 472 1000 q 435 982 457 982 z "},"ǿ":{"ha":722,"x_min":29,"x_max":694,"o":"m 653 482 l 653 226 q 592 59 653 118 q 424 0 532 0 l 300 0 q 131 58 192 0 l 93 21 q 51 21 68 0 l 31 42 q 29 85 8 61 l 83 139 q 71 226 71 176 l 71 482 q 131 650 71 592 q 300 708 190 708 l 424 708 q 593 649 533 708 l 631 686 q 672 688 651 708 l 694 667 q 694 624 717 644 l 640 569 q 653 482 653 531 m 247 474 l 247 303 l 467 522 q 394 556 451 556 l 328 556 q 265 537 283 556 q 247 474 247 518 m 475 235 l 475 404 l 257 185 q 328 153 272 153 l 394 153 q 457 172 439 153 q 475 235 475 190 m 401 797 l 313 797 q 299 826 285 797 l 361 950 q 403 976 375 976 l 539 976 q 558 968 554 976 q 553 949 563 960 l 440 815 q 401 797 425 797 z "},"Ș":{"ha":749,"x_min":67,"x_max":681,"o":"m 68 228 l 68 256 q 97 285 68 285 l 215 285 q 244 256 244 285 l 244 244 q 265 172 244 192 q 342 153 286 153 l 407 153 q 483 174 461 153 q 504 251 504 194 l 504 268 q 472 330 504 308 q 390 356 439 351 q 285 372 342 360 q 181 402 229 383 q 99 476 132 421 q 67 617 67 531 l 67 665 q 128 833 67 774 q 297 893 189 893 l 436 893 q 607 833 546 893 q 668 665 668 774 l 668 639 q 639 610 668 610 l 521 610 q 492 639 492 610 l 492 647 q 471 721 492 701 q 394 740 450 740 l 340 740 q 263 719 283 740 q 243 635 243 697 l 243 608 q 357 533 243 543 q 567 486 475 524 q 648 412 615 465 q 681 275 681 358 l 681 228 q 619 60 681 119 q 450 0 558 0 l 299 0 q 129 60 190 0 q 68 228 68 119 m 454 -71 l 454 -136 q 424 -222 454 -183 l 350 -317 q 324 -331 339 -331 q 300 -303 300 -331 l 300 -72 q 326 -44 300 -44 l 428 -44 q 454 -71 454 -44 z "},"ș":{"ha":611,"x_min":49,"x_max":563,"o":"m 386 -71 l 386 -136 q 354 -222 386 -185 l 281 -317 q 256 -331 269 -331 q 232 -303 232 -331 l 232 -72 q 258 -44 232 -44 l 360 -44 q 386 -71 386 -44 m 344 0 l 81 0 q 53 29 53 0 l 53 118 q 58 140 53 133 q 81 146 64 146 l 313 146 q 381 188 381 146 l 381 194 q 324 258 381 228 l 186 335 q 82 413 115 371 q 49 519 49 454 q 100 663 49 617 q 261 708 151 708 l 493 708 q 521 679 521 708 l 521 589 q 515 567 521 574 q 493 561 510 561 l 300 561 q 232 526 232 561 l 232 519 q 292 457 232 489 l 432 374 q 533 294 504 335 q 563 186 563 253 q 344 0 563 0 z "},"ˆ":{"ha":479,"x_min":76,"x_max":401,"o":"m 392 797 l 308 797 q 283 814 290 797 l 239 906 l 194 814 q 169 797 188 797 l 88 797 q 76 815 67 797 l 163 961 q 194 976 174 976 l 283 976 q 315 961 304 976 l 401 815 q 392 797 411 797 z "},"ˇ":{"ha":479,"x_min":76,"x_max":401,"o":"m 194 797 q 163 813 174 797 l 76 958 q 88 976 67 976 l 169 976 q 194 960 188 976 l 239 868 l 283 960 q 308 976 290 976 l 392 976 q 401 958 411 976 l 315 813 q 283 797 304 797 l 194 797 z "},"ˉ":{"ha":479,"x_min":74,"x_max":406,"o":"m 376 826 l 103 826 q 74 857 74 826 l 74 918 q 103 947 74 947 l 376 947 q 406 918 406 947 l 406 857 q 376 826 406 826 z "},"˘":{"ha":469,"x_min":74,"x_max":394,"o":"m 74 943 l 74 958 q 93 976 74 976 l 163 976 q 181 958 181 976 l 181 946 q 192 899 181 913 q 229 886 204 886 l 239 886 q 288 946 288 886 l 288 958 q 307 976 288 976 l 375 976 q 394 958 394 976 l 394 943 q 358 835 394 872 q 258 797 322 797 l 210 797 q 110 835 146 797 q 74 943 74 872 z "},"˙":{"ha":325,"x_min":74,"x_max":250,"o":"m 74 821 l 74 953 q 101 981 74 981 l 222 981 q 250 954 250 981 l 250 821 q 222 793 250 793 l 101 793 q 74 821 74 793 z "},"˚":{"ha":378,"x_min":75,"x_max":293,"o":"m 135 908 l 135 867 q 144 838 135 846 q 174 829 153 829 l 194 829 q 224 837 215 829 q 232 867 232 844 l 232 908 q 224 940 232 932 q 196 947 217 947 l 174 947 q 143 940 151 947 q 135 908 135 932 m 75 843 l 75 938 q 143 1001 75 1001 l 224 1001 q 293 938 293 1001 l 293 843 q 224 776 293 776 l 143 776 q 75 843 75 776 z "},"˛":{"ha":338,"x_min":92,"x_max":254,"o":"m 174 -87 q 235 -81 235 -87 q 253 -85 249 -79 q 254 -104 258 -90 q 209 -149 253 -133 q 131 -164 165 -164 q 92 -131 96 -164 q 107 -74 89 -99 l 160 28 l 222 7 q 191 -46 211 -4 q 174 -87 171 -87 z "},"˜":{"ha":489,"x_min":74,"x_max":407,"o":"m 74 903 l 74 956 q 88 972 74 972 l 143 972 q 157 956 157 972 l 157 940 q 162 901 157 911 q 177 890 167 890 q 223 934 188 890 q 307 978 258 978 q 407 872 407 978 l 407 821 q 393 803 407 803 l 338 803 q 324 821 324 803 l 324 833 q 319 875 324 865 q 303 885 314 885 q 288 879 293 885 q 261 846 282 874 q 174 797 225 797 q 74 903 74 797 z "},"˝":{"ha":578,"x_min":79,"x_max":497,"o":"m 183 976 l 272 976 q 286 949 304 976 l 186 815 q 151 797 172 797 l 94 797 q 79 826 65 797 l 142 950 q 183 976 154 976 m 394 976 l 483 976 q 497 949 515 976 l 397 815 q 363 797 383 797 l 306 797 q 290 826 276 797 l 353 950 q 394 976 365 976 z "},"Μ":{"ha":782,"x_min":101,"x_max":682,"o":"m 278 -156 q 249 -185 278 -185 l 131 -185 q 101 -156 101 -185 l 101 679 q 131 708 101 708 l 249 708 q 278 679 278 708 l 278 235 q 297 172 278 190 q 358 153 315 153 l 410 153 q 506 258 506 153 l 506 679 q 535 708 506 708 l 651 708 q 682 679 682 708 l 682 29 q 651 0 682 0 l 535 0 q 506 29 506 0 l 506 75 l 500 75 q 446 19 485 38 q 347 0 407 0 q 278 10 286 0 l 278 -156 z "},"Π":{"ha":921,"x_min":44,"x_max":878,"o":"m 333 0 l 215 0 q 186 29 186 0 l 186 728 q 171 739 186 739 l 74 739 q 44 769 44 739 l 44 864 q 74 893 44 893 l 849 893 q 878 864 878 893 l 878 769 q 849 739 878 739 l 751 739 q 735 724 735 739 l 735 29 q 706 0 735 0 l 588 0 q 558 29 558 0 l 558 724 q 543 739 558 739 l 379 739 q 363 724 363 739 l 363 29 q 333 0 363 0 z "},"Σ":{"ha":686,"x_min":89,"x_max":614,"o":"m 89 769 l 89 864 q 118 893 89 893 l 583 893 q 613 864 613 893 l 613 758 q 583 728 613 728 l 293 728 l 293 722 l 474 465 q 474 407 493 435 l 293 169 l 293 164 l 585 164 q 614 135 614 164 l 614 29 q 585 0 614 0 l 118 0 q 90 29 90 0 l 90 122 q 111 197 90 165 l 290 433 l 290 439 l 110 696 q 89 769 89 726 z "},"ँ":{"ha":0,"x_min":-408,"x_max":108,"o":"m -54 969 l -244 969 q -366 1016 -324 969 q -408 1147 -408 1063 l -408 1158 q -368 1206 -408 1206 l -300 1206 q -264 1163 -264 1206 l -264 1149 q -214 1101 -264 1101 l -85 1101 q -36 1149 -36 1101 l -36 1163 q 4 1206 -36 1206 l 68 1206 q 108 1158 108 1206 l 108 1149 q -54 969 108 969 m -83 1261 l -83 1192 q -114 1160 -83 1160 l -183 1160 q -214 1192 -214 1160 l -214 1261 q -183 1292 -214 1292 l -114 1292 q -83 1261 -83 1292 z "},"ं":{"ha":0,"x_min":-257,"x_max":-83,"o":"m -83 1133 l -83 1033 q -114 1001 -83 1001 l -226 1001 q -257 1033 -257 1001 l -257 1133 q -226 1164 -257 1164 l -114 1164 q -83 1133 -83 1164 z "},"ः":{"ha":351,"x_min":92,"x_max":264,"o":"m 264 600 l 264 503 q 225 463 264 463 l 131 463 q 92 503 92 463 l 92 600 q 131 639 92 639 l 225 639 q 264 600 264 639 m 264 219 l 264 124 q 225 83 264 83 l 131 83 q 92 124 92 83 l 92 219 q 131 258 92 258 l 225 258 q 264 219 264 258 z "},"अ":{"ha":846,"x_min":50,"x_max":888,"o":"m 663 865 l 854 865 q 888 833 888 865 l 888 754 q 854 721 888 721 l 779 721 q 763 701 763 721 l 763 32 q 729 0 763 0 l 633 0 q 600 32 600 0 l 600 256 q 583 275 600 275 l 475 275 q 411 107 474 165 q 233 49 349 49 l 83 49 q 50 82 50 49 l 50 161 q 83 193 50 193 l 221 193 q 294 213 271 193 q 317 279 317 233 l 317 310 q 294 375 317 356 q 221 394 272 394 l 158 394 q 125 428 125 394 l 125 504 q 157 539 125 539 l 221 539 q 294 559 271 539 q 317 625 317 579 l 317 636 q 294 701 317 682 q 221 721 272 721 l 125 721 q 92 754 92 721 l 92 833 q 125 865 92 865 l 243 865 q 419 806 363 865 q 475 629 475 747 l 475 617 q 397 469 475 508 l 397 464 q 457 415 438 450 l 583 415 q 600 435 600 415 l 600 801 q 617 847 600 829 q 663 865 633 865 z "},"आ":{"ha":1175,"x_min":50,"x_max":1217,"o":"m 663 865 l 1183 865 q 1217 833 1217 865 l 1217 754 q 1183 721 1217 721 l 1108 721 q 1092 701 1092 721 l 1092 32 q 1058 0 1092 0 l 963 0 q 929 32 929 0 l 929 701 q 913 721 929 721 l 779 721 q 763 701 763 721 l 763 32 q 729 0 763 0 l 633 0 q 600 32 600 0 l 600 256 q 583 275 600 275 l 475 275 q 411 107 474 165 q 233 49 349 49 l 83 49 q 50 82 50 49 l 50 161 q 83 193 50 193 l 221 193 q 294 213 271 193 q 317 279 317 233 l 317 310 q 294 375 317 356 q 221 394 272 394 l 158 394 q 125 428 125 394 l 125 504 q 157 539 125 539 l 221 539 q 294 559 271 539 q 317 625 317 579 l 317 636 q 294 701 317 682 q 221 721 272 721 l 125 721 q 92 754 92 721 l 92 833 q 125 865 92 865 l 243 865 q 419 806 363 865 q 475 629 475 747 l 475 617 q 397 469 475 508 l 397 464 q 457 415 438 450 l 583 415 q 600 435 600 415 l 600 801 q 617 847 600 829 q 663 865 633 865 z "},"इ":{"ha":649,"x_min":-42,"x_max":690,"o":"m 385 275 l 256 275 q 68 453 68 275 l 68 474 q 119 600 68 557 q 256 643 169 643 l 374 643 q 390 663 390 643 l 390 701 q 374 721 390 721 l -8 721 q -42 753 -42 721 l -42 833 q -8 865 -42 865 l 657 865 q 690 833 690 865 l 690 753 q 657 721 690 721 l 568 721 q 551 701 551 721 l 551 576 q 469 500 551 500 l 268 500 q 235 490 244 500 q 226 456 226 479 l 226 450 q 268 413 226 413 l 408 413 q 541 371 493 413 q 589 249 589 329 l 589 182 q 540 49 589 99 q 408 0 492 0 l 313 0 q 226 39 246 0 l 221 39 l 221 -57 q 188 -89 221 -89 l 94 -89 q 61 -57 61 -89 l 61 204 q 94 236 61 236 l 188 236 q 221 204 221 236 l 221 199 q 283 140 221 140 l 385 140 q 417 151 408 140 q 426 185 426 161 l 426 238 q 385 275 426 275 z "},"ई":{"ha":649,"x_min":-42,"x_max":690,"o":"m 444 974 l 444 919 q 457 876 444 888 q 507 865 469 865 l 657 865 q 690 833 690 865 l 690 753 q 657 721 690 721 l 568 721 q 551 704 551 721 l 551 576 q 469 500 551 500 l 268 500 q 235 490 244 500 q 226 456 226 479 l 226 450 q 268 413 226 413 l 408 413 q 541 371 493 413 q 589 249 589 329 l 589 182 q 540 49 589 99 q 408 0 492 0 l 313 0 q 226 39 246 0 l 221 39 l 221 -57 q 188 -89 221 -89 l 94 -89 q 61 -57 61 -89 l 61 204 q 94 236 61 236 l 188 236 q 221 204 221 236 l 221 199 q 283 140 221 140 l 385 140 q 417 151 408 140 q 426 185 426 161 l 426 238 q 385 275 426 275 l 256 275 q 68 453 68 275 l 68 474 q 119 600 68 557 q 256 643 169 643 l 374 643 q 390 663 390 643 l 390 704 q 374 721 390 721 l -8 721 q -42 753 -42 721 l -42 833 q -8 865 -42 865 l 311 865 l 311 871 q 282 931 282 883 l 282 979 q 348 1145 282 1083 q 518 1207 414 1207 l 603 1207 q 636 1174 636 1207 l 636 1096 q 603 1063 636 1063 l 529 1063 q 444 974 444 1063 z "},"उ":{"ha":640,"x_min":-42,"x_max":682,"o":"m 578 303 l 578 244 q 517 64 578 128 q 338 0 457 0 l 281 0 q 100 64 164 0 q 36 244 36 128 l 36 279 q 71 319 36 319 l 165 319 q 196 279 196 319 l 196 243 q 301 144 196 144 l 321 144 q 394 170 371 144 q 418 253 418 196 l 418 264 q 397 343 418 321 q 321 365 376 365 l 276 365 q 243 399 243 365 l 243 475 q 275 510 243 510 l 324 510 q 397 532 379 510 q 415 590 415 554 l 415 639 q 322 721 415 721 l -8 721 q -42 754 -42 721 l -42 833 q -8 865 -42 865 l 649 865 q 682 833 682 865 l 682 754 q 649 721 682 721 l 532 721 l 532 715 q 575 631 575 693 l 575 575 q 492 439 575 467 l 492 433 q 578 303 578 404 z "},"ऊ":{"ha":910,"x_min":-42,"x_max":951,"o":"m -8 865 l 918 865 q 951 833 951 865 l 951 754 q 918 721 951 721 l 532 721 l 532 715 q 575 631 575 693 l 575 575 q 492 439 575 467 l 492 433 l 703 433 q 835 389 785 433 q 885 254 885 344 l 885 172 q 835 42 885 83 q 703 0 786 0 l 646 0 q 613 33 613 0 l 613 113 q 646 144 613 144 l 658 144 q 713 159 699 144 q 726 214 726 174 l 726 219 q 713 274 726 260 q 658 289 699 289 l 578 289 l 578 251 q 517 67 578 135 q 338 0 456 0 l 281 0 q 100 64 164 0 q 36 244 36 128 l 36 279 q 71 319 36 319 l 165 319 q 196 279 196 319 l 196 243 q 301 144 196 144 l 321 144 q 394 171 371 144 q 418 254 418 197 l 418 264 q 397 343 418 321 q 321 365 376 365 l 276 365 q 243 399 243 365 l 243 475 q 275 510 243 510 l 324 510 q 397 532 379 510 q 415 590 415 554 l 415 639 q 322 721 415 721 l -8 721 q -42 754 -42 721 l -42 833 q -8 865 -42 865 z "},"ऋ":{"ha":1097,"x_min":-42,"x_max":1139,"o":"m -10 865 l 1106 865 q 1139 833 1139 865 l 1139 754 q 1106 721 1139 721 l 642 721 q 625 701 625 721 l 625 493 l 733 579 q 781 597 757 597 l 981 597 q 1014 565 1014 597 l 1014 307 q 1003 277 1014 285 q 967 269 992 269 l 932 269 q 897 256 910 269 q 883 221 883 242 l 883 181 q 938 136 883 136 l 993 136 q 1036 97 1036 136 l 1036 38 q 1025 8 1036 15 q 989 0 1014 0 l 918 0 q 725 164 725 0 l 725 229 q 756 335 725 293 q 849 386 788 378 q 865 406 865 388 l 865 489 l 625 299 l 625 32 q 592 0 625 0 l 496 0 q 463 32 463 0 l 463 176 l 267 18 q 217 0 243 0 l 83 0 q 58 25 58 0 q 76 58 58 44 l 333 263 l 457 350 l 457 358 q 353 457 457 457 l 317 457 q 218 360 218 457 l 218 339 q 186 306 218 306 l 92 306 q 58 339 58 306 l 58 368 q 120 543 58 481 q 296 606 182 606 l 317 606 q 457 542 418 606 l 463 542 l 463 701 q 446 721 463 721 l -10 721 q -42 754 -42 721 l -42 833 q -10 865 -42 865 z "},"ऌ":{"ha":889,"x_min":-42,"x_max":961,"o":"m 961 -206 q 931 -250 961 -228 q 749 -301 861 -301 q 574 -243 636 -301 q 511 -78 511 -185 q 643 121 511 79 l 643 379 q 628 446 643 428 q 576 464 613 464 q 523 444 539 464 q 507 372 507 424 l 507 300 q 474 267 507 267 l 385 267 q 351 300 351 267 l 351 385 q 335 448 351 429 q 285 467 319 467 q 214 367 214 467 l 214 279 q 315 179 214 179 l 324 179 q 357 147 357 179 l 357 68 q 324 35 357 35 l 290 35 q 115 96 176 35 q 54 271 54 157 l 54 378 q 113 553 54 490 q 281 615 172 615 q 424 536 390 615 l 429 536 q 554 613 457 613 q 638 579 617 613 l 643 579 l 643 701 q 629 721 643 719 l -8 721 q -42 754 -42 721 l -42 833 q -8 865 -42 865 l 897 865 q 931 833 931 865 l 931 754 q 897 721 931 721 l 822 721 q 806 701 806 721 l 806 32 q 771 -3 806 -3 l 729 -3 q 678 -22 693 -3 q 664 -85 664 -42 q 744 -162 664 -162 q 865 -121 814 -162 q 892 -111 878 -111 q 915 -128 906 -111 l 951 -183 q 961 -206 961 -197 z "},"ऍ":{"ha":719,"x_min":-42,"x_max":764,"o":"m -8 865 l 731 865 q 764 832 764 865 l 764 753 q 731 721 764 721 l 674 721 q 656 703 656 721 l 656 585 q 594 415 656 474 q 418 357 532 357 l 372 357 q 339 390 339 357 l 339 467 q 372 499 339 499 l 394 499 q 472 517 447 499 q 496 585 496 536 l 496 703 q 478 721 496 721 l 261 721 q 243 703 243 721 l 243 317 q 396 186 243 186 l 574 186 q 607 153 607 186 l 607 74 q 574 39 607 42 l 361 39 q 157 115 231 39 q 83 310 83 192 l 83 703 q 65 721 83 721 l -8 721 q -42 753 -42 721 l -42 832 q -8 865 -42 865 m 436 969 l 288 969 q 166 1016 208 969 q 124 1147 124 1063 l 124 1158 q 164 1206 124 1206 l 232 1206 q 268 1163 268 1206 l 268 1149 q 318 1101 268 1101 l 406 1101 q 456 1149 456 1101 l 456 1163 q 492 1206 456 1206 l 560 1206 q 600 1158 600 1206 l 600 1147 q 558 1016 600 1063 q 436 969 515 969 z "},"ऎ":{"ha":722,"x_min":-42,"x_max":764,"o":"m 688 865 l 731 865 q 764 832 764 865 l 764 753 q 731 721 764 721 l 674 721 q 656 703 656 721 l 656 585 q 594 415 656 474 q 418 357 532 357 l 372 357 q 339 390 339 357 l 339 467 q 372 499 339 499 l 394 499 q 472 517 447 499 q 496 585 496 536 l 496 703 q 478 721 496 721 l 261 721 q 243 703 243 721 l 243 317 q 396 186 243 186 l 574 186 q 607 153 607 186 l 607 74 q 574 39 607 42 l 361 39 q 157 115 231 39 q 83 310 83 192 l 83 703 q 65 721 83 721 l -8 721 q -42 753 -42 721 l -42 832 q -8 865 -42 865 l 492 865 q 508 881 508 865 q 498 903 508 897 q 483 912 488 910 q 469 918 478 914 q 435 935 447 929 q 346 978 425 939 q 217 1158 217 1042 l 217 1208 q 250 1240 217 1240 l 342 1240 q 375 1208 375 1240 l 375 1172 q 392 1122 375 1140 q 449 1086 410 1104 q 584 1022 564 1033 q 628 990 604 1010 q 671 885 671 957 q 688 865 671 865 z "},"ए":{"ha":722,"x_min":-42,"x_max":764,"o":"m -8 865 l 731 865 q 764 832 764 865 l 764 753 q 731 721 764 721 l 674 721 q 656 703 656 721 l 656 585 q 594 415 656 474 q 418 357 532 357 l 372 357 q 339 390 339 357 l 339 467 q 372 499 339 499 l 394 499 q 472 517 447 499 q 496 585 496 536 l 496 703 q 478 721 496 721 l 261 721 q 243 703 243 721 l 243 317 q 396 186 243 186 l 574 186 q 607 153 607 186 l 607 74 q 574 39 607 42 l 361 39 q 157 115 231 39 q 83 310 83 192 l 83 703 q 65 721 83 721 l -8 721 q -42 753 -42 721 l -42 832 q -8 865 -42 865 z "},"ऐ":{"ha":722,"x_min":-42,"x_max":764,"o":"m 653 865 l 731 865 q 764 832 764 865 l 764 753 q 731 721 764 721 l 674 721 q 656 703 656 721 l 656 585 q 594 415 656 474 q 418 357 532 357 l 372 357 q 339 390 339 357 l 339 467 q 372 499 339 499 l 394 499 q 472 517 447 499 q 496 585 496 536 l 496 703 q 478 721 496 721 l 261 721 q 243 703 243 721 l 243 317 q 396 186 243 186 l 574 186 q 607 153 607 186 l 607 74 q 574 39 607 42 l 361 39 q 157 115 231 39 q 83 310 83 192 l 83 703 q 65 721 83 721 l -8 721 q -42 753 -42 721 l -42 832 q -8 865 -42 865 l 494 865 q 318 1079 392 967 l 246 1189 q 238 1214 238 1201 q 264 1240 238 1240 l 376 1240 q 421 1215 406 1240 q 625 876 621 882 q 653 865 635 865 z "},"ऑ":{"ha":1175,"x_min":50,"x_max":1217,"o":"m 663 865 l 1183 865 q 1217 833 1217 865 l 1217 754 q 1183 721 1217 721 l 1108 721 q 1092 701 1092 721 l 1092 32 q 1058 0 1092 0 l 963 0 q 929 32 929 0 l 929 701 q 913 721 929 721 l 779 721 q 763 701 763 721 l 763 32 q 729 0 763 0 l 633 0 q 600 32 600 0 l 600 256 q 583 275 600 275 l 475 275 q 411 107 474 165 q 233 49 349 49 l 83 49 q 50 82 50 49 l 50 161 q 83 193 50 193 l 221 193 q 294 213 271 193 q 317 279 317 233 l 317 310 q 294 375 317 356 q 221 394 272 394 l 158 394 q 125 428 125 394 l 125 504 q 157 539 125 539 l 221 539 q 294 559 271 539 q 317 625 317 579 l 317 636 q 294 701 317 682 q 221 721 272 721 l 125 721 q 92 754 92 721 l 92 833 q 125 865 92 865 l 243 865 q 419 806 363 865 q 475 629 475 747 l 475 617 q 397 469 475 508 l 397 464 q 457 415 438 450 l 583 415 q 600 435 600 415 l 600 801 q 617 847 600 829 q 663 865 633 865 m 936 969 l 788 969 q 666 1016 708 969 q 624 1147 624 1063 l 624 1158 q 664 1206 624 1206 l 732 1206 q 768 1163 768 1206 l 768 1149 q 818 1101 768 1101 l 906 1101 q 954 1149 954 1101 l 954 1163 q 994 1206 954 1206 l 1058 1206 q 1099 1158 1099 1206 l 1099 1154 q 1058 1017 1099 1065 q 936 969 1017 969 z "},"ऒ":{"ha":1164,"x_min":50,"x_max":1206,"o":"m 1113 865 l 1172 865 q 1206 833 1206 865 l 1206 754 q 1172 721 1206 721 l 1097 721 q 1081 701 1081 721 l 1081 32 q 1047 0 1081 0 l 951 0 q 918 32 918 0 l 918 701 q 901 721 918 721 l 779 721 q 763 701 763 721 l 763 32 q 729 0 763 0 l 633 0 q 600 32 600 0 l 600 256 q 583 275 600 275 l 475 275 q 411 107 474 165 q 233 49 349 49 l 83 49 q 50 82 50 49 l 50 161 q 83 193 50 193 l 221 193 q 294 213 271 193 q 317 279 317 233 l 317 310 q 294 375 317 356 q 221 394 272 394 l 158 394 q 125 428 125 394 l 125 504 q 157 539 125 539 l 221 539 q 294 559 271 539 q 317 625 317 579 l 317 636 q 294 701 317 682 q 221 721 272 721 l 125 721 q 92 754 92 721 l 92 833 q 125 865 92 865 l 243 865 q 419 806 363 865 q 475 629 475 747 l 475 617 q 397 469 475 508 l 397 464 q 457 415 438 450 l 583 415 q 600 435 600 415 l 600 801 q 617 847 600 829 q 663 865 633 865 l 917 865 q 933 881 933 865 q 923 903 933 897 q 908 912 913 910 q 894 918 903 914 q 860 935 872 929 q 771 978 850 939 q 642 1158 642 1042 l 642 1208 q 675 1240 642 1240 l 767 1240 q 800 1208 800 1240 l 800 1172 q 817 1122 800 1140 q 874 1086 835 1104 q 1009 1022 989 1033 q 1053 990 1029 1010 q 1096 885 1096 957 q 1113 865 1096 865 z "},"ओ":{"ha":1175,"x_min":50,"x_max":1217,"o":"m 1093 865 l 1183 865 q 1217 833 1217 865 l 1217 754 q 1183 721 1217 721 l 1108 721 q 1092 701 1092 721 l 1092 32 q 1058 0 1092 0 l 963 0 q 929 32 929 0 l 929 701 q 913 721 929 721 l 779 721 q 763 701 763 721 l 763 32 q 729 0 763 0 l 633 0 q 600 32 600 0 l 600 256 q 583 275 600 275 l 475 275 q 411 107 474 165 q 233 49 349 49 l 83 49 q 50 82 50 49 l 50 161 q 83 193 50 193 l 221 193 q 294 213 271 193 q 317 279 317 233 l 317 310 q 294 375 317 356 q 221 394 272 394 l 158 394 q 125 428 125 394 l 125 504 q 157 539 125 539 l 221 539 q 294 559 271 539 q 317 625 317 579 l 317 636 q 294 701 317 682 q 221 721 272 721 l 125 721 q 92 754 92 721 l 92 833 q 125 865 92 865 l 243 865 q 419 806 363 865 q 475 629 475 747 l 475 617 q 397 469 475 508 l 397 464 q 457 415 438 450 l 583 415 q 600 435 600 415 l 600 801 q 617 847 600 829 q 663 865 633 865 l 932 865 l 932 871 q 879 924 885 918 q 854 952 874 931 q 824 989 835 974 q 686 1189 783 1040 q 678 1214 678 1201 q 704 1240 678 1240 l 817 1240 q 861 1215 846 1240 q 1065 876 1061 882 q 1093 865 1075 865 z "},"औ":{"ha":1175,"x_min":50,"x_max":1217,"o":"m 1108 865 l 1183 865 q 1217 833 1217 865 l 1217 754 q 1183 721 1217 721 l 1108 721 q 1092 701 1092 721 l 1092 32 q 1058 0 1092 0 l 963 0 q 929 32 929 0 l 929 701 q 913 721 929 721 l 779 721 q 763 701 763 721 l 763 32 q 729 0 763 0 l 633 0 q 600 32 600 0 l 600 256 q 583 275 600 275 l 475 275 q 411 107 474 165 q 233 49 349 49 l 83 49 q 50 82 50 49 l 50 161 q 83 193 50 193 l 221 193 q 294 213 271 193 q 317 279 317 233 l 317 310 q 294 375 317 356 q 221 394 272 394 l 158 394 q 125 428 125 394 l 125 504 q 157 539 125 539 l 221 539 q 294 559 271 539 q 317 625 317 579 l 317 636 q 294 701 317 682 q 221 721 272 721 l 125 721 q 92 754 92 721 l 92 833 q 125 865 92 865 l 243 865 q 419 806 363 865 q 475 629 475 747 l 475 617 q 397 469 475 508 l 397 464 q 457 415 438 450 l 583 415 q 600 435 600 415 l 600 801 q 617 847 600 829 q 663 865 633 865 l 917 865 l 917 871 q 725 1079 819 947 l 649 1189 q 640 1214 640 1201 q 668 1240 640 1240 l 758 1240 q 818 1213 803 1240 l 1003 882 l 1008 885 q 936 1189 936 1046 l 936 1208 q 969 1240 936 1240 l 1058 1240 q 1092 1208 1092 1240 l 1092 885 q 1108 865 1092 865 z "},"क":{"ha":1015,"x_min":-42,"x_max":1057,"o":"m 586 701 l 586 588 l 592 588 q 711 642 624 642 l 738 642 q 912 580 850 642 q 974 406 974 518 l 974 347 q 912 174 972 236 q 738 111 851 111 l 686 111 q 653 144 653 111 l 653 224 q 686 256 653 256 l 713 256 q 814 356 814 256 l 814 397 q 707 497 814 497 l 675 497 q 586 410 586 497 l 586 33 q 553 0 586 0 l 460 0 q 428 33 428 0 l 428 165 l 422 165 q 303 111 390 111 l 276 111 q 102 173 164 111 q 40 347 40 235 l 40 406 q 102 579 42 517 q 276 642 163 642 l 328 642 q 361 608 361 642 l 361 529 q 328 497 361 497 l 301 497 q 200 397 200 497 l 200 356 q 307 256 200 256 l 339 256 q 428 343 428 256 l 428 701 q 411 721 428 721 l -8 721 q -42 754 -42 721 l -42 833 q -8 865 -42 865 l 1024 865 q 1057 833 1057 865 l 1057 754 q 1024 721 1057 721 l 603 721 q 586 701 586 721 z "},"ख":{"ha":1008,"x_min":-42,"x_max":1050,"o":"m 765 192 l 760 192 q 657 143 732 147 l 629 143 q 479 201 529 143 q 429 360 429 260 l 429 425 q 485 576 429 519 q 650 632 542 632 l 676 632 q 711 599 711 632 l 711 521 q 676 490 711 490 l 667 490 q 603 472 619 490 q 586 403 586 453 l 586 371 q 605 300 586 319 q 672 281 624 281 l 682 281 q 749 306 732 281 q 765 378 765 331 l 765 701 q 749 721 765 721 l 411 721 q 394 701 394 721 l 394 508 q 349 376 394 426 q 231 326 304 326 l 225 326 l 397 54 q 406 31 406 43 q 376 0 406 0 l 269 0 q 240 18 251 0 l 82 275 l 42 328 l 42 428 q 53 457 42 446 q 83 468 65 468 l 186 468 q 235 518 235 468 l 235 701 q 221 721 235 719 l -8 721 q -42 754 -42 721 l -42 833 q -8 865 -42 865 l 1017 865 q 1050 833 1050 865 l 1050 754 q 1017 721 1050 721 l 942 721 q 925 701 925 721 l 925 32 q 892 0 925 0 l 799 0 q 765 32 765 0 l 765 192 z "},"ग":{"ha":726,"x_min":-42,"x_max":768,"o":"m -8 865 l 735 865 q 768 833 768 865 l 768 754 q 735 721 768 721 l 660 721 q 643 701 643 721 l 643 32 q 610 0 643 0 l 514 0 q 481 32 481 0 l 481 701 q 467 721 481 719 l 351 721 q 335 701 335 721 l 335 494 q 275 318 335 379 q 103 257 215 257 l 68 257 q 35 290 35 257 l 35 372 q 68 406 35 406 l 75 406 q 149 428 126 406 q 172 501 172 451 l 172 701 q 158 721 172 719 l -8 721 q -42 754 -42 721 l -42 833 q -8 865 -42 865 z "},"घ":{"ha":751,"x_min":-42,"x_max":793,"o":"m 56 590 l 56 657 q 89 715 56 697 l 89 721 l -8 721 q -42 756 -42 721 l -42 833 q -8 865 -42 865 l 760 865 q 793 833 793 865 l 793 754 q 760 721 793 721 l 685 721 q 668 701 668 721 l 668 32 q 635 0 668 0 l 539 0 q 506 32 506 0 l 506 163 l 500 163 q 381 100 469 100 l 265 100 q 110 155 164 100 q 56 313 56 210 l 56 351 q 131 472 56 446 l 131 478 q 56 590 56 503 m 489 721 l 258 721 q 215 671 215 721 l 215 601 q 265 553 215 553 l 351 553 q 385 519 385 553 l 385 440 q 351 408 385 408 l 265 408 q 229 394 243 408 q 215 356 215 381 l 215 328 q 231 264 215 281 q 292 247 247 247 l 368 247 q 506 371 506 249 l 506 701 q 489 721 506 721 z "},"ङ":{"ha":756,"x_min":-42,"x_max":797,"o":"m 735 499 l 735 408 q 704 376 735 376 l 607 376 q 576 408 576 376 l 576 499 q 607 529 576 529 l 704 529 q 735 499 735 529 m -8 865 l 764 865 q 797 833 797 865 l 797 753 q 764 721 797 721 l 556 721 q 539 701 539 721 l 539 576 q 457 500 539 500 l 264 500 q 231 492 240 500 q 221 456 221 483 l 221 450 q 231 413 221 421 q 264 404 240 404 l 396 404 q 528 363 481 404 q 576 240 576 321 l 576 179 q 528 48 576 96 q 396 0 479 0 l 278 0 q 113 44 171 0 q 56 199 56 89 l 56 204 q 90 244 56 244 l 176 244 q 207 204 207 244 l 207 199 q 244 143 207 150 q 294 140 260 140 l 369 140 q 413 192 413 140 l 413 221 q 402 262 413 250 q 369 274 392 274 l 250 274 q 107 312 151 274 q 63 438 63 350 l 63 474 q 113 600 63 557 q 250 643 164 643 l 361 643 q 378 663 378 643 l 378 701 q 363 721 378 721 l -8 721 q -42 753 -42 721 l -42 833 q -8 865 -42 865 z "},"च":{"ha":821,"x_min":-42,"x_max":863,"o":"m 186 485 l 65 485 q 32 517 32 485 l 32 596 q 65 629 32 629 l 454 629 q 488 596 488 629 l 488 517 q 454 485 488 485 l 385 485 q 293 386 293 485 l 293 350 q 393 254 293 254 l 463 254 q 545 285 517 254 q 574 372 574 317 l 574 701 q 557 721 574 721 l -8 721 q -42 754 -42 721 l -42 833 q -8 865 -42 865 l 829 865 q 863 833 863 865 l 863 754 q 829 721 863 721 l 754 721 q 738 701 738 721 l 738 33 q 704 0 738 0 l 606 0 q 574 33 574 0 l 574 176 l 568 176 q 433 110 535 110 l 365 110 q 193 169 253 110 q 133 340 133 228 l 133 369 q 186 479 133 457 l 186 485 z "},"छ":{"ha":768,"x_min":-42,"x_max":810,"o":"m -8 865 l 776 865 q 810 833 810 865 l 810 756 q 776 721 810 722 l 717 721 q 697 704 697 721 l 697 644 q 646 535 697 574 q 707 385 707 492 l 707 265 q 653 115 707 178 q 492 51 599 51 l 307 51 q 135 105 199 51 q 72 257 72 158 l 72 299 q 149 426 72 401 l 149 432 q 92 465 113 438 q 72 529 72 492 l 72 649 q 111 715 72 699 l 111 721 l -8 721 q -42 756 -42 722 l -42 833 q -8 865 -42 865 m 550 289 l 550 388 q 540 413 550 403 q 514 422 531 422 l 469 422 q 436 456 436 422 l 436 536 q 469 567 436 567 l 524 567 q 531 613 531 590 l 531 703 q 513 721 531 719 l 300 721 q 233 653 233 721 l 233 554 q 285 504 233 504 l 329 504 q 363 471 363 504 l 363 393 q 329 363 363 363 l 299 363 q 233 297 233 363 l 233 275 q 254 215 233 232 q 325 199 275 199 l 456 199 q 529 218 508 199 q 550 289 550 238 z "},"ज":{"ha":779,"x_min":-42,"x_max":821,"o":"m 368 460 l 368 454 q 414 379 414 436 l 414 288 q 362 124 414 185 q 213 64 310 64 l 67 64 q 33 96 33 64 l 33 175 q 67 208 33 208 l 158 208 q 242 238 224 208 q 254 303 254 260 l 254 368 q 157 460 254 460 l 121 460 q 88 492 88 460 l 88 581 q 119 610 88 610 l 517 610 q 533 629 533 610 l 533 701 q 519 721 533 719 l -8 721 q -42 754 -42 721 l -42 833 q -8 865 -42 865 l 788 865 q 821 833 821 865 l 821 754 q 788 721 821 721 l 713 721 q 696 701 696 721 l 696 32 q 663 0 696 0 l 567 0 q 533 32 533 0 l 533 440 q 517 460 533 460 l 368 460 z "},"झ":{"ha":896,"x_min":-42,"x_max":938,"o":"m 635 721 l 517 721 q 500 701 500 721 l 500 576 q 418 500 500 500 l 268 500 q 235 490 244 500 q 226 456 226 479 l 226 444 q 268 407 226 407 l 633 407 q 650 426 650 407 l 650 701 q 635 721 650 721 m 536 267 l 538 243 l 538 182 q 489 49 538 99 q 357 0 440 0 l 313 0 q 226 39 246 0 l 221 39 l 221 -57 q 188 -89 221 -89 l 94 -89 q 61 -57 61 -89 l 61 204 q 94 236 61 236 l 188 236 q 221 204 221 236 l 221 199 q 283 140 221 140 l 333 140 q 381 193 381 140 l 381 219 q 333 269 381 269 l 256 269 q 68 447 68 269 l 68 474 q 119 600 68 557 q 256 643 169 643 l 322 643 q 339 663 339 643 l 339 701 q 324 721 339 721 l -8 721 q -42 754 -42 721 l -42 833 q -8 865 -42 865 l 904 865 q 938 833 938 865 l 938 754 q 904 721 938 721 l 829 721 q 813 701 813 721 l 813 32 q 779 0 813 0 l 683 0 q 650 32 650 0 l 650 247 q 633 267 650 267 l 536 267 z "},"ञ":{"ha":771,"x_min":-42,"x_max":813,"o":"m 404 465 l 407 446 q 426 432 408 432 l 508 432 q 525 451 525 432 l 525 701 q 511 721 525 719 l -8 721 q -42 753 -42 721 l -42 833 q -8 865 -42 865 l 779 865 q 813 833 813 865 l 813 754 q 779 721 813 721 l 704 721 q 688 701 688 721 l 688 32 q 654 0 688 0 l 558 0 q 525 32 525 0 l 525 267 q 508 286 525 286 l 426 286 q 408 269 411 286 q 404 247 408 264 q 175 85 371 85 l 74 85 q 40 118 40 85 l 40 199 q 74 229 40 229 l 165 229 q 268 328 268 229 l 268 388 q 168 486 268 486 l 97 486 q 64 517 64 486 l 64 597 q 97 631 64 631 l 175 631 q 404 465 372 631 z "},"ट":{"ha":646,"x_min":-42,"x_max":688,"o":"m 290 608 l 371 608 q 388 628 388 608 l 388 701 q 372 721 388 721 l -8 721 q -42 754 -42 721 l -42 833 q -8 865 -42 865 l 654 865 q 688 833 688 865 l 688 754 q 654 721 688 721 l 565 721 q 549 701 549 721 l 549 542 q 467 465 549 465 l 310 465 q 233 444 257 465 q 210 375 210 424 l 210 278 q 233 208 210 229 q 310 188 257 188 l 361 188 q 439 206 415 188 q 463 274 463 224 l 463 279 q 493 319 463 319 l 579 319 q 614 279 614 319 l 614 274 q 378 43 614 43 l 290 43 q 113 107 172 43 q 53 282 53 171 l 53 375 q 113 547 53 485 q 290 608 172 608 z "},"ठ":{"ha":693,"x_min":-42,"x_max":735,"o":"m 378 465 l 308 465 q 235 443 257 465 q 213 371 213 421 l 213 286 q 314 186 213 186 l 369 186 q 471 286 471 186 l 471 371 q 378 465 471 465 m 701 721 l 578 721 q 561 701 561 721 l 561 636 q 513 564 561 578 l 513 558 q 598 513 565 551 q 631 411 631 475 l 631 267 q 567 101 631 160 q 393 42 504 42 l 289 42 q 114 103 175 42 q 53 279 53 165 l 53 374 q 115 548 53 486 q 290 610 176 610 l 331 610 q 399 672 399 610 l 399 701 q 385 721 399 719 l -8 721 q -42 754 -42 721 l -42 832 q -8 865 -42 865 l 701 865 q 735 832 735 865 l 735 754 q 701 721 735 721 z "},"ड":{"ha":636,"x_min":-42,"x_max":678,"o":"m -8 865 l 644 865 q 678 833 678 865 l 678 753 q 644 721 678 721 l 556 721 q 539 701 539 721 l 539 576 q 457 500 539 500 l 264 500 q 231 492 240 500 q 221 456 221 483 l 221 450 q 231 413 221 421 q 264 404 240 404 l 396 404 q 528 363 481 404 q 576 240 576 321 l 576 179 q 528 48 576 96 q 396 0 479 0 l 278 0 q 113 44 171 0 q 56 199 56 89 l 56 204 q 90 244 56 244 l 176 244 q 207 204 207 244 l 207 199 q 244 143 207 150 q 294 140 260 140 l 369 140 q 413 192 413 140 l 413 221 q 402 262 413 250 q 369 274 392 274 l 250 274 q 107 312 151 274 q 63 438 63 350 l 63 474 q 113 600 63 557 q 250 643 164 643 l 361 643 q 378 663 378 643 l 378 701 q 363 721 378 721 l -8 721 q -42 753 -42 721 l -42 833 q -8 865 -42 865 z "},"ढ":{"ha":676,"x_min":-42,"x_max":718,"o":"m 415 43 l 294 43 q 120 105 178 43 q 63 278 63 167 l 63 411 q 289 642 63 642 l 413 642 q 428 660 428 642 l 428 703 q 413 721 428 721 l -8 721 q -42 754 -42 721 l -42 833 q -8 865 -42 865 l 685 865 q 718 833 718 865 l 718 754 q 685 721 718 721 l 606 721 q 589 701 589 721 l 589 572 q 570 520 589 538 q 519 503 551 503 l 307 503 q 240 481 261 503 q 219 408 219 458 l 219 268 q 240 201 219 219 q 314 182 261 182 l 414 182 q 472 198 456 182 q 489 251 489 214 l 489 278 q 459 307 489 307 q 429 278 429 307 l 429 256 q 397 222 429 222 l 344 222 q 307 231 317 222 q 297 260 297 239 l 297 285 q 451 428 297 428 q 631 275 631 428 l 631 244 q 415 43 631 43 z "},"ण":{"ha":928,"x_min":-42,"x_max":969,"o":"m 367 721 l 246 721 q 229 701 229 721 l 229 419 q 304 343 229 343 l 310 343 q 383 419 383 343 l 383 701 q 367 721 383 721 m 665 721 l 560 721 q 543 701 543 721 l 543 425 q 485 259 543 317 q 318 201 426 201 l 293 201 q 128 260 186 201 q 69 425 69 318 l 69 701 q 53 721 69 721 l -8 721 q -42 754 -42 721 l -42 833 q -8 865 -42 865 l 936 865 q 969 833 969 865 l 969 754 q 936 721 969 721 l 861 721 q 844 701 844 721 l 844 32 q 811 0 844 0 l 715 0 q 682 32 682 0 l 682 701 q 665 721 682 721 z "},"त":{"ha":710,"x_min":-42,"x_max":751,"o":"m 222 361 l 222 235 q 241 160 222 181 q 317 139 260 140 l 329 139 q 363 106 363 139 l 363 33 q 329 0 363 0 l 275 0 q 112 60 164 0 q 60 240 60 119 l 60 371 q 123 545 60 483 q 300 607 186 607 l 447 607 q 464 626 464 607 l 464 701 q 450 721 464 719 l -8 721 q -42 754 -42 721 l -42 833 q -8 865 -42 865 l 718 865 q 751 833 751 865 l 751 754 q 718 721 751 721 l 643 721 q 626 701 626 721 l 626 32 q 593 0 626 0 l 497 0 q 464 32 464 0 l 464 439 q 447 458 464 458 l 324 458 q 222 361 222 458 z "},"थ":{"ha":846,"x_min":63,"x_max":886,"o":"m 600 185 l 594 185 q 436 111 550 111 l 339 111 q 208 136 264 111 q 122 203 153 161 q 63 382 63 282 l 63 511 q 96 544 63 544 l 260 544 q 356 613 356 544 l 356 693 q 342 723 356 711 q 304 735 328 735 q 254 693 254 735 l 254 636 q 224 603 254 603 l 135 603 q 104 636 104 603 l 104 713 q 160 828 104 783 q 303 874 215 874 q 451 829 392 874 q 510 696 510 785 l 510 603 q 272 400 510 400 l 228 400 l 228 382 q 257 285 228 318 q 361 253 286 253 l 438 253 q 560 301 521 253 q 600 414 600 350 l 600 801 q 617 847 600 829 q 663 865 633 865 l 853 865 q 886 833 886 865 l 886 754 q 853 721 886 721 l 779 721 q 763 701 763 721 l 763 32 q 729 0 763 0 l 633 0 q 600 32 600 0 l 600 185 z "},"द":{"ha":671,"x_min":-42,"x_max":713,"o":"m 282 642 l 417 642 q 432 660 432 642 l 432 703 q 417 721 432 721 l -8 721 q -42 754 -42 721 l -42 833 q -8 865 -42 865 l 679 865 q 713 833 713 865 l 713 754 q 679 721 713 721 l 610 721 q 593 701 593 721 l 593 567 q 574 515 593 532 q 524 497 556 497 l 307 497 q 240 475 261 497 q 219 403 219 453 l 219 315 q 241 248 219 267 q 314 229 263 229 l 378 229 q 440 296 440 229 l 440 361 q 474 393 440 393 l 567 393 q 600 361 600 393 l 600 32 q 567 0 600 0 l 474 0 q 440 32 440 0 l 440 128 l 435 128 q 347 85 414 85 l 288 85 q 113 147 171 85 q 56 319 56 208 l 56 411 q 282 642 56 642 z "},"ध":{"ha":756,"x_min":-42,"x_max":797,"o":"m 286 721 l 263 721 q 219 671 219 721 l 219 611 q 269 563 219 563 l 358 563 q 392 529 392 563 l 392 450 q 358 418 392 418 l 269 418 q 233 404 247 418 q 219 365 219 390 l 219 333 q 235 269 219 286 q 296 253 251 253 l 372 253 q 510 376 510 254 l 510 701 q 493 721 510 721 l 443 721 q 410 754 410 721 l 410 833 q 443 865 410 865 l 764 865 q 797 833 797 865 l 797 754 q 764 721 797 721 l 689 721 q 672 701 672 721 l 672 32 q 639 0 672 0 l 543 0 q 510 32 510 0 l 510 168 l 504 168 q 385 106 474 106 l 269 106 q 114 160 168 106 q 60 318 60 215 l 60 361 q 135 482 60 456 l 135 488 q 60 600 60 513 l 60 657 q 93 715 60 697 l 93 721 l -8 721 q -42 756 -42 721 l -42 833 q -8 865 -42 865 l 286 865 q 318 833 318 865 l 318 754 q 286 721 318 721 z "},"न":{"ha":682,"x_min":-42,"x_max":724,"o":"m 108 253 q 33 394 33 253 q 81 513 33 468 q 206 557 129 557 l 419 557 q 436 576 436 557 l 436 701 q 422 721 436 719 l -8 721 q -42 754 -42 721 l -42 833 q -8 865 -42 865 l 690 865 q 724 833 724 865 l 724 754 q 690 721 724 721 l 615 721 q 599 701 599 721 l 599 32 q 565 0 599 0 l 469 0 q 436 32 436 0 l 436 392 q 419 411 436 411 l 269 411 q 229 408 243 411 q 194 360 194 401 l 207 285 q 176 253 207 253 l 108 253 z "},"ऩ":{"ha":682,"x_min":-42,"x_max":724,"o":"m 294 51 l 294 -39 q 264 -71 294 -71 l 167 -71 q 136 -39 136 -71 l 136 51 q 167 82 136 82 l 264 82 q 294 51 294 82 m 108 253 q 33 394 33 253 q 81 513 33 468 q 206 557 129 557 l 419 557 q 436 576 436 557 l 436 701 q 422 721 436 719 l -8 721 q -42 754 -42 721 l -42 833 q -8 865 -42 865 l 690 865 q 724 833 724 865 l 724 754 q 690 721 724 721 l 615 721 q 599 701 599 721 l 599 32 q 565 0 599 0 l 469 0 q 436 32 436 0 l 436 392 q 419 411 436 411 l 269 411 q 229 408 243 411 q 194 360 194 401 l 207 285 q 176 253 207 253 l 108 253 z "},"प":{"ha":696,"x_min":-42,"x_max":738,"o":"m 321 358 l 347 358 q 426 385 401 358 q 450 454 450 411 l 450 701 q 433 721 450 721 l 249 721 q 232 701 232 721 l 232 450 q 252 381 232 403 q 321 358 272 358 m -8 865 l 704 865 q 738 833 738 865 l 738 754 q 704 721 738 721 l 629 721 q 613 701 613 721 l 613 32 q 579 0 613 0 l 483 0 q 450 32 450 0 l 450 267 l 444 267 q 321 211 411 211 l 292 211 q 130 271 190 211 q 69 432 69 331 l 69 701 q 56 721 69 719 l -8 721 q -42 756 -42 721 l -42 833 q -8 865 -42 865 z "},"फ":{"ha":1035,"x_min":-42,"x_max":1076,"o":"m 606 410 l 606 33 q 572 0 606 0 l 476 0 q 443 32 443 0 l 443 267 l 438 267 q 314 211 404 211 l 292 211 q 130 271 190 211 q 69 432 69 331 l 69 701 q 56 721 69 719 l -8 721 q -42 756 -42 721 l -42 833 q -8 865 -42 865 l 1043 865 q 1076 833 1076 865 l 1076 754 q 1043 721 1076 721 l 622 721 q 606 701 606 721 l 606 588 l 611 588 q 731 642 643 642 l 757 642 q 931 580 869 642 q 993 406 993 518 l 993 347 q 931 174 992 236 q 757 111 871 111 l 706 111 q 672 144 672 111 l 672 224 q 706 256 672 256 l 732 256 q 833 356 833 256 l 833 397 q 726 497 833 497 l 694 497 q 606 410 606 497 m 321 358 l 340 358 q 419 385 394 358 q 443 454 443 411 l 443 701 q 426 721 443 721 l 249 721 q 232 701 232 721 l 232 450 q 252 381 232 403 q 321 358 272 358 z "},"ब":{"ha":726,"x_min":-42,"x_max":768,"o":"m -8 865 l 735 865 q 768 833 768 865 l 768 754 q 735 721 768 721 l 660 721 q 643 701 643 721 l 643 33 q 610 0 643 0 l 513 0 q 481 33 481 0 l 481 153 l 475 153 q 426 114 461 129 q 347 99 392 99 l 292 99 q 117 160 179 99 q 54 335 54 222 l 54 406 q 116 579 56 517 q 290 642 176 642 l 379 642 q 413 608 413 642 l 413 535 q 379 503 413 503 l 310 503 q 274 499 290 503 l 478 315 q 481 344 481 335 l 481 701 q 464 721 481 721 l -8 721 q -42 754 -42 721 l -42 833 q -8 865 -42 865 m 307 235 l 372 235 q 425 244 399 235 l 211 435 q 208 403 208 415 l 208 335 q 231 260 208 285 q 307 235 254 235 z "},"भ":{"ha":708,"x_min":-42,"x_max":750,"o":"m 446 317 l 263 317 q 246 297 246 317 l 246 219 q 213 188 246 188 l 117 188 q 83 219 83 188 l 83 622 q 67 697 83 674 q 10 721 50 721 l -8 721 q -42 754 -42 721 l -42 832 q -8 865 -42 865 l 10 865 q 185 803 124 865 q 246 628 246 742 l 246 478 q 263 458 246 458 l 446 458 q 463 478 463 458 l 463 701 q 446 721 463 721 l 394 721 q 349 754 349 721 l 349 833 q 394 865 349 865 l 717 865 q 750 833 750 865 l 750 754 q 717 721 750 721 l 642 721 q 625 701 625 721 l 625 32 q 592 0 625 0 l 496 0 q 463 32 463 0 l 463 297 q 446 317 463 317 z "},"म":{"ha":701,"x_min":-42,"x_max":743,"o":"m 456 478 l 456 701 q 442 721 456 719 l 256 721 q 239 701 239 721 l 239 478 q 256 458 239 458 l 439 458 q 456 478 456 458 m 439 317 l 256 317 q 239 297 239 317 l 239 219 q 206 188 239 188 l 110 188 q 76 219 76 188 l 76 701 q 63 721 76 719 l -8 721 q -42 754 -42 721 l -42 835 q -8 865 -42 865 l 710 865 q 743 833 743 865 l 743 754 q 710 721 743 721 l 635 721 q 618 701 618 721 l 618 32 q 585 0 618 0 l 489 0 q 456 32 456 0 l 456 297 q 439 317 456 317 z "},"य":{"ha":808,"x_min":-42,"x_max":850,"o":"m 546 721 l 374 721 l 374 714 q 422 621 422 692 l 422 586 q 224 408 422 408 l 215 408 l 215 385 q 369 243 215 243 l 400 243 q 563 403 563 243 l 563 701 q 546 721 563 721 m 268 622 l 268 643 q 186 721 268 721 l -8 721 q -42 754 -42 721 l -42 835 q -8 865 -42 865 l 817 865 q 850 833 850 865 l 850 754 q 817 721 850 721 l 742 721 q 725 701 725 721 l 725 32 q 692 0 725 0 l 596 0 q 563 32 563 0 l 563 174 l 557 174 q 396 100 514 100 l 350 100 q 131 185 207 100 q 56 386 56 269 l 56 515 q 89 549 56 549 l 186 549 q 250 565 232 549 q 268 622 268 582 z "},"र":{"ha":471,"x_min":-42,"x_max":513,"o":"m 235 518 l 235 701 q 221 721 235 719 l -8 721 q -42 754 -42 721 l -42 833 q -8 865 -42 865 l 479 865 q 513 833 513 865 l 513 754 q 479 721 513 721 l 414 721 q 397 701 397 721 l 397 508 q 353 376 397 426 q 235 326 310 326 l 228 326 l 400 54 q 408 31 408 43 q 379 0 408 0 l 269 0 q 240 18 251 0 l 82 275 l 42 328 l 42 428 q 53 457 42 446 q 83 468 65 468 l 186 468 q 235 518 235 468 z "},"ऱ":{"ha":533,"x_min":-42,"x_max":575,"o":"m 172 64 l 172 -26 q 142 -58 172 -58 l 44 -58 q 14 -26 14 -58 l 14 64 q 44 94 14 94 l 142 94 q 172 64 172 94 m 297 518 l 297 701 q 283 721 297 719 l -8 721 q -42 754 -42 721 l -42 833 q -8 865 -42 865 l 542 865 q 575 833 575 865 l 575 754 q 542 721 575 721 l 476 721 q 460 701 460 721 l 460 508 q 416 376 460 426 q 297 326 372 326 l 290 326 l 463 54 q 471 31 471 43 q 442 0 471 0 l 332 0 q 303 18 314 0 l 144 275 l 104 328 l 104 428 q 116 457 104 446 q 146 468 128 468 l 249 468 q 297 518 297 468 z "},"ल":{"ha":888,"x_min":-42,"x_max":929,"o":"m 553 613 q 636 579 615 613 l 642 579 l 642 701 q 628 721 642 719 l -8 721 q -42 754 -42 721 l -42 833 q -8 865 -42 865 l 896 865 q 929 833 929 865 l 929 754 q 896 721 929 721 l 821 721 q 804 701 804 721 l 804 32 q 771 0 804 0 l 675 0 q 642 32 642 0 l 642 379 q 626 446 642 428 q 574 464 611 464 q 522 444 538 464 q 506 372 506 424 l 506 300 q 472 267 506 267 l 383 267 q 350 300 350 267 l 350 385 q 334 448 350 429 q 283 467 318 467 q 213 367 213 467 l 213 279 q 314 179 213 179 l 322 179 q 356 147 356 179 l 356 68 q 322 35 356 35 l 289 35 q 114 96 175 35 q 53 271 53 157 l 53 378 q 112 553 53 490 q 280 615 171 615 q 422 536 389 615 l 428 536 q 553 613 456 613 z "},"ळ":{"ha":925,"x_min":-42,"x_max":967,"o":"m -8 865 l 933 865 q 967 833 967 865 l 967 754 q 933 721 967 721 l 724 721 q 707 701 707 721 l 707 622 q 724 603 707 608 q 865 371 865 556 l 865 297 q 806 115 865 178 q 632 53 747 53 l 615 53 q 458 107 511 53 q 299 53 404 53 l 286 53 q 112 115 171 53 q 53 297 53 178 l 53 371 q 112 553 53 490 q 286 615 171 615 l 299 615 q 460 560 404 615 q 546 608 492 593 q 563 628 563 613 l 563 701 q 546 721 563 721 l -8 721 q -42 754 -42 721 l -42 833 q -8 865 -42 865 m 381 297 l 381 371 q 362 448 381 422 q 299 474 343 474 l 290 474 q 227 448 246 474 q 208 371 208 422 l 208 297 q 227 220 208 246 q 290 194 246 194 l 299 194 q 362 220 343 194 q 381 297 381 246 m 710 297 l 710 371 q 691 448 710 422 q 628 474 672 474 l 619 474 q 556 448 575 474 q 538 371 538 422 l 538 297 q 556 220 538 246 q 619 194 575 194 l 628 194 q 691 220 672 194 q 710 297 710 246 z "},"ऴ":{"ha":925,"x_min":-42,"x_max":967,"o":"m -8 865 l 933 865 q 967 833 967 865 l 967 754 q 933 721 967 721 l 724 721 q 707 701 707 721 l 707 622 q 724 603 707 608 q 865 371 865 556 l 865 297 q 806 115 865 178 q 632 53 747 53 l 615 53 q 458 107 511 53 q 299 53 404 53 l 286 53 q 112 115 171 53 q 53 297 53 178 l 53 371 q 112 553 53 490 q 286 615 171 615 l 299 615 q 460 560 404 615 q 546 608 492 593 q 563 628 563 613 l 563 701 q 546 721 563 721 l -8 721 q -42 754 -42 721 l -42 833 q -8 865 -42 865 m 381 297 l 381 371 q 362 448 381 422 q 299 474 343 474 l 290 474 q 227 448 246 474 q 208 371 208 422 l 208 297 q 227 220 208 246 q 290 194 246 194 l 299 194 q 362 220 343 194 q 381 297 381 246 m 710 297 l 710 371 q 691 448 710 422 q 628 474 672 474 l 619 474 q 556 448 575 474 q 538 371 538 422 l 538 297 q 556 220 538 246 q 619 194 575 194 l 628 194 q 691 220 672 194 q 710 297 710 246 m 235 0 l 332 0 q 363 -31 363 0 l 363 -121 q 332 -153 363 -153 l 235 -153 q 204 -121 204 -153 l 204 -31 q 235 0 204 0 z "},"व":{"ha":713,"x_min":-42,"x_max":754,"o":"m 629 701 l 629 33 q 596 0 629 0 l 499 0 q 467 33 467 0 l 467 153 l 461 153 q 413 114 447 129 q 333 99 378 99 l 292 99 q 117 160 179 99 q 54 335 54 222 l 54 400 q 116 574 56 511 q 290 636 176 636 l 367 636 q 400 603 400 636 l 400 524 q 367 492 400 492 l 319 492 q 218 392 218 492 l 218 343 q 241 268 218 293 q 317 243 264 243 l 358 243 q 441 274 415 243 q 467 353 467 306 l 467 701 q 450 721 467 721 l -8 721 q -42 754 -42 721 l -42 833 q -8 865 -42 865 l 721 865 q 754 833 754 865 l 754 754 q 721 721 754 721 l 646 721 q 629 701 629 721 z "},"श":{"ha":899,"x_min":83,"x_max":940,"o":"m 653 32 l 653 801 q 669 847 653 829 q 715 865 686 865 l 907 865 q 940 833 940 865 l 940 754 q 907 721 940 721 l 832 721 q 815 701 815 721 l 815 32 q 782 0 815 0 l 686 0 q 653 32 653 0 m 481 31 q 451 0 481 0 l 338 0 q 308 18 319 0 l 126 267 l 83 319 l 83 419 q 95 449 83 438 q 125 460 107 460 l 267 460 q 374 544 374 460 l 374 669 q 318 731 374 731 q 275 716 288 731 q 263 671 263 701 l 263 599 q 231 565 263 565 l 138 565 q 103 599 103 565 l 103 663 q 318 868 103 868 q 476 816 418 868 q 533 663 533 764 l 533 547 q 470 378 533 439 q 279 318 407 318 l 269 318 l 472 54 q 481 31 481 43 z "},"ष":{"ha":710,"x_min":-42,"x_max":751,"o":"m 464 701 q 447 721 464 721 l 229 721 l 464 475 l 464 701 m 321 332 l 361 332 q 444 365 419 332 l 232 592 l 232 424 q 252 354 232 376 q 321 332 272 332 m -8 865 l 718 865 q 751 833 751 865 l 751 754 q 718 721 751 721 l 643 721 q 626 701 626 721 l 626 32 q 593 0 626 0 l 497 0 q 464 32 464 0 l 464 244 l 458 244 q 335 189 425 189 l 292 189 q 130 249 190 189 q 69 410 69 308 l 69 701 q 56 721 69 719 l -8 721 q -42 756 -42 721 l -42 833 q -8 865 -42 865 z "},"स":{"ha":838,"x_min":-42,"x_max":879,"o":"m 376 468 l 575 468 q 592 488 592 468 l 592 701 q 575 721 592 721 l 414 721 q 397 701 397 721 l 397 564 q 376 474 397 496 l 376 468 m 408 29 q 379 0 408 0 l 269 0 q 240 18 251 0 l 82 275 l 42 328 l 42 428 q 53 457 42 446 q 83 468 65 468 l 186 468 q 235 518 235 468 l 235 701 q 218 721 235 721 l -8 721 q -42 756 -42 721 l -42 833 q -8 865 -42 865 l 846 865 q 879 833 879 865 l 879 754 q 846 721 879 721 l 771 721 q 754 701 754 721 l 754 32 q 721 0 754 0 l 625 0 q 592 32 592 0 l 592 304 q 575 324 592 324 l 229 324 l 400 54 q 408 29 408 40 z "},"ह":{"ha":643,"x_min":-42,"x_max":685,"o":"m -8 721 q -42 753 -42 721 l -42 833 q -8 865 -42 865 l 651 865 q 685 833 685 865 l 685 753 q 651 721 685 721 l 583 721 q 567 701 567 721 l 567 582 q 485 506 567 506 l 293 506 q 245 493 260 506 q 231 449 231 481 q 244 403 231 417 q 289 390 258 390 l 422 390 q 544 353 500 390 q 588 247 588 315 l 588 199 q 554 167 588 167 l 467 167 q 433 199 433 167 l 433 218 q 423 253 433 243 q 388 263 413 263 l 299 263 q 238 240 254 263 q 221 168 222 217 l 221 158 q 249 88 221 106 q 357 69 276 69 l 535 69 q 568 38 568 69 l 568 -33 q 535 -65 568 -65 l 339 -65 q 124 -10 190 -65 q 58 157 58 44 l 58 172 q 138 328 58 294 l 138 333 q 67 464 67 365 q 117 603 67 563 q 263 643 167 643 l 388 643 q 406 663 406 643 l 406 701 q 392 721 406 719 l -8 721 z "},"़":{"ha":0,"x_min":-492,"x_max":-333,"o":"m -333 -31 l -333 -121 q -364 -153 -333 -153 l -461 -153 q -492 -121 -492 -153 l -492 -31 q -461 0 -492 0 l -364 0 q -333 -31 -333 0 z "}}}
